<?xml version="1.0" encoding="utf-8"?>
<!DOCTYPE svg PUBLIC "-//W3C//DTD SVG 1.1//EN" "http://www.w3.org/Graphics/SVG/1.1/DTD/svg11.dtd">
<svg version="1.1" id="Layer_1" xmlns="http://www.w3.org/2000/svg" xmlns:xlink="http://www.w3.org/1999/xlink" x="0px" y="0px"
	 width="700px" height="60px" viewBox="0 0 700 60" enable-background="new 0 0 700 60" xml:space="preserve">
<g>
	<g>
		<path fill="#231F20" d="M24.5,59.167H17L0,18.749h10.916l9.834,23.59l10.168-23.59h7.5l10.086,23.59l9.917-23.59h10.917
			L52.337,59.167h-7.501L34.668,35.67L24.5,59.167z"/>
		<path fill="#231F20" d="M105.819,17.918c12.252,0,21.504,9.415,21.504,21.087c0,11.665-9.252,20.994-21.504,20.994
			c-12.25,0-21.501-9.329-21.501-20.994C84.318,27.333,93.57,17.918,105.819,17.918z M105.819,50.004
			c6.336,0,10.668-4.917,10.668-10.998c0-6.091-4.332-11.089-10.668-11.089c-6.333,0-10.667,4.999-10.667,11.089
			C95.153,45.087,99.486,50.004,105.819,50.004z"/>
		<path fill="#231F20" d="M173.561,28.334c-0.75-0.249-2.333-0.417-3.918-0.417c-4.749,0-8.499,3.417-9.834,5.837v25.413h-10.833
			V18.749h10.418v4.087c2.416-3.002,6.833-4.917,11.75-4.917c1.584,0,2.501,0.166,3.668,0.331L173.561,28.334z"/>
		<path fill="#231F20" d="M215.886,36.915l22.252,22.252h-14.585l-17.084-17.501v17.501h-10.835V0h10.835v31.836l13.918-13.087
			h15.25L215.886,36.915z"/>
		<path fill="#231F20" d="M413.83,59.167V0h10.833v21.667c3.16-2.503,7-3.749,11.414-3.749c11,0,19.838,9.165,19.838,21.087
			c0,5.495-2.004,10.499-5.172,14.165c-3.58,4.167-9.249,6.829-15.247,6.829c-4.085,0-7.917-1.243-11.251-4.08v3.247H413.83z
			 M424.663,45c2.082,3.002,5.664,5.004,9.748,5.004c6.085,0,10.669-4.671,10.669-10.998c0-5.838-4.086-11.089-10.421-11.089
			c-4.167,0-7.747,2.002-9.996,4.999V45z"/>
		<path fill="#231F20" d="M512.82,52.752C508.9,57.417,502.485,60,496.236,60c-12.084,0-21.168-8.332-21.168-20.994
			c0-11.257,7.666-21.087,19.665-21.087c11.165,0,19.085,9.415,19.085,20.667c0,1.085-0.086,2.17-0.252,3.081h-27.999
			c0.581,5.669,5.166,9.588,10.915,9.588c4.585,0,8.251-2.587,10.17-4.671L512.82,52.752z M502.733,33.754
			c-0.334-3.585-3.581-7.085-8-7.085c-4.499,0-8.166,3.417-8.666,7.085H502.733z"/>
		<path fill="#231F20" d="M535.475,59.167V18.749h10.415v3.252c3.079-2.501,6.914-4.083,11.42-4.083
			c5.582,0,10.667,2.499,14.001,6.497c2.661,3.168,4.166,7.255,4.166,14.17v20.582h-10.836V37.751c0-3.997-0.916-6.081-2.414-7.583
			c-1.418-1.417-3.588-2.252-6.088-2.252c-4.58,0-8.333,2.918-9.831,4.999v26.252H535.475z"/>
		<path fill="#231F20" d="M636.296,50.916C631.544,57.252,625.548,60,617.963,60c-12.5,0-21.67-9.329-21.67-20.994
			c0-11.756,9.417-21.087,21.755-21.087c7.002,0,13.249,3.25,16.997,8.081l-7.668,6.752c-2.163-2.833-5.417-4.834-9.329-4.834
			c-6.255,0-10.921,4.917-10.921,11.089c0,6.327,4.585,10.998,11.167,10.998c4.418,0,7.919-2.669,9.669-5.338L636.296,50.916z"/>
		<path fill="#231F20" d="M667.952,59.167h-10.833V0h10.833v21.667c3.002-2.333,6.835-3.749,11.001-3.749
			c5.582,0,10.668,2.499,14.001,6.497c2.67,3.168,4.167,7.255,4.167,14.17v20.582h-10.833V37.751c0-3.997-0.919-6.081-2.417-7.583
			c-1.418-1.417-3.581-2.252-6.081-2.252c-4.588,0-8.341,2.918-9.838,4.999V59.167z"/>
		<path fill="#231F20" d="M392.501,18.749v10.455H255.666V18.749H392.501z"/>
	</g>
	<g>
		<path fill="#231F20" d="M690.502,0v0.987h-1.521v4.765h-1.11V0.987h-1.521V0H690.502z"/>
		<path fill="#231F20" d="M694.244,3.443L696.341,0h0.78v5.752h-1.106V2.548l-1.386,2.261h-0.771l-1.38-2.261v3.204h-1.109V0h0.778
			L694.244,3.443z"/>
	</g>
</g>
</svg>
