<?xml version="1.0" standalone="no"?>
<!DOCTYPE svg PUBLIC "-//W3C//DTD SVG 1.1//EN" "http://www.w3.org/Graphics/SVG/1.1/DTD/svg11.dtd" >
<svg xmlns="http://www.w3.org/2000/svg">
<metadata></metadata>
<defs>
<font id="lelum_sansbold" horiz-adv-x="1267" >
<font-face units-per-em="2048" ascent="1638" descent="-410" />
<missing-glyph horiz-adv-x="442" />
<glyph unicode="&#xfb01;" horiz-adv-x="1304" d="M39 845q3 19 10.5 56t11.5 66.5t4 56.5h143v147q0 85 20.5 151t53 105.5t78 64.5t91 34.5t97.5 9.5q48 0 88 -4.5t56 -9.5l16 -4q3 -22 10.5 -61t12.5 -71.5t5 -60.5q-44 18 -107 18q-157 0 -157 -201v-118h256q0 -35 -12.5 -101.5t-13.5 -77.5h-230v-845h-264v845h-169z M877 1384q0 61 43.5 104.5t105.5 43.5t105.5 -43.5t43.5 -104.5q0 -62 -43.5 -105.5t-105.5 -43.5t-105.5 43.5t-43.5 105.5zM894 0v1002q39 0 83.5 6.5t98 16.5t83.5 14v-1039h-265z" />
<glyph unicode="&#xfb02;" horiz-adv-x="1304" d="M39 845q3 19 10.5 56t11.5 66.5t4 56.5h143v147q0 85 20.5 151t53 105.5t78 64.5t91 34.5t97.5 9.5q48 0 88 -4.5t56 -9.5l16 -4q3 -22 10.5 -61t12.5 -71.5t5 -60.5q-44 18 -107 18q-157 0 -157 -201v-118h256q0 -35 -12.5 -101.5t-13.5 -77.5h-230v-845h-264v845h-169z M894 0v1515q39 0 83.5 6.5t98 16.5t83.5 14v-1552h-265z" />
<glyph horiz-adv-x="2048" />
<glyph horiz-adv-x="2048" />
<glyph unicode="&#xd;" horiz-adv-x="2048" />
<glyph unicode=" "  horiz-adv-x="442" />
<glyph unicode="&#x09;" horiz-adv-x="442" />
<glyph unicode="&#xa0;" horiz-adv-x="442" />
<glyph unicode="!" horiz-adv-x="587" d="M145 112q0 62 42.5 104t104.5 42q63 0 106.5 -42t43.5 -104q0 -63 -43.5 -105t-106.5 -42q-62 0 -104.5 42t-42.5 105zM154 1434h280l-37 -997q-31 0 -65 -4.5t-76.5 -13t-64.5 -11.5z" />
<glyph unicode="&#x22;" horiz-adv-x="811" d="M150 866v581q28 0 60.5 5t71 12.5t60.5 10.5l-46 -589q-16 -2 -46 -8t-54 -9t-46 -3zM468 866v581q28 0 60.5 5t71.5 12.5t61 10.5l-46 -589q-15 -2 -46 -8t-55 -9t-46 -3z" />
<glyph unicode="#" horiz-adv-x="1382" d="M48 399l22 180h216l42 341h-216l22 180h216l41 334h237l-41 -334h295l41 334h237l-41 -334h217l-22 -180h-217l-42 -341h217l-22 -180h-217l-49 -399h-237l49 399h-295l-49 -399h-237l49 399h-216zM523 579h295l42 341h-295z" />
<glyph unicode="$" horiz-adv-x="1138" d="M129 279q206 -100 380 -100q105 0 168 51t66 129q3 66 -31 111t-119 86l-189 95q-127 64 -186 143.5t-59 187.5q0 152 92.5 259.5t252.5 143.5v273h188v-258q73 -3 145.5 -16.5t108.5 -25.5l36 -12q0 -32 -5 -68t-13.5 -80t-11.5 -68q-13 7 -37 17.5t-96 28t-141 17.5 q-100 0 -162.5 -49.5t-62.5 -125.5q0 -51 31 -90.5t99 -72.5l177 -90q155 -78 218.5 -169.5t59.5 -234.5q-4 -144 -97 -245t-249 -135v-249h-188v235q-191 6 -341 67q-2 16 -18.5 106.5t-15.5 138.5z" />
<glyph unicode="%" horiz-adv-x="1804" d="M63 949q0 189 88 304.5t233 115.5t233.5 -115.5t88.5 -304.5t-88.5 -305t-233.5 -116t-233 116t-88 305zM259 949q0 -127 34.5 -208t90.5 -81q57 0 91.5 81t34.5 208t-34.5 208t-91.5 81q-56 0 -90.5 -81t-34.5 -208zM445 -71l764 1577l151 -75l-764 -1577zM1098 408 q0 189 88 304.5t233 115.5t233.5 -115.5t88.5 -304.5t-88.5 -304.5t-233.5 -115.5t-233 115.5t-88 304.5zM1294 408q0 -127 34.5 -208t90.5 -81q57 0 91.5 81t34.5 208t-34.5 208t-91.5 81q-56 0 -90.5 -81t-34.5 -208z" />
<glyph unicode="&#x26;" horiz-adv-x="1449" d="M125 372q0 92 34 171t83.5 133t124.5 108q-93 88 -144 173t-51 193q0 179 125 289.5t322 110.5q178 0 291 -103t113 -259q0 -71 -20.5 -132t-60 -109.5t-83 -85t-103.5 -74.5l224 -207q31 57 59.5 97.5t68.5 78.5t91 58t112 20q4 -28 12.5 -71t13.5 -77.5t5 -71.5 q-57 -10 -104.5 -56.5t-97.5 -126.5l287 -266l-171 -199l-258 238q-75 -105 -171.5 -165t-238.5 -60q-205 0 -334 108.5t-129 284.5zM373 376q0 -91 62.5 -148t150.5 -57q89 0 151.5 44t114.5 124l-323 299q-79 -63 -117.5 -124.5t-38.5 -137.5zM436 1158q0 -44 21 -82.5 t47 -64t76 -67.5q11 -8 16 -13q77 49 116.5 81t65.5 76.5t26 99.5q0 77 -44.5 123t-119.5 46q-91 0 -147.5 -55t-56.5 -144z" />
<glyph unicode="'" horiz-adv-x="491" d="M150 866v581q28 0 60.5 5t71 12.5t60.5 10.5l-46 -589q-16 -2 -46 -8t-54 -9t-46 -3z" />
<glyph unicode="(" horiz-adv-x="729" d="M92 563q0 129 27.5 251.5t71 215t96.5 174t106 137t96.5 96t70.5 59.5l28 19l36 -254q-6 -5 -15.5 -14.5t-37.5 -42.5t-53 -71t-56 -99.5t-53.5 -128t-37.5 -157t-15 -185.5t15 -185t38.5 -157.5t52 -127.5t57 -100.5t52 -70t38.5 -43.5l15 -14l-36 -252q-10 7 -28 19.5 t-69.5 57.5t-98.5 96.5t-104 136t-98.5 174.5t-69.5 213t-28 253z" />
<glyph unicode=")" horiz-adv-x="729" d="M106 -135q6 5 15.5 14.5t37.5 42.5t53 71t56 99.5t53.5 128t37.5 157t15 185.5t-15 185t-38.5 157.5t-52 127.5t-57 100.5t-52 70t-38.5 43.5l-15 14l36 254q10 -7 28 -19.5t69.5 -58t98.5 -97.5t104 -136t98.5 -175t69.5 -214t28 -252q0 -130 -27.5 -252t-71 -214.5 t-96.5 -173.5t-106 -136.5t-96.5 -95.5t-70.5 -59l-28 -19z" />
<glyph unicode="*" horiz-adv-x="845" d="M88 1042l231 128l-231 128l106 145l193 -180l51 260q25 0 53.5 -9t63.5 -25t54 -22l-112 -240l263 33v-180l-263 32l112 -240l-171 -55l-51 259l-193 -180z" />
<glyph unicode="+" d="M108 620v193h429v430h195v-430h427v-193h-427v-430h-195v430h-429z" />
<glyph unicode="," horiz-adv-x="491" d="M79 -339q7 6 17.5 16t38.5 40.5t49 61t38.5 72t17.5 77.5q0 25 -14.5 43t-35 30t-41.5 26t-35.5 39t-14.5 61q0 57 37.5 94t97.5 37q80 0 127.5 -56t47.5 -147q0 -76 -20.5 -147t-49.5 -117t-58.5 -81.5t-50.5 -51.5l-20 -16q-19 0 -41 3.5t-49 8.5t-41 7z" />
<glyph unicode="-" horiz-adv-x="741" d="M61 423v178h618v-178h-618z" />
<glyph unicode="." horiz-adv-x="491" d="M98 112q0 62 43 104t105 42q63 0 106 -42t43 -104q0 -63 -43 -105t-106 -42t-105.5 42t-42.5 105z" />
<glyph unicode="/" horiz-adv-x="860" d="M34 -246l577 1782h215l-578 -1782h-214z" />
<glyph unicode="0" horiz-adv-x="1200" d="M93 681q0 314 139 506.5t368 192.5t368.5 -192.5t139.5 -506.5q0 -315 -139.5 -508t-368.5 -193t-368 193t-139 508zM357 681q0 -231 67 -377t176 -146q72 0 128 66.5t86 185.5t30 271q0 231 -67 376t-177 145q-109 0 -176 -145t-67 -376z" />
<glyph unicode="1" horiz-adv-x="743" d="M50 1132q179 63 394 234l153 -12v-1354h-263v1057q-132 -83 -255 -132q-1 6 -14.5 84t-14.5 123z" />
<glyph unicode="2" horiz-adv-x="1054" d="M80 178q38 33 59.5 51.5t94 86.5t123 120t120.5 133t114 146.5t76 139t32 130.5q0 94 -55.5 148.5t-164.5 54.5q-50 0 -103 -16.5t-93 -40t-73 -47.5t-50 -40l-17 -17q-3 20 -11.5 64.5t-13.5 80t-5 64.5q11 11 42.5 31t85 47.5t131.5 47t158 19.5q199 0 316 -100.5 t117 -275.5q0 -99 -42 -203t-101 -184.5t-138.5 -161t-138 -127.5t-117 -91t-60.5 -45h594q0 -27 -3.5 -57.5t-12 -78.5t-9.5 -57h-830q-3 22 -10 57t-11 64t-4 57z" />
<glyph unicode="3" horiz-adv-x="1036" d="M57 261l2 -1q154 -88 341 -88q121 0 195.5 61t74.5 161q0 93 -76 150t-205 57l-110 -6q-2 15 -9 58t-11 75t-4 58q41 -7 119 -7q137 0 213.5 58t76.5 159q0 88 -65 139t-184 51q-50 0 -100.5 -10.5t-86.5 -25.5t-64.5 -30t-43.5 -26l-14 -10q-3 21 -11 61t-12.5 73 t-4.5 61q12 9 38.5 22t75.5 32.5t122.5 32.5t152.5 13q204 0 327.5 -100.5t123.5 -264.5q0 -99 -57 -185.5t-163 -133.5q117 -42 181.5 -126t64.5 -196q0 -180 -138.5 -286.5t-370.5 -106.5q-42 0 -82.5 3.5t-73 9.5t-60.5 12t-51.5 14t-38 13.5t-28 11.5t-14.5 6 q-3 23 -11.5 66t-13.5 78.5t-5 66.5z" />
<glyph unicode="4" horiz-adv-x="1105" d="M50 483l425 877h277l-420 -843h333l42 507l188 14v-510h195q0 -28 -4.5 -60t-12 -71.5t-10.5 -60.5h-154v-336h-248v336h-587q-3 16 -9.5 46t-10.5 54.5t-4 46.5z" />
<glyph unicode="5" horiz-adv-x="1101" d="M90 280q185 -107 357 -107q136 0 219.5 75t83.5 196q0 107 -61 172t-161 65q-39 0 -74 -9.5t-57 -23t-38 -27t-23 -23.5l-7 -9q-9 2 -44 8.5t-50 8.5t-41.5 5t-48.5 3l72 746h755q0 -28 -4.5 -60.5t-12 -71.5t-10.5 -61h-492l-37 -359q98 49 202 49q177 0 287 -112.5 t110 -296.5q0 -207 -145 -337t-377 -130q-97 0 -187 17.5t-126.5 31.5t-57.5 25q-2 15 -17 97.5t-15 127.5z" />
<glyph unicode="6" horiz-adv-x="1116" d="M95 510q2 392 211.5 633.5t567.5 260.5q3 -22 11.5 -65t13 -78t4.5 -67q-211 -7 -349.5 -132t-188.5 -331q107 112 286 112q180 0 288.5 -111t108.5 -295q0 -203 -128 -329.5t-336 -126.5q-224 0 -357 147t-132 382zM356 447q-1 -127 62 -206t166 -79q98 0 158 72t61 190 t-59 190t-159 72q-94 0 -161 -68t-68 -171z" />
<glyph unicode="7" horiz-adv-x="995" d="M33 1167q3 21 10.5 61t12 72t4.5 60h901q2 -15 7 -42t8 -49t3 -42q-188 -247 -326 -577.5t-210 -671.5l-256 33q62 315 197.5 628t304.5 528h-656z" />
<glyph unicode="8" horiz-adv-x="1128" d="M89 365q0 117 64 204.5t179 131.5q-101 44 -157 125t-56 187q0 165 123.5 266t323.5 101q199 0 322 -102t123 -265q0 -106 -56.5 -186.5t-157.5 -124.5q115 -44 179 -131t64 -205q0 -172 -131 -279t-344 -107t-344.5 107t-131.5 278zM333 374q0 -103 63.5 -165.5 t168.5 -62.5t168 62t63 166q0 102 -63.5 164t-167.5 62q-105 0 -168.5 -62t-63.5 -164zM362 1004q0 -95 54.5 -152t147.5 -57t148 57t55 152q0 96 -55 153t-147 57t-147.5 -57t-55.5 -153z" />
<glyph unicode="9" horiz-adv-x="1116" d="M79 923q0 203 128.5 329.5t336.5 126.5q224 0 356.5 -147t131.5 -382q-2 -392 -211.5 -633.5t-567.5 -260.5q-3 22 -11.5 65t-13 78t-4.5 67q211 7 349.5 132t188.5 331q-107 -112 -285 -112q-180 0 -289 111t-109 295zM324 936q-1 -118 59.5 -190t159.5 -72 q94 0 160.5 68t67.5 171q1 127 -62 206t-166 79q-98 0 -158 -72t-61 -190z" />
<glyph unicode=":" horiz-adv-x="491" d="M98 112q0 62 43 104t105 42q63 0 106 -42t43 -104q0 -63 -43 -105t-106 -42t-105.5 42t-42.5 105zM98 870q0 62 42.5 103.5t105.5 41.5t106 -41.5t43 -103.5q0 -63 -43 -105t-106 -42t-105.5 42t-42.5 105z" />
<glyph unicode=";" horiz-adv-x="491" d="M79 -339q7 6 17.5 16t38.5 40.5t49 61t38.5 72t17.5 77.5q0 25 -14.5 43t-35 30t-41.5 26t-35.5 39t-14.5 61q0 57 37.5 94t97.5 37q80 0 127.5 -56t47.5 -147q0 -76 -20.5 -147t-49.5 -117t-58.5 -81.5t-50.5 -51.5l-20 -16q-19 0 -41 3.5t-49 8.5t-41 7zM91 870 q0 62 42.5 103.5t105.5 41.5t106 -41.5t43 -103.5q0 -63 -43 -105t-106 -42t-105.5 42t-42.5 105z" />
<glyph unicode="&#x3c;" d="M108 622v185l1051 458v-211l-825 -339l825 -340v-211z" />
<glyph unicode="=" d="M108 395v193h1051v-193h-1051zM108 846v192h1051v-192h-1051z" />
<glyph unicode="&#x3e;" d="M108 164v211l826 340l-826 339v211l1051 -458v-185z" />
<glyph unicode="?" horiz-adv-x="1003" d="M101 713q0 169 197 248l199 82q56 22 84 49t28 65q0 48 -50.5 76.5t-139.5 28.5q-73 0 -143.5 -19t-105.5 -38l-34 -19q-3 20 -10.5 62.5t-11.5 74t-4 62.5q17 9 47.5 22t118 34.5t168.5 21.5q196 0 313 -86t117 -232q0 -107 -59.5 -174t-187.5 -115l-150 -55 q-65 -24 -92.5 -51t-27.5 -65q0 -52 44.5 -83t118.5 -31q43 0 81 10t55 20l16 10q3 -18 9.5 -50.5t10 -59t3.5 -50.5q-9 -5 -26 -12.5t-73.5 -20t-117.5 -12.5q-170 0 -273.5 83.5t-103.5 223.5zM306 112q0 62 43 104t105 42q63 0 106 -42t43 -104q0 -63 -43 -105t-106 -42 t-105.5 42t-42.5 105z" />
<glyph unicode="@" horiz-adv-x="1943" d="M98 514q0 197 74.5 370.5t202.5 296.5t305 194t375 71q236 0 416 -91.5t278 -259.5t98 -387q0 -263 -122.5 -423.5t-323.5 -160.5q-127 0 -208.5 63.5t-104.5 171.5q-41 -64 -104.5 -100.5t-142.5 -36.5q-110 0 -173.5 83.5t-63.5 222.5q0 203 124.5 329t319.5 126 q52 0 99.5 -7t77.5 -16.5t54 -20.5t33 -16.5t11 -7.5l-53 -442q-9 -72 25 -118.5t104 -46.5q98 0 158 109t60 288q0 238 -158.5 383t-419.5 145q-196 0 -356 -93.5t-250 -253.5t-90 -351q0 -266 152.5 -432.5t401.5 -166.5q69 0 140 13t108 27l37 13q-4 -32 -13.5 -69.5 t-22.5 -83t-19 -70.5q-120 -43 -268 -43q-164 0 -306 61t-241.5 166.5t-156.5 252t-57 311.5zM812 541q0 -75 31 -119.5t86 -44.5q64 0 108.5 51t53.5 128l34 287q-26 2 -42 2q-120 0 -195.5 -85.5t-75.5 -218.5z" />
<glyph unicode="A" horiz-adv-x="1441" d="M20 0l567 1434q159 0 264 15l572 -1449h-300l-123 324h-573l-124 -324h-283zM487 527h452l-225 621z" />
<glyph unicode="B" horiz-adv-x="1349" d="M184 16v1402q228 33 436 33q250 0 403 -99.5t153 -274.5q0 -216 -224 -309q143 -46 217.5 -140t74.5 -226q0 -196 -164 -308.5t-443 -112.5q-43 0 -86 1t-79 3t-71 5t-63 6t-52.5 5.5t-43 5.5t-31.5 5t-20 3zM456 201q86 -8 167 -8q162 0 251.5 60.5t89.5 168.5 t-84.5 164.5t-235.5 56.5q-78 0 -188 -12v-430zM456 833q70 -4 124 -4q324 0 324 210q0 92 -77.5 142.5t-220.5 53.5h-12q-60 0 -138 -9v-393z" />
<glyph unicode="C" horiz-adv-x="1382" d="M92 699q0 216 101.5 392.5t276.5 276.5t385 100q83 0 159.5 -10t126.5 -24t88.5 -28t56.5 -24l17 -10q0 -34 -5 -71.5t-14 -85t-13 -71.5q-6 4 -18 11t-50.5 24.5t-79.5 31t-103 24.5t-123 11q-226 0 -376 -151t-150 -382q0 -236 143 -381t378 -145q74 0 144 14.5t117 35 t83.5 41t53.5 34.5l17 15q0 -38 -5 -80.5t-14 -95.5t-13 -81q-6 -4 -18.5 -11t-54.5 -25t-88 -32t-118.5 -25t-147.5 -11q-167 0 -308.5 54t-239.5 150.5t-153 232.5t-55 296z" />
<glyph unicode="D" horiz-adv-x="1548" d="M184 2v1429q221 19 477 19q374 0 585 -182t211 -507q0 -227 -103.5 -404t-294 -275.5t-438.5 -98.5q-31 0 -66 0.5t-67.5 1.5t-65.5 2.5t-62.5 3.5t-56.5 3.5t-48.5 3t-37 2.5t-24.5 2h-9zM464 218q110 -10 212 -10q233 0 364 143.5t131 393.5q0 223 -131 353.5 t-352 130.5q-18 0 -37 -0.5t-36.5 -1t-34.5 -1t-32 -1.5t-28 -1.5t-23.5 -1t-17.5 -1t-11 -1.5h-4v-1002z" />
<glyph unicode="E" horiz-adv-x="1181" d="M184 0v1434h872v-222h-593v-378h521q0 -31 -4.5 -68t-13 -86t-11.5 -68h-492v-391h627v-221h-906z" />
<glyph unicode="F" horiz-adv-x="1140" d="M184 0v1434h865v-222h-586v-406h492q0 -32 -4.5 -66t-13 -77t-11.5 -64h-463v-599h-279z" />
<glyph unicode="G" horiz-adv-x="1519" d="M92 699q0 216 101.5 392.5t277 276.5t387.5 100q136 0 252 -24t164 -48l48 -23q0 -34 -5 -72.5t-14 -86t-13 -72.5q-7 4 -19 11t-52.5 25t-83.5 32t-107 25t-128 11q-228 0 -378.5 -151t-150.5 -382q0 -236 144.5 -381t383.5 -145q117 0 233 37v340h-315q3 21 11 64 t12.5 76t4.5 63h538v-663q-2 -2 -23.5 -14.5t-70.5 -34t-108.5 -41t-147.5 -34t-179 -14.5q-226 0 -399.5 93t-268 259.5t-94.5 380.5z" />
<glyph unicode="H" horiz-adv-x="1626" d="M184 0v1434h279v-598h700v598h280v-1434h-280v614h-700v-614h-279z" />
<glyph unicode="I" horiz-adv-x="647" d="M184 0v1434h279v-1434h-279z" />
<glyph unicode="J" horiz-adv-x="882" d="M85 232q8 -5 23.5 -12.5t62 -20t93.5 -12.5q72 0 113.5 45.5t41.5 126.5v1075h279v-1102q0 -166 -93.5 -266t-289.5 -100q-49 0 -98 8.5t-74 17.5l-25 9q-4 26 -13 73t-14.5 85.5t-5.5 72.5z" />
<glyph unicode="K" horiz-adv-x="1406" d="M184 0v1434h279v-692l566 692h324l-612 -716q91 -83 141 -141l512 -577h-359l-572 660v-660h-279z" />
<glyph unicode="L" horiz-adv-x="1191" d="M184 0v1434h279v-1213h672v-221h-951z" />
<glyph unicode="M" horiz-adv-x="1925" d="M125 0l185 1434q216 13 247 13l406 -1046l404 1033h247l187 -1434h-281l-82 661q-13 101 -25 328l-363 -990h-200l-360 963q-6 -201 -22 -332l-75 -630h-268z" />
<glyph unicode="N" horiz-adv-x="1619" d="M184 0v1434q19 2 58.5 6t70.5 6t59 2l792 -987q-8 154 -8 260v713h280v-1434h-196l-787 993q9 -146 9 -205v-788h-278z" />
<glyph unicode="O" horiz-adv-x="1634" d="M92 701q0 221 96 396.5t266.5 273t385.5 97.5q205 0 365.5 -91.5t248.5 -255.5t88 -373q0 -228 -94 -406t-264 -277t-388 -99q-208 0 -368.5 93t-248 260t-87.5 382zM371 722q0 -236 123 -385.5t320 -149.5q198 0 324 152t126 391q0 227 -125 371.5t-318 144.5 q-195 0 -322.5 -147.5t-127.5 -376.5z" />
<glyph unicode="P" d="M184 0v1418q211 33 407 33q285 0 445 -121t160 -341q0 -237 -157.5 -373t-436.5 -136q-69 0 -139 8v-488h-279zM449 710q65 -13 145 -13q159 0 248 77.5t89 208.5q0 119 -83.5 184.5t-232.5 65.5q-47 0 -88.5 -2.5t-59.5 -5.5l-18 -3v-512z" />
<glyph unicode="Q" horiz-adv-x="1634" d="M92 701q0 166 56 309t154.5 243.5t237 157.5t299.5 57q205 0 365.5 -91.5t249 -255.5t88.5 -373q0 -241 -105.5 -426.5t-291.5 -277.5q107 -8 191 -21l250 -42q0 -32 -5.5 -69t-14 -81.5t-11.5 -70.5l-957 231q-233 60 -369.5 250t-136.5 460zM371 722q0 -236 123 -385.5 t320 -149.5q198 0 324 152t126 391q0 227 -125 371.5t-318 144.5q-195 0 -322.5 -147.5t-127.5 -376.5z" />
<glyph unicode="R" horiz-adv-x="1335" d="M184 0v1419q193 32 397 32q282 0 438.5 -108.5t156.5 -310.5q0 -142 -78 -250.5t-215 -166.5q72 -87 107 -144l289 -471h-328l-303 562q-38 -2 -57 -2q-70 0 -128 7v-567h-279zM449 769q60 -11 134 -11q156 0 242 67.5t86 184.5q0 111 -77 168t-227 57q-45 0 -84.5 -2.5 t-56.5 -5.5l-17 -3v-455z" />
<glyph unicode="S" horiz-adv-x="1150" d="M130 295q204 -105 382 -105q99 0 162 52.5t66 135.5v11q0 61 -30 103q-33 46 -117 89l-187 98q-128 67 -187.5 150.5t-59.5 195.5q0 197 138.5 318.5t366.5 121.5q82 0 164.5 -14.5t124.5 -29.5l42 -15q0 -34 -5 -71.5t-14 -85t-13 -71.5q-13 7 -37 18t-96 29.5 t-141 18.5q-97 0 -157 -51t-60 -130q0 -105 125 -169l178 -93q155 -80 219 -177q60 -91 60 -229v-17q-5 -184 -142 -296.5t-358 -112.5q-232 0 -388 66q-2 13 -20 111q-17 93 -16 143v6z" />
<glyph unicode="T" horiz-adv-x="1261" d="M26 1212v222h1209v-222h-465v-1212h-279v1212h-465z" />
<glyph unicode="U" horiz-adv-x="1558" d="M170 587v847h279v-847q0 -189 89 -294.5t249 -105.5t249 105.5t89 294.5v847h264v-847q0 -298 -156 -459.5t-446 -161.5q-297 0 -457 161.5t-160 459.5z" />
<glyph unicode="V" horiz-adv-x="1427" d="M20 1434h314l293 -748q49 -130 102 -328l386 1076h292l-567 -1434h-252z" />
<glyph unicode="W" horiz-adv-x="2162" d="M20 1434h297l247 -801q25 -83 59 -255l337 1056h265l316 -1053q31 155 59 251l246 801h297l-441 -1433h-266l-345 1023l-364 -1023h-266z" />
<glyph unicode="X" horiz-adv-x="1390" d="M30 0l481 734l-474 700h336l140 -211q112 -168 174 -312l351 523h302l-479 -698l496 -736h-336l-126 189q-144 219 -209 376l-355 -565h-301z" />
<glyph unicode="Y" horiz-adv-x="1329" d="M11 1434h321l242 -426q59 -104 107 -239l338 665h289l-502 -893v-541h-279v540z" />
<glyph unicode="Z" d="M92 143l618 940q43 63 94 129h-673q2 19 8 68t9.5 86.5t3.5 67.5h999q0 -25 4 -53t10.5 -62.5t9.5 -53.5l-587 -897q-43 -66 -110 -147h675q0 -31 -4 -66t-13 -88.5t-11 -66.5h-1018q-2 16 -6 45t-6.5 53t-2.5 45z" />
<glyph unicode="[" horiz-adv-x="829" d="M184 -307v1741h558q0 -35 12.5 -101.5t13.5 -77.5h-316v-1383h292q1 -9 13 -76.5t12 -102.5h-585z" />
<glyph unicode="\" horiz-adv-x="792" d="M-34 1536h215l577 -1782h-214z" />
<glyph unicode="]" horiz-adv-x="870" d="M102 1434h585v-1741h-558q0 35 -12.5 101.5t-13.5 77.5h316v1382h-292q-1 9 -13 77t-12 103z" />
<glyph unicode="^" d="M149 796l373 638h224l373 -638h-247l-238 438l-239 -438h-246z" />
<glyph unicode="_" horiz-adv-x="1024" d="M0 -41h1024v-179h-1024v179z" />
<glyph unicode="`" horiz-adv-x="559" d="M47 1527q30 4 82.5 14t96.5 16.5t83 6.5l202 -341h-200z" />
<glyph unicode="a" horiz-adv-x="1095" d="M74 271q0 160 134.5 254.5t361.5 94.5h120v8q0 118 -56 170q-58 54 -166 54q-72 0 -146 -25t-112 -49l-38 -25q-3 22 -10.5 61.5t-12.5 72.5t-5 62q6 4 17.5 10.5t50 22.5t80 28.5t105 23t128.5 10.5q214 0 322 -102q102 -97 102 -283v-21l-11 -396v-7q0 -83 73 -83 q19 0 33.5 6t19.5 12l6 5q0 -30 -4 -58t-10.5 -59t-9.5 -49q-42 -29 -122 -29t-135.5 39t-73.5 115q-54 -72 -132.5 -113t-176.5 -41q-149 0 -240.5 80t-91.5 211zM327 304q0 -59 40 -95.5t106 -36.5q101 0 155.5 73t57.5 175v42h-121q-112 0 -175 -41.5t-63 -116.5z" />
<glyph unicode="b" horiz-adv-x="1187" d="M146 16v1498q39 0 83.5 6.5t97.5 16.5t83 14v-684q111 150 298 150q180 0 294 -136t114 -368q0 -251 -143 -405.5t-381 -154.5q-119 0 -261.5 31.5t-184.5 31.5zM410 170q85 -25 152 -25q130 0 203 100t73 255q0 150 -57.5 230.5t-150.5 80.5q-94 0 -156.5 -83 t-63.5 -207v-351z" />
<glyph unicode="c" horiz-adv-x="1001" d="M75 505q3 243 151.5 391t389.5 148q73 0 137 -10t105 -26t60 -25.5t31 -17.5q0 -29 -5 -61.5t-13.5 -72.5t-11.5 -61q-3 3 -10 8.5t-30 20t-50 25t-71 19.5t-91 9q-142 0 -227 -92q-87 -94 -87 -248q0 -148 88 -242q89 -94 232 -94q21 0 42.5 2.5t40 6.5t38 10t34 11.5 t31 13t27 13.5t23 13.5t18 11t13.5 8.5l8 6q0 -33 -5.5 -69t-15 -82.5t-13.5 -67.5q-18 -11 -48.5 -24.5t-102.5 -31t-146 -17.5q-253 0 -399 144q-143 141 -143 371v10z" />
<glyph unicode="d" horiz-adv-x="1196" d="M71 484q0 251 143 405.5t381 154.5q93 0 181 -15v485q39 0 83.5 6.5t97.5 16.5t83 14v-1150q0 -90 8 -190.5t16 -155.5l7 -55h-238q-20 61 -37 157q-112 -177 -316 -177q-180 0 -294.5 136t-114.5 368zM350 497q0 -150 57.5 -230.5t150.5 -80.5q94 0 156 83t62 207v352 q-80 24 -151 24q-129 0 -202 -99.5t-73 -255.5z" />
<glyph unicode="e" horiz-adv-x="1064" d="M71 515q3 233 149 381t363 148q101 0 183 -29.5t134 -82t80 -120.5q26 -63 26 -137v-11q-2 -80 -32 -160l-641 -48q12 -136 89 -210.5t221 -74.5q54 0 108 12.5t92.5 31t70 36.5t46.5 31l16 12q0 -32 -5.5 -67.5t-14.5 -79t-13 -67.5q-10 -7 -18.5 -13t-44.5 -24t-72 -30 t-93.5 -22.5t-117.5 -10.5q-249 0 -389 143q-137 140 -137 382v10zM341 617l424 33q3 22 3 42q0 66 -38 111q-50 58 -146 58q-94 0 -158 -63.5t-85 -180.5z" />
<glyph unicode="f" horiz-adv-x="747" d="M39 845q3 19 10.5 56t11.5 66.5t4 56.5h143v147q0 85 20.5 151t53 105.5t78 64.5t91 34.5t97.5 9.5q48 0 88 -4.5t56 -9.5l16 -4q3 -22 10.5 -61t12.5 -71.5t5 -60.5q-44 18 -107 18q-157 0 -157 -201v-118h256q0 -35 -12.5 -101.5t-13.5 -77.5h-230v-845h-264v845h-169z " />
<glyph unicode="g" horiz-adv-x="1107" d="M61 -170q0 140 161 232q-112 62 -112 167q0 50 26 93.5t54 66.5t62 41q-128 98 -128 257q0 160 122.5 258.5t319.5 98.5q100 0 179 -27q16 5 31 13.5t31.5 24t27 41.5t11.5 59q21 3 64.5 11t79 13t64.5 5q0 -58 -17.5 -103t-46.5 -71.5t-55.5 -41.5t-56.5 -23 q114 -97 114 -247q0 -159 -122.5 -258t-318.5 -99q-96 0 -177 26q-38 -23 -38 -59q0 -66 167 -78l280 -21q257 -20 257 -245q0 -179 -155 -291t-396 -112q-198 0 -313 74t-115 195zM274 -122q0 -60 62 -94t175 -34q122 0 206.5 47t84.5 116q0 71 -93 78l-311 23l-28 3 q-96 -61 -96 -139zM371 693q0 -84 51.5 -135t135.5 -51q85 0 136.5 51t51.5 135t-51.5 135t-136.5 51q-84 0 -135.5 -51t-51.5 -135z" />
<glyph unicode="h" horiz-adv-x="1218" d="M146 0v1514q39 0 83.5 6.5t97.5 16.5t83 14v-712q61 97 153 151t200 54q153 0 233.5 -91.5t80.5 -256.5v-696h-264v620q0 96 -40.5 146.5t-117.5 50.5q-105 0 -175 -101t-70 -256v-460h-264z" />
<glyph unicode="i" horiz-adv-x="557" d="M129 1384q0 61 43.5 104.5t105.5 43.5t105.5 -43.5t43.5 -104.5q0 -62 -43.5 -105.5t-105.5 -43.5t-105.5 43.5t-43.5 105.5zM146 0v1002q39 0 83.5 6.5t97.5 16.5t83 14v-1039h-264z" />
<glyph unicode="j" horiz-adv-x="557" d="M-50 -231q40 -15 88 -15q108 0 108 138v1110q39 0 83.5 6.5t97.5 16.5t83 14v-1145q0 -159 -79.5 -246t-213.5 -87q-39 0 -73.5 5t-49.5 10l-16 5q-3 20 -10.5 58t-12.5 70t-5 60zM131 1384q0 62 43.5 105.5t105.5 43.5t105.5 -43.5t43.5 -105.5t-43.5 -105.5 t-105.5 -43.5t-105.5 43.5t-43.5 105.5z" />
<glyph unicode="k" horiz-adv-x="1136" d="M146 0v1514q39 0 83.5 6.5t97.5 16.5t83 14v-973l393 446q46 0 95.5 2t114 6t95.5 6l-431 -490l456 -548q-15 -1 -133.5 -7t-179.5 -6l-410 505v-492h-264z" />
<glyph unicode="l" horiz-adv-x="557" d="M146 0v1515q39 0 83.5 6.5t97.5 16.5t83 14v-1552h-264z" />
<glyph unicode="m" horiz-adv-x="1869" d="M125 1002q26 0 58.5 3.5t53 7t61 11t54.5 9.5q37 -99 56 -244q59 120 156 187.5t208 67.5q122 0 197 -64.5t97 -182.5q60 116 155.5 181.5t204.5 65.5q146 0 224.5 -92t78.5 -256v-696h-264v620q0 96 -39 146.5t-114 50.5q-102 0 -169.5 -101t-67.5 -256v-460h-264v620 q0 96 -39 146.5t-114 50.5q-102 0 -170 -101t-68 -256v-460h-264v601q0 90 -8 190.5t-16 155.5z" />
<glyph unicode="n" horiz-adv-x="1228" d="M125 1002q26 0 59 3.5t52.5 6.5t62 11t53.5 10q36 -98 55 -241q59 119 158.5 185.5t213.5 66.5q149 0 228.5 -92t79.5 -256v-696h-264v620q0 96 -41 146.5t-118 50.5q-105 0 -174.5 -101t-69.5 -256v-460h-265v601q0 90 -7.5 190.5t-15.5 155.5z" />
<glyph unicode="o" horiz-adv-x="1189" d="M71 497q0 243 150 395t389 152q228 0 368 -142t140 -373q0 -243 -150 -396t-388 -153q-228 0 -368.5 143.5t-140.5 373.5zM349 510q0 -150 68.5 -244t175.5 -94q109 0 178 96t69 248q0 149 -67.5 242.5t-174.5 93.5q-110 0 -179.5 -95t-69.5 -247z" />
<glyph unicode="p" horiz-adv-x="1191" d="M125 1002q21 0 43 1.5t48.5 5.5t43 6.5t48.5 8.5t43 8q23 -67 42 -170q52 84 133 133t186 49q180 0 294.5 -136t114.5 -368q0 -251 -143 -405.5t-381 -154.5q-93 0 -181 15v-405q-39 0 -83.5 -6.5t-97.5 -16.5t-83 -14v1048q0 90 -7 190.5t-13 155.5zM417 196 q80 -24 150 -24q129 0 202 99.5t73 255.5q0 151 -57 231t-150 80q-94 0 -156 -83t-62 -206v-353z" />
<glyph unicode="q" horiz-adv-x="1185" d="M71 484q0 251 143 405.5t381 154.5q91 0 179 -15.5t156 -31.5t110 -16v-1391q-39 0 -83.5 -6.5t-97.5 -16.5t-83 -14v575q-111 -148 -296 -148q-180 0 -294.5 136t-114.5 368zM350 497q0 -150 57.5 -230.5t150.5 -80.5q94 0 156 83t62 207v352q-80 24 -151 24 q-129 0 -202 -99.5t-73 -255.5z" />
<glyph unicode="r" horiz-adv-x="806" d="M125 1002q26 0 58.5 3.5t53 7t61 11t54.5 9.5q43 -117 61 -282q94 293 361 293q0 -40 -6 -82t-16.5 -93.5t-14.5 -81.5q-28 6 -54 6q-101 0 -173 -83q-90 -104 -90 -299v-411h-264v601q0 90 -8 190.5t-16 155.5z" />
<glyph unicode="s" horiz-adv-x="858" d="M89 250q5 -3 14.5 -8.5t40 -19.5t63 -24.5t80 -19t93.5 -8.5q69 0 107 32t38 84q0 37 -19.5 59.5t-61.5 42.5l-166 82q-93 46 -132.5 111t-39.5 157q0 137 102.5 221.5t276.5 84.5q144 0 266 -43q-1 -35 -13 -103.5t-13 -78.5q-10 5 -28.5 12.5t-74.5 20t-111 12.5 q-71 0 -110 -28.5t-39 -82.5q0 -34 20.5 -59t69.5 -48l124 -60q114 -55 164.5 -119t50.5 -169q0 -147 -103.5 -232.5t-280.5 -85.5q-166 0 -288 48q-3 23 -13 69q-10 45 -15 83q-3 23 -3 45q0 13 1 25z" />
<glyph unicode="t" horiz-adv-x="759" d="M32 845q1 7 13 75t12 104q39 -3 68 -3q54 0 81 22q27 21 37 81q6 35 6 90q0 38 -3 85q36 0 120 15t93 16v-306h272q0 -27 -3.5 -54t-11.5 -70.5t-10 -54.5h-246v-512q0 -89 35 -125t108 -36q30 0 60.5 9t45.5 19l15 9q0 -29 -5 -62.5t-12.5 -73.5t-10.5 -62 q-86 -31 -168 -31q-156 0 -244 80t-88 245v540h-164z" />
<glyph unicode="u" horiz-adv-x="1228" d="M141 328v673q52 0 152.5 18.5t111.5 19.5v-635q0 -96 41 -146.5t118 -50.5q105 0 174.5 101t69.5 256v460h264v-623q0 -90 8 -190.5t16 -155.5l7 -55h-237q-28 83 -45 206q-61 -107 -156.5 -166.5t-209.5 -59.5q-153 0 -233.5 91.5t-80.5 256.5z" />
<glyph unicode="v" horiz-adv-x="1091" d="M22 1001q40 0 84.5 6t100 17t84.5 15l271 -723l264 708h254l-414 -1024h-240z" />
<glyph unicode="w" horiz-adv-x="1732" d="M57 1000q54 0 157 18t115 20l190 -690l236 676h223l236 -675l185 675h285l-334 -1024h-229l-255 653l-254 -653h-229z" />
<glyph unicode="x" horiz-adv-x="1075" d="M24 0l355 508l-345 497q42 0 89 6t103.5 15t88.5 13l234 -369l208 354h294l-360 -499l374 -525h-322l-213 350l-220 -350h-286z" />
<glyph unicode="y" horiz-adv-x="1093" d="M22 1001q41 0 86 6t100.5 17t85.5 15l263 -739l268 724h250l-573 -1431q-40 0 -85 -5.5t-99.5 -14t-85.5 -11.5l220 450h-33z" />
<glyph unicode="z" horiz-adv-x="933" d="M64 129l472 702h-444q3 21 10.5 60.5t12 72t4.5 60.5h739q0 -19 3 -40.5t8 -49t7 -40.5l-476 -702h460q0 -29 -4 -60t-12 -72.5t-11 -59.5h-751q-2 14 -7 40.5t-8 48t-3 40.5z" />
<glyph unicode="{" horiz-adv-x="831" d="M98 654q48 0 78 8.5t52.5 31t31 64.5t7 105t-13.5 156q-17 102 -1 182.5t65.5 136.5t154 86t263.5 30v-179q-147 0 -204.5 -78.5t-24.5 -246.5q10 -64 12 -114t-11 -90t-30.5 -69t-46.5 -51t-59.5 -36.5t-69.5 -25.5q48 -14 84 -33.5t67 -50.5t45.5 -72t19.5 -99.5 t-11 -131.5q-33 -167 24.5 -245t204.5 -78v-180q-159 0 -263 29.5t-154 85.5t-66 136.5t1 182.5q12 112 14.5 181t-16 108.5t-47.5 54.5t-80 18q-3 19 -10.5 57.5t-11.5 69t-4 57.5z" />
<glyph unicode="|" horiz-adv-x="628" d="M184 -410v1946h261v-1946h-261z" />
<glyph unicode="}" horiz-adv-x="831" d="M96 -146q148 0 205.5 78t24.5 245q-16 73 -11 131.5t19 99.5t45.5 72t67 50.5t83.5 33.5q-39 11 -69.5 25.5t-59 36.5t-47 51.5t-29.5 68t-11 90.5t12 114q33 167 -25 246t-205 79v179q159 0 263.5 -30t154.5 -86t66 -136.5t-1 -182.5q-12 -93 -13.5 -156t7 -105 t31 -64.5t52.5 -31t78 -8.5q0 -27 -4.5 -58t-12 -68.5t-10.5 -57.5q-41 -3 -67 -12.5t-45 -32.5t-25.5 -64t-4.5 -102t14 -151q17 -102 1 -182.5t-66 -136.5t-154.5 -85.5t-263.5 -29.5v180z" />
<glyph unicode="~" d="M116 773q123 111 263 111q53 0 124 -21t129.5 -46.5t130 -46.5t126.5 -21q57 0 114.5 27.5t86.5 55.5l30 27q3 -21 10.5 -59.5t12.5 -70.5t5 -61q-127 -111 -263 -111q-53 0 -124 21t-130 46.5t-130.5 46.5t-126.5 21q-36 0 -72.5 -11t-63.5 -27t-49 -32.5t-33 -27.5 l-12 -11q-1 7 -14.5 79t-13.5 111z" />
<glyph unicode="&#xa1;" horiz-adv-x="587" d="M146 912q0 63 43 105t106 42t105.5 -42t42.5 -105q0 -62 -43 -104t-105 -42q-63 0 -106 42t-43 104zM154 -410l37 997q31 0 65 4.5t76.5 13t64.5 11.5l36 -1026h-279z" />
<glyph unicode="&#xa2;" horiz-adv-x="1005" d="M75 674q3 234 141 381t365 158v147h131v-151q152 -16 237 -75q0 -29 -5 -61.5t-13.5 -72t-11.5 -60.5q-8 8 -23 19t-68.5 33t-115.5 27v-170h-131v162q-106 -26 -166.5 -112.5t-61.5 -213.5q-1 -124 61 -212t167 -116v154h131v-163q110 11 236 93q0 -33 -5.5 -69 t-15 -82.5t-13.5 -67.5q-81 -49 -202 -66v-156h-131v150q-238 10 -373.5 152.5t-132.5 371.5z" />
<glyph unicode="&#xa3;" horiz-adv-x="1091" d="M124 137q10 7 26.5 20.5t59 54.5t75 82t59 98.5t26.5 108.5q0 29 -6 54h-233q2 16 8 46t9.5 54.5t3.5 46.5h138q-31 46 -47.5 76t-33 87.5t-16.5 121.5q0 175 124.5 294.5t324.5 119.5q81 0 163 -13.5t124 -27.5l42 -13q0 -32 -5.5 -68t-14 -79t-11.5 -68q-13 7 -37 17.5 t-95 28t-140 17.5q-99 0 -154.5 -57t-55.5 -144q0 -51 20 -97.5t59 -106t54 -88.5h332q0 -22 -3.5 -46.5t-9.5 -54.5t-8 -46h-270v-11q0 -176 -181 -329l-5 -5h561q0 -31 -4.5 -66t-12 -78t-10.5 -66h-837q-1 6 -10 58t-9 79z" />
<glyph unicode="&#xa4;" horiz-adv-x="1361" d="M95 259l178 177q-81 119 -80.5 265.5t81.5 265.5l-179 178l138 137l176 -177q125 86 275 85.5t270 -85.5l176 177l137 -137l-178 -178q81 -118 81 -265.5t-81 -265.5l178 -177l-137 -138l-176 177q-126 -86 -275.5 -85t-269.5 85l-176 -177zM450 795q-39 -107 1.5 -210 t136.5 -142q95 -39 190 9.5t134 155.5t-1.5 210t-136.5 142q-95 39 -190 -9.5t-134 -155.5z" />
<glyph unicode="&#xa5;" horiz-adv-x="1277" d="M20 1367h304l247 -427q57 -95 88 -204l326 631h274l-434 -761h214q0 -22 -3 -46t-9 -55t-8 -46h-245v-81h265q0 -22 -3 -46.5t-9 -55.5t-8 -46h-245v-230h-265v230h-261q2 15 8 46t9 55.5t3 46.5h241v81h-261q2 15 8 46t9 55t3 46h190z" />
<glyph unicode="&#xa6;" horiz-adv-x="628" d="M184 399h261v-809h-261v809zM184 727v809h261v-809h-261z" />
<glyph unicode="&#xa7;" horiz-adv-x="1038" d="M82 -140q1 0 28.5 -11.5t47.5 -19.5t58.5 -20.5t72.5 -20.5t77.5 -14t83.5 -6q103 0 164.5 45.5t61.5 115.5q0 58 -33.5 97t-117.5 75l-185 88q-126 60 -184 134.5t-58 178.5q0 101 60.5 179.5t169.5 120.5q-120 54 -176.5 125.5t-56.5 174.5q0 165 129 269t341 104 q78 0 157.5 -12.5t119.5 -25.5l40 -13q0 -31 -4.5 -64t-12.5 -75.5t-11 -63.5q-13 6 -35.5 15.5t-91.5 25t-136 15.5q-97 0 -157 -42.5t-60 -109.5q0 -47 30.5 -82t99.5 -66l203 -98q130 -59 188 -133t58 -187q0 -104 -60.5 -183t-169.5 -124q118 -56 175.5 -130.5 t57.5 -191.5q0 -162 -128.5 -261t-337.5 -99q-213 0 -376 60q-4 25 -13 72.5t-14 85.5t-5 72zM316 536q0 -56 36.5 -96.5t129.5 -80.5l5 -2q121 4 183.5 49t63.5 110q1 60 -37.5 103.5t-132.5 83.5q-109 1 -178.5 -46t-69.5 -121z" />
<glyph unicode="&#xa8;" horiz-adv-x="731" d="M46 1381q0 57 38 94.5t91 37.5t91 -37.5t38 -94.5q0 -54 -38 -90.5t-91 -36.5t-91 36t-38 91zM426 1381q0 56 39 94t90 38t90.5 -38t39.5 -94q0 -54 -39.5 -90.5t-90.5 -36.5t-90 36.5t-39 90.5z" />
<glyph unicode="&#xa9;" horiz-adv-x="1699" d="M92 718q0 206 101.5 380.5t276 276t380.5 101.5t380.5 -101.5t276 -276t101.5 -380.5q0 -154 -60 -294.5t-161.5 -241.5t-242 -161t-294.5 -60t-294.5 60t-242 161t-161.5 241.5t-60 294.5zM259 718q0 -124 47.5 -237t127 -194t188.5 -128.5t228 -47.5t228 47.5 t188.5 128.5t127 194t47.5 237t-47.5 237t-127 194t-188.5 128.5t-228 47.5t-228 -47.5t-188.5 -128.5t-127 -194t-47.5 -237zM467 709q0 168 116.5 282t283.5 114q121 0 231 -44q0 -18 -2.5 -37.5t-7.5 -45t-7 -37.5q-93 44 -189 44q-121 0 -197 -76.5t-76 -192.5 q0 -120 74.5 -192.5t199.5 -72.5q21 0 41.5 2t37.5 5.5t33 8.5t28 10t23 10t18.5 10t13 8.5t8.5 5.5l3 2q0 -20 -2.5 -42t-7.5 -50.5t-7 -42.5l-3 -2q-3 -1 -9 -4t-14 -6.5t-19 -7.5t-24 -7.5t-29.5 -7t-33.5 -6.5t-38 -4.5t-43 -1.5q-180 0 -291 105t-111 273z" />
<glyph unicode="&#xaa;" horiz-adv-x="690" d="M52 680q0 100 76.5 150.5t199.5 50.5h82q1 73 -31.5 102t-94.5 29q-42 0 -85.5 -14.5t-66.5 -29.5l-22 -14q-2 15 -7 41.5t-8 48.5t-3 42q10 6 29 15.5t79.5 25.5t123.5 16q133 0 198.5 -62.5t61.5 -187.5l-6 -219q-1 -53 42 -53q11 0 19 3.5t11 6.5l3 3q0 -27 -8 -67.5 t-8 -44.5q-27 -18 -78 -18q-102 0 -130 89q-68 -89 -180 -89q-88 0 -142.5 48.5t-54.5 127.5zM213 714q0 -36 23 -57.5t63 -21.5q50 0 77.5 37t29.5 89l2 41h-70q-59 0 -92 -23t-33 -65z" />
<glyph unicode="&#xab;" horiz-adv-x="1126" d="M65 512l283 369h222l-239 -369l239 -369h-222zM557 512l284 369h221l-239 -369l239 -369h-221z" />
<glyph unicode="&#xac;" horiz-adv-x="1275" d="M108 621v192h1060v-553h-196v361h-864z" />
<glyph unicode="&#xad;" horiz-adv-x="741" d="M61 423v178h618v-178h-618z" />
<glyph unicode="&#xae;" horiz-adv-x="1699" d="M92 718q0 154 60 294.5t161.5 242t242 161.5t294.5 60q206 0 380.5 -101.5t276 -276t101.5 -380.5q0 -154 -60 -294.5t-161.5 -241.5t-242 -161t-294.5 -60t-294.5 60t-242 161t-161.5 241.5t-60 294.5zM259 718q0 -124 47.5 -237t127 -194t188.5 -128.5t228 -47.5 t228 47.5t188.5 128.5t127 194t47.5 237t-47.5 237t-127 194t-188.5 128.5t-228 47.5t-228 -47.5t-188.5 -128.5t-127 -194t-47.5 -237zM591 341v747q112 17 217 17q151 0 236.5 -64t85.5 -180q0 -77 -39 -134.5t-111 -88.5q45 -43 80 -101l123 -196l-172 -8l-171 275h-25 q-36 0 -72 4v-271h-152zM727 719q41 -9 83 -9q83 0 129.5 40t46.5 108q0 61 -43.5 95t-121.5 34l-94 -5v-263z" />
<glyph unicode="&#xaf;" horiz-adv-x="714" d="M41 1287v176h632q0 -35 -12 -102t-13 -74h-607z" />
<glyph unicode="&#xb0;" horiz-adv-x="788" d="M99 1156q0 122 86.5 210t207.5 88q122 0 210 -88t88 -210q0 -121 -88 -207.5t-210 -86.5q-121 0 -207.5 86.5t-86.5 207.5zM266 1157q0 -53 37.5 -91.5t89.5 -38.5q53 0 92 38.5t39 91.5q0 55 -39 94t-92 39q-52 0 -89.5 -39t-37.5 -94z" />
<glyph unicode="&#xb1;" d="M108 0v193h1051v-193h-1051zM108 758v193h429v430h195v-430h427v-193h-427v-430h-195v430h-429z" />
<glyph unicode="&#xb2;" horiz-adv-x="768" d="M102 1114q14 10 49.5 40t91.5 84t105 109t84.5 116.5t35.5 105.5q0 100 -118 100q-46 0 -97 -23t-79 -46l-27 -23q-2 15 -8 47t-9.5 57.5t-3.5 46.5q126 84 264 84q127 0 200.5 -60.5t73.5 -166.5q0 -70 -33 -140.5t-74 -118.5t-99 -96t-85.5 -66.5t-55.5 -35.5 q-2 -1 -3 -2t-2 -1h348q0 -20 -3 -44t-8.5 -54.5t-7.5 -43.5h-521q-2 15 -7.5 42t-8 47.5t-2.5 41.5z" />
<glyph unicode="&#xb3;" horiz-adv-x="768" d="M101 1167q47 -24 71 -32q67 -22 137 -22q67 0 108.5 31.5t41.5 82.5q0 46 -41 74.5t-110 28.5l-71 -5q-2 12 -7 43t-8 54.5t-3 42.5q25 -5 77 -5q78 0 120.5 30t42.5 82q0 45 -35 71t-102 26q-49 0 -96 -14.5t-70 -28.5l-23 -15q-2 13 -8 44t-9 54t-3 44q13 8 34.5 18 t84 25t130.5 15q128 0 206.5 -62t78.5 -163q0 -55 -32 -106t-93 -81q67 -26 103.5 -75t36.5 -113q0 -111 -88 -175.5t-237 -64.5q-31 0 -61 3t-51.5 7t-41 9.5t-30.5 10t-21 8.5l-9 4q-1 5 -11.5 64.5t-10.5 89.5z" />
<glyph unicode="&#xb4;" horiz-adv-x="589" d="M48 1223l181 311q35 3 99 10.5t116.5 12t98.5 4.5l-295 -338h-200z" />
<glyph unicode="&#xb5;" horiz-adv-x="1261" d="M140 -410v1183h9v228q52 0 153.5 18.5t111.5 19.5v-635q0 -96 40.5 -146.5t117.5 -50.5q105 0 174.5 101t69.5 256v460h265v-623q0 -90 7.5 -190.5t15.5 -155.5l7 -55h-236q-29 83 -46 206q-61 -107 -156 -166.5t-209 -59.5q-35 0 -62 4v-394h-262z" />
<glyph unicode="&#xb6;" horiz-adv-x="1247" d="M72 955q0 130 64 240.5t174 174.5t240 64h551v-1598h-181v1377h-188v-1377h-182v641q-198 0 -338 140t-140 338z" />
<glyph unicode="&#xb7;" horiz-adv-x="491" d="M98 763q0 62 42.5 103.5t105.5 41.5t106 -41.5t43 -103.5q0 -63 -43 -105t-106 -42t-105.5 42t-42.5 105z" />
<glyph unicode="&#xb8;" horiz-adv-x="450" d="M55 -258q10 -14 38 -24t59 -10q89 0 89 68q0 30 -24 50.5t-70 20.5q-34 0 -52 -9l78 195l116 -33l-34 -91q76 -8 119 -51.5t43 -113.5q0 -79 -60 -131.5t-155 -52.5q-66 0 -126 30q-2 18 -8 48.5t-9.5 56t-3.5 47.5z" />
<glyph unicode="&#xb9;" horiz-adv-x="768" d="M192 1661q110 34 243 142l113 -8v-812h-194v593q-88 -51 -141 -67q-2 15 -8 46t-9.5 56t-3.5 50z" />
<glyph unicode="&#xba;" horiz-adv-x="735" d="M50 813q0 147 90.5 238.5t236.5 91.5q138 0 223 -85t85 -224q0 -147 -90.5 -238.5t-236.5 -91.5q-138 0 -223 85.5t-85 223.5zM231 822q0 -84 38 -135.5t98 -51.5q61 0 99 52t38 137q0 83 -38 135.5t-98 52.5q-61 0 -99 -52.5t-38 -137.5z" />
<glyph unicode="&#xbb;" horiz-adv-x="1126" d="M65 143l239 369l-239 369h221l284 -369l-284 -369h-221zM557 143l239 369l-239 369h221l284 -369l-284 -369h-221z" />
<glyph unicode="&#xbc;" horiz-adv-x="1708" d="M192 1219q110 34 243 142l113 -9v-811h-194v593q-88 -51 -141 -67q-2 15 -8 46t-9.5 56t-3.5 50zM445 -71l764 1577l151 -75l-764 -1577zM1005 310l251 506h205l-252 -481h178l32 280l129 10v-281h118q0 -21 -3 -44.5t-9 -53t-8 -44.5h-87v-202h-183v202h-355 q-1 5 -8.5 46t-7.5 62z" />
<glyph unicode="&#xbd;" horiz-adv-x="1804" d="M192 1219q110 34 243 142l113 -9v-811h-194v593q-88 -51 -141 -67q-2 15 -8 46t-9.5 56t-3.5 50zM445 -71l764 1577l151 -75l-764 -1577zM1137 131q14 10 49.5 40t91.5 84t105 109t84.5 116.5t35.5 105.5q0 100 -118 100q-46 0 -97 -23t-78 -46l-28 -23q-2 15 -8 47 t-9.5 57.5t-3.5 46.5q126 84 263 84q127 0 201 -60.5t74 -166.5q0 -70 -33 -140.5t-74 -118.5t-99 -96t-85.5 -66.5t-55.5 -35.5q-4 -2 -5 -3h348q0 -20 -3 -44t-8.5 -54.5t-7.5 -43.5h-521q-2 15 -7.5 42t-8 47.5t-2.5 41.5z" />
<glyph unicode="&#xbe;" horiz-adv-x="1708" d="M101 725q47 -24 71 -32q68 -22 137 -22q67 0 108.5 31.5t41.5 82.5q0 46 -40.5 74t-110.5 28l-71 -5q-2 12 -7 43t-8 55t-3 43q25 -5 77 -5q78 0 120.5 30t42.5 82q0 45 -35 71t-102 26q-49 0 -96 -14.5t-70 -29.5l-23 -15q-2 13 -8 44t-9 54.5t-3 44.5q13 8 34.5 18 t84 25t130.5 15q128 0 206.5 -62t78.5 -163q0 -55 -32 -106t-93 -81q66 -26 103 -75.5t37 -113.5q0 -111 -88 -175.5t-237 -64.5q-31 0 -61 3t-51.5 7t-41 9.5t-30.5 10t-21 8.5l-9 4q-1 4 -11.5 64.5t-10.5 90.5zM445 -71l764 1577l151 -75l-764 -1576zM1005 310l251 506 h205l-252 -481h178l32 280l130 10v-281h117q0 -21 -3 -44.5t-9 -53t-8 -44.5h-87v-202h-183v202h-355q-1 5 -8.5 46t-7.5 62z" />
<glyph unicode="&#xbf;" horiz-adv-x="1007" d="M135 -117q0 107 59.5 174t187.5 115l150 55q65 24 92.5 51t27.5 65q0 52 -45 83t-119 31q-43 0 -81 -10t-55 -20l-16 -10q-3 18 -9.5 50.5t-10 59t-3.5 50.5q9 5 26 12.5t73.5 20t117.5 12.5q170 0 273.5 -83.5t103.5 -223.5q0 -85 -47.5 -146t-148.5 -102l-200 -82 q-56 -22 -83.5 -49t-27.5 -65q0 -48 50.5 -76.5t139.5 -28.5q73 0 143.5 19t104.5 38l34 19q3 -22 11 -63t12 -73t4 -63q-17 -9 -47.5 -22t-118.5 -34.5t-169 -21.5q-196 0 -312.5 86t-116.5 232zM406 916q0 63 43 105t106 42t105.5 -42t42.5 -105q0 -62 -43 -104t-105 -42 q-63 0 -106 42t-43 104z" />
<glyph unicode="&#xc0;" horiz-adv-x="1441" d="M20 0l567 1434q159 0 264 15l572 -1449h-300l-123 324h-573l-124 -324h-283zM362 1903q30 4 82.5 14t96.5 16.5t83 6.5l203 -341h-201zM487 527h452l-225 621z" />
<glyph unicode="&#xc1;" horiz-adv-x="1441" d="M20 0l567 1434q159 0 264 15l572 -1449h-300l-123 324h-573l-124 -324h-283zM487 527h452l-225 621zM620 1599l181 311q35 3 99 10.5t116.5 12t98.5 4.5l-295 -338h-200z" />
<glyph unicode="&#xc2;" horiz-adv-x="1441" d="M20 0l567 1434q159 0 264 15l572 -1449h-300l-123 324h-573l-124 -324h-283zM367 1624l271 307h141l283 -321h-195l-159 131l-169 -148q-27 0 -55.5 5.5t-63 14t-53.5 11.5zM487 527h452l-225 621z" />
<glyph unicode="&#xc3;" horiz-adv-x="1441" d="M20 0l567 1434q159 0 264 15l572 -1449h-300l-123 324h-573l-124 -324h-283zM361.5 1666.5q-0.5 11.5 1 39t6.5 49.5t17 49.5t30 46t49 31t70 12.5q63 0 163 -47q80 -38 124 -38q25 0 43.5 8t28 19.5t15.5 23.5t7 20l1 8q18 0 38 -2.5t45.5 -7.5t37.5 -7v-4 q1 -14 1.5 -25.5t-1 -39t-6.5 -49.5t-17 -49.5t-30 -46t-49 -31t-70 -12.5q-66 0 -164 46q-80 38 -123 38q-25 0 -43.5 -8t-28 -19.5t-15.5 -23t-7 -19.5l-1 -8q-12 2 -37.5 7t-45.5 7.5t-38 2.5v4q-1 14 -1.5 25.5zM487 527h452l-225 621z" />
<glyph unicode="&#xc4;" horiz-adv-x="1441" d="M20 0l567 1434q159 0 264 15l572 -1449h-300l-123 324h-573l-124 -324h-283zM389 1757q0 57 38 94.5t92 37.5q53 0 91 -37.5t38 -94.5q0 -54 -38 -90.5t-91 -36.5q-54 0 -92 36t-38 91zM487 527h452l-225 621zM770 1757q0 56 39 94t90 38t90.5 -38t39.5 -94 q0 -54 -39.5 -90.5t-90.5 -36.5t-90 36.5t-39 90.5z" />
<glyph unicode="&#xc5;" horiz-adv-x="1441" d="M20 0l563 1423q-52 32 -83 86.5t-31 118.5q0 99 70 169t169 70t169.5 -70t70.5 -169q0 -118 -93 -190l568 -1438h-300l-123 324h-573l-124 -324h-283zM487 527h452l-225 621zM622 1628q0 -37 25 -63t61 -26t61.5 26t25.5 63t-25.5 62.5t-61.5 25.5t-61 -25.5t-25 -62.5z " />
<glyph unicode="&#xc6;" horiz-adv-x="1716" d="M14 0l693 1434h25h876v-222h-557l71 -378h415q0 -33 -4.5 -69.5t-13 -82.5t-11.5 -70h-337l74 -391h398v-221h-618l-64 311h-499l-146 -311h-302zM536 504h386l-128 627z" />
<glyph unicode="&#xc7;" horiz-adv-x="1382" d="M92 699q0 216 101.5 392.5t276.5 276.5t385 100q83 0 159.5 -10t126.5 -24t88.5 -28t56.5 -24l17 -10q0 -34 -5 -71.5t-14 -85t-13 -71.5q-6 4 -18 11t-50.5 24.5t-79.5 31t-103 24.5t-123 11q-226 0 -376 -151t-150 -382q0 -236 143.5 -381t378.5 -145q74 0 144 14.5 t117 35t83 41t53 34.5l17 15q0 -38 -5 -80.5t-14 -95.5t-13 -81q-6 -4 -16.5 -10t-48 -22.5t-78.5 -30t-106 -25.5t-132 -15l-23 -58q76 -8 119.5 -51.5t43.5 -113.5q0 -79 -60 -131.5t-155 -52.5q-66 0 -126 30q-1 9 -11.5 65.5t-10.5 86.5q10 -14 38 -24t59 -10 q90 0 90 68q0 30 -24 50.5t-70 20.5q-34 0 -52 -9l53 132q-304 26 -488.5 226t-184.5 503z" />
<glyph unicode="&#xc8;" horiz-adv-x="1181" d="M184 0v1434h872v-222h-593v-378h521q0 -31 -4.5 -68t-13 -86t-11.5 -68h-492v-391h627v-221h-906zM265 1903q30 4 82.5 14t96.5 16.5t83 6.5l203 -341h-201z" />
<glyph unicode="&#xc9;" horiz-adv-x="1181" d="M184 0v1434h872v-222h-593v-378h521q0 -31 -4.5 -68t-13 -86t-11.5 -68h-492v-390h627v-222h-906zM523 1599l181 311q35 3 99 10.5t116.5 12t98.5 4.5l-295 -338h-200z" />
<glyph unicode="&#xca;" horiz-adv-x="1181" d="M184 0v1434h872v-222h-593v-378h521q0 -31 -4.5 -68t-13 -86t-11.5 -68h-492v-390h627v-222h-906zM270 1624l271 307h141l283 -321h-195l-159 131l-169 -148q-27 0 -55.5 5.5t-63 14t-53.5 11.5z" />
<glyph unicode="&#xcb;" horiz-adv-x="1181" d="M184 0v1434h872v-222h-593v-378h521q0 -31 -4.5 -68t-13 -86t-11.5 -68h-492v-390h627v-222h-906zM292 1757q0 57 38 94.5t92 37.5q53 0 91 -37.5t38 -94.5q0 -54 -38 -90.5t-91 -36.5q-54 0 -92 36t-38 91zM673 1757q0 56 39 94t90 38t90 -38t39 -94q0 -54 -39 -90.5 t-90 -36.5t-90 36.5t-39 90.5z" />
<glyph unicode="&#xcc;" horiz-adv-x="647" d="M-23 1903q30 4 82.5 14t96 16.5t82.5 6.5l203 -341h-200zM184 0v1434h279v-1434h-279z" />
<glyph unicode="&#xcd;" horiz-adv-x="647" d="M184 0v1434h279v-1434h-279zM234 1599l181 311q35 3 99 10.5t116.5 12t98.5 4.5l-295 -338h-200z" />
<glyph unicode="&#xce;" horiz-adv-x="647" d="M-19 1624l271 307h141l283 -321h-194l-159 131l-170 -148q-27 0 -55.5 5.5t-63 14t-53.5 11.5zM184 0v1434h279v-1434h-279z" />
<glyph unicode="&#xcf;" horiz-adv-x="647" d="M4 1757q0 57 38 94.5t91 37.5t91 -37.5t38 -94.5q0 -54 -38 -90.5t-91 -36.5t-91 36t-38 91zM184 0v1434h279v-1434h-279zM384 1757q0 56 39.5 94t90.5 38t90 -38t39 -94q0 -54 -39 -90.5t-90 -36.5t-90.5 36.5t-39.5 90.5z" />
<glyph unicode="&#xd0;" horiz-adv-x="1562" d="M49 631v176h135v624q221 19 477 19q374 0 585 -182t211 -507q0 -227 -103.5 -404t-294 -275.5t-438.5 -98.5q-86 0 -195.5 4.5t-175.5 9.5l-66 5v629h-135zM463 807h366q0 -35 -12 -102t-13 -74h-340v-413q110 -10 212 -10q233 0 364 143t131 393q0 223 -131 354 t-352 131q-50 0 -106 -2.5t-88 -4.5l-31 -2v-413z" />
<glyph unicode="&#xd1;" horiz-adv-x="1619" d="M184 0v1434q19 2 58.5 6t70.5 6t59 2l792 -987q-8 154 -8 260v713h280v-1434h-196l-787 993q9 -146 9 -205v-788h-278zM430.5 1666.5q-0.5 11.5 1 39t6.5 49.5t17 49.5t30 46t49 31t70 12.5q30 0 62.5 -8.5t48.5 -15.5t51 -23q80 -38 125 -38q25 0 43.5 8t28 19.5 t15.5 23.5t7 20l1 8q18 0 37.5 -2.5t45 -7.5t37.5 -7v-4q2 -17 2 -32t-2 -48.5t-12.5 -60t-28 -54t-51 -43t-79.5 -15.5q-64 0 -164 47q-80 38 -123 38q-25 0 -44 -8t-28 -19.5t-15 -23.5t-7 -20l-2 -8q-12 2 -37.5 7t-45 7.5t-37.5 2.5v4q-1 14 -1.5 25.5z" />
<glyph unicode="&#xd2;" horiz-adv-x="1634" d="M92 701q0 221 96 396.5t266.5 273t385.5 97.5q205 0 365.5 -91.5t248.5 -255.5t88 -373q0 -228 -94 -406t-264 -277t-388 -99q-208 0 -368.5 93t-248 260t-87.5 382zM371 722q0 -236 123 -385.5t320 -149.5q198 0 324 152t126 391q0 227 -125 371.5t-318 144.5 q-195 0 -322.5 -147.5t-127.5 -376.5zM479 1904q30 4 82.5 14t96 16.5t82.5 6.5l203 -342h-200z" />
<glyph unicode="&#xd3;" horiz-adv-x="1634" d="M92 701q0 221 96 396.5t266.5 273t385.5 97.5q205 0 365.5 -91.5t248.5 -255.5t88 -373q0 -228 -94 -406t-264 -277t-388 -99q-208 0 -368.5 93t-248 260t-87.5 382zM371 722q0 -236 123 -385.5t320 -149.5q198 0 324 152t126 391q0 227 -125 371.5t-318 144.5 q-195 0 -322.5 -147.5t-127.5 -376.5zM736 1600l182 310q35 3 99 10.5t116 12t98 4.5l-294 -338z" />
<glyph unicode="&#xd4;" horiz-adv-x="1634" d="M92 701q0 221 96 396.5t266.5 273t385.5 97.5q205 0 365.5 -91.5t248.5 -255.5t88 -373q0 -228 -94 -406t-264 -277t-388 -99q-208 0 -368.5 93t-248 260t-87.5 382zM371 722q0 -236 123 -385.5t320 -149.5q198 0 324 152t126 391q0 227 -125 371.5t-318 144.5 q-195 0 -322.5 -147.5t-127.5 -376.5zM484 1625l271 307h141l283 -322h-195l-159 131l-170 -147q-27 0 -55.5 5.5t-62 14t-53.5 11.5z" />
<glyph unicode="&#xd5;" horiz-adv-x="1634" d="M92 701q0 221 96 396.5t266.5 273t385.5 97.5q205 0 365.5 -91.5t248.5 -255.5t88 -373q0 -228 -94 -406t-264 -277t-388 -99q-208 0 -368.5 93t-248 260t-87.5 382zM371 722q0 -236 123 -385.5t320 -149.5q198 0 324 152t126 391q0 227 -125 371.5t-318 144.5 q-195 0 -322.5 -147.5t-127.5 -376.5zM478.5 1666.5q-0.5 11.5 1 39t6.5 49.5t17 49.5t30 46t49 31t70 12.5q64 0 162 -46q82 -39 125 -39q25 0 43.5 8t28 19.5t15.5 23.5t7 20l1 8q18 0 38 -2.5t45.5 -7.5t37.5 -7v-4q1 -14 1.5 -25.5t-1 -39t-6.5 -49.5t-17 -49.5t-30 -46 t-49 -31t-70 -12.5q-64 0 -164 47q-80 38 -123 38q-25 0 -44 -8t-28 -19.5t-15 -23.5t-7 -20l-2 -8q-12 2 -37.5 7t-45 7.5t-37.5 2.5v4q-1 14 -1.5 25.5z" />
<glyph unicode="&#xd6;" horiz-adv-x="1634" d="M92 701q0 221 96 396.5t266.5 273t385.5 97.5q205 0 365.5 -91.5t248.5 -255.5t88 -373q0 -228 -94 -406t-264 -277t-388 -99q-208 0 -368.5 93t-248 260t-87.5 382zM371 722q0 -236 123 -385.5t320 -149.5q198 0 324 152t126 391q0 227 -125 371.5t-318 144.5 q-195 0 -322.5 -147.5t-127.5 -376.5zM506 1757q0 57 38 94.5t91 37.5t91.5 -37.5t38.5 -94.5q0 -54 -38.5 -90t-91.5 -36q-54 0 -91.5 35.5t-37.5 90.5zM887 1757q0 56 39 94t90 38t90 -38t39 -94q0 -54 -39 -90t-90 -36t-90 36t-39 90z" />
<glyph unicode="&#xd7;" horiz-adv-x="1220" d="M151 1039l138 136l780 -780l-138 -136z" />
<glyph unicode="&#xd8;" horiz-adv-x="1634" d="M92 0l170 198q-170 200 -170 503q0 166 56 309t154.5 243.5t237 157.5t299.5 57q234 0 412 -121l75 87h216l-169 -197q169 -197 169 -489q0 -228 -94 -406t-264 -277t-388 -99q-238 0 -412 121l-75 -87h-217zM371 722q0 -177 74 -312l640 744q-112 92 -264 92 q-195 0 -322.5 -147.5t-127.5 -376.5zM550 280q112 -93 264 -93q198 0 324 152t126 391q0 168 -72 296z" />
<glyph unicode="&#xd9;" horiz-adv-x="1558" d="M170 587v847h279v-847q0 -189 89 -294.5t249 -105.5t249 105.5t89 294.5v847h264v-847q0 -298 -156 -459.5t-446 -161.5q-297 0 -457 161.5t-160 459.5zM440 1903q30 4 82.5 14t96.5 16.5t83 6.5l203 -341h-200z" />
<glyph unicode="&#xda;" horiz-adv-x="1558" d="M170 587v847h279v-847q0 -189 89 -294.5t249 -105.5t249 105.5t89 294.5v847h264v-847q0 -298 -156 -459.5t-446 -161.5q-297 0 -457 161.5t-160 459.5zM698 1599l181 311q35 3 99 10.5t116.5 12t98.5 4.5l-295 -338h-200z" />
<glyph unicode="&#xdb;" horiz-adv-x="1558" d="M170 587v847h279v-847q0 -189 89 -294.5t249 -105.5t249 105.5t89 294.5v847h264v-847q0 -298 -156 -459.5t-446 -161.5q-297 0 -457 161.5t-160 459.5zM445 1624l271 307h141l283 -321h-195l-158 131l-170 -148q-27 0 -55.5 5.5t-63 14t-53.5 11.5z" />
<glyph unicode="&#xdc;" horiz-adv-x="1558" d="M170 587v847h279v-847q0 -189 89 -294.5t249 -105.5t249 105.5t89 294.5v847h264v-847q0 -298 -156 -459.5t-446 -161.5q-297 0 -457 161.5t-160 459.5zM468 1757q0 57 38 94.5t91 37.5t91 -37.5t38 -94.5q0 -54 -38 -90.5t-91 -36.5t-91 36t-38 91zM848 1757q0 56 39 94 t90 38t90.5 -38t39.5 -94q0 -54 -39.5 -90.5t-90.5 -36.5t-90 36.5t-39 90.5z" />
<glyph unicode="&#xdd;" horiz-adv-x="1329" d="M11 1434h321l242 -426q59 -104 107 -239l338 665h289l-502 -893v-541h-279v540zM572 1599l182 311q35 3 99 10.5t116 12t98 4.5l-295 -338h-200z" />
<glyph unicode="&#xde;" d="M184 0v1434h279v-226q84 4 128 4q285 0 445 -121t160 -341q0 -237 -157.5 -373.5t-436.5 -136.5q-69 0 -139 8v-248h-279zM435 474q70 -16 159 -16q159 0 248 77.5t89 208.5q0 119 -83.5 184.5t-232.5 65.5q-47 0 -92 -2.5t-67 -5.5l-21 -2v-510z" />
<glyph unicode="&#xdf;" horiz-adv-x="1245" d="M146 0v1017q0 251 134.5 385t365.5 134q83 0 158.5 -21.5t136 -62.5t96 -107.5t35.5 -150.5q0 -135 -84 -235l-44 -55q-50 -56 -50 -106q0 -25 13.5 -51t28.5 -42.5t45 -46.5l109 -111q68 -67 92 -125t24 -130q0 -133 -97 -222.5t-259 -89.5q-76 0 -145.5 16.5 t-100.5 33.5l-32 16q-2 17 -15.5 87.5t-13.5 107.5q12 -8 33.5 -20t82.5 -32t115 -20q72 0 113 33t41 84q0 35 -13.5 63.5t-55.5 67.5l-107 108q-64 63 -93 116t-29 132q0 99 76 191l51 66q65 73 65 157q0 71 -49.5 113t-127.5 42q-113 0 -174.5 -96t-60.5 -271v-975h-264z " />
<glyph unicode="&#xe0;" horiz-adv-x="1095" d="M74 271q0 160 134.5 254.5t361.5 94.5h120q2 125 -56 178.5t-166 53.5q-72 0 -146 -25t-112 -49l-38 -25q-3 22 -10.5 61.5t-12.5 72.5t-5 62q6 4 17.5 10.5t50 22.5t80 28.5t105 23t128.5 10.5q214 0 322 -102.5t102 -303.5l-11 -396q-3 -90 73 -90q19 0 33.5 6t19.5 12 l6 5q0 -30 -4 -58t-10.5 -59t-9.5 -49q-42 -29 -122 -29t-135.5 39t-73.5 115q-54 -72 -132.5 -113t-176.5 -41q-149 0 -240.5 80t-91.5 211zM181 1527q30 4 82.5 14t96 16.5t82.5 6.5l203 -341h-200zM327 304q0 -59 40 -95.5t106 -36.5q101 0 155.5 73t57.5 175v42h-121 q-112 0 -175 -41.5t-63 -116.5z" />
<glyph unicode="&#xe1;" horiz-adv-x="1095" d="M74 271q0 160 134.5 254.5t361.5 94.5h120q2 125 -56 178.5t-166 53.5q-72 0 -146 -25t-112 -49l-38 -25q-3 22 -10.5 61.5t-12.5 72.5t-5 62q6 4 17.5 10.5t50 22.5t80 28.5t105 23t128.5 10.5q214 0 322 -102.5t102 -303.5l-11 -396q-3 -90 73 -90q19 0 33.5 6t19.5 12 l6 5q0 -30 -4 -58t-10.5 -59t-9.5 -49q-42 -29 -122 -29t-135.5 39t-73.5 115q-54 -72 -132.5 -113t-176.5 -41q-149 0 -240.5 80t-91.5 211zM327 304q0 -59 40 -95.5t106 -36.5q101 0 155.5 73t57.5 175v42h-121q-112 0 -175 -41.5t-63 -116.5zM410 1223l181 311 q35 3 99 10.5t116.5 12t98.5 4.5l-295 -338h-200z" />
<glyph unicode="&#xe2;" horiz-adv-x="1095" d="M74 271q0 160 134.5 254.5t361.5 94.5h120q2 125 -56 178.5t-166 53.5q-72 0 -146 -25t-112 -49l-38 -25q-3 22 -10.5 61.5t-12.5 72.5t-5 62q6 4 17.5 10.5t50 22.5t80 28.5t105 23t128.5 10.5q214 0 322 -102.5t102 -303.5l-11 -396q-3 -90 73 -90q19 0 33.5 6t19.5 12 l6 5q0 -30 -4 -58t-10.5 -59t-9.5 -49q-42 -29 -122 -29t-135.5 39t-73.5 115q-54 -72 -132.5 -113t-176.5 -41q-149 0 -240.5 80t-91.5 211zM185 1248l271 307h141l283 -321h-194l-159 131l-170 -148q-27 0 -55.5 5.5t-63 14t-53.5 11.5zM327 304q0 -59 40 -95.5t106 -36.5 q101 0 155.5 73t57.5 175v42h-121q-112 0 -175 -41.5t-63 -116.5z" />
<glyph unicode="&#xe3;" horiz-adv-x="1095" d="M74 271q0 160 134.5 254.5t361.5 94.5h120q2 125 -56 178.5t-166 53.5q-72 0 -146 -25t-112 -49l-38 -25q-3 22 -10.5 61.5t-12.5 72.5t-5 62q6 4 17.5 10.5t50 22.5t80 28.5t105 23t128.5 10.5q214 0 322 -102.5t102 -303.5l-11 -396q-3 -90 73 -90q19 0 33.5 6t19.5 12 l6 5q0 -30 -4 -58t-10.5 -59t-9.5 -49q-42 -29 -122 -29t-135.5 39t-73.5 115q-54 -72 -132.5 -113t-176.5 -41q-149 0 -240.5 80t-91.5 211zM188.5 1294.5q-0.5 11.5 1 39t6.5 49.5t17 49.5t30 46t49 31t70 12.5q30 0 62.5 -8.5t48.5 -15.5t51 -23q80 -38 125 -38 q25 0 43.5 8t28 19.5t15.5 23.5t7 20l1 8q18 0 37.5 -2.5t45 -7.5t37.5 -7v-4q2 -17 2 -32t-2 -48.5t-12.5 -60t-28 -54t-51 -43t-79.5 -15.5q-66 0 -164 46q-80 38 -123 38q-39 0 -63 -19.5t-29 -38.5l-4 -20q-12 2 -37.5 7t-45 7.5t-37.5 2.5v4q-1 14 -1.5 25.5zM327 304 q0 -59 40 -95.5t106 -36.5q101 0 155.5 73t57.5 175v42h-121q-112 0 -175 -41.5t-63 -116.5z" />
<glyph unicode="&#xe4;" horiz-adv-x="1095" d="M74 271q0 160 134.5 254.5t361.5 94.5h120q2 125 -56 178.5t-166 53.5q-72 0 -146 -25t-112 -49l-38 -25q-3 22 -10.5 61.5t-12.5 72.5t-5 62q6 4 17.5 10.5t50 22.5t80 28.5t105 23t128.5 10.5q214 0 322 -102.5t102 -303.5l-11 -396q-3 -90 73 -90q19 0 33.5 6t19.5 12 l6 5q0 -30 -4 -58t-10.5 -59t-9.5 -49q-42 -29 -122 -29t-135.5 39t-73.5 115q-54 -72 -132.5 -113t-176.5 -41q-149 0 -240.5 80t-91.5 211zM208 1381q0 57 38 94.5t91 37.5t91 -37.5t38 -94.5q0 -54 -38 -90.5t-91 -36.5t-91 36t-38 91zM327 304q0 -59 40 -95.5t106 -36.5 q101 0 155.5 73t57.5 175v42h-121q-112 0 -175 -41.5t-63 -116.5zM588 1381q0 56 39 94t90 38t90.5 -38t39.5 -94q0 -54 -39.5 -90.5t-90.5 -36.5t-90 36.5t-39 90.5z" />
<glyph unicode="&#xe5;" horiz-adv-x="1095" d="M74 271q0 160 134.5 254.5t361.5 94.5h120q2 125 -56 178.5t-166 53.5q-72 0 -146 -25t-112 -49l-38 -25q-3 22 -10.5 61.5t-12.5 72.5t-5 62q6 4 17.5 10.5t50 22.5t80 28.5t105 23t128.5 10.5q214 0 322 -102.5t102 -303.5l-11 -396q-3 -90 73 -90q19 0 33.5 6t19.5 12 l6 5q0 -30 -4 -58t-10.5 -59t-9.5 -49q-42 -29 -122 -29t-135.5 39t-73.5 115q-54 -72 -132.5 -113t-176.5 -41q-149 0 -240.5 80t-91.5 211zM287 1449q0 99 70.5 169.5t169.5 70.5t169 -70.5t70 -169.5t-70 -169t-169 -70t-169.5 70t-70.5 169zM327 304q0 -59 40 -95.5 t106 -36.5q101 0 155.5 73t57.5 175v42h-121q-112 0 -175 -41.5t-63 -116.5zM440 1449q0 -37 25.5 -62.5t61.5 -25.5t61 25.5t25 62.5t-25 63t-61 26t-61.5 -26t-25.5 -63z" />
<glyph unicode="&#xe6;" horiz-adv-x="1691" d="M74 271q0 160 134.5 254.5t361.5 94.5h120q2 125 -56 178.5t-166 53.5q-72 0 -146 -25t-112 -49l-38 -25q-3 22 -10.5 61.5t-12.5 72.5t-5 62q6 4 17.5 10.5t50 22.5t80 28.5t105 23t128.5 10.5q240 0 344 -125q139 125 340 125q101 0 183 -29.5t134 -82t80 -120.5 t26 -147.5t-32 -160.5l-641 -48q12 -136 89 -210.5t221 -74.5q54 0 108 12.5t92.5 31t70 36.5t46.5 31l16 12q0 -32 -5.5 -67.5t-14.5 -79t-13 -67.5q-10 -7 -18.5 -13t-44.5 -24t-72 -30t-93.5 -22.5t-117.5 -10.5q-162 0 -279.5 61.5t-180.5 176.5q-47 -109 -139.5 -173.5 t-217.5 -64.5q-149 0 -240.5 80t-91.5 211zM327 304q0 -59 40 -95.5t106 -36.5q101 0 155.5 73t57.5 175v42h-121q-112 0 -175 -41.5t-63 -116.5zM966 617l425 33q15 95 -34.5 153t-146.5 58q-94 0 -158.5 -63.5t-85.5 -180.5z" />
<glyph unicode="&#xe7;" horiz-adv-x="1001" d="M75 505q3 243 151.5 391t389.5 148q73 0 137 -10t105 -26t60 -25.5t31 -17.5q0 -29 -5 -61.5t-13.5 -72.5t-11.5 -61q-3 3 -10 8.5t-30 20t-50 25t-71 19.5t-91 9q-142 0 -227 -92t-87 -245q-1 -150 88 -244.5t232 -94.5q21 0 42.5 2.5t40 6.5t38 10t34 11.5t31 13 t27 13.5t23 13.5t18 11t13.5 8.5l8 6q0 -33 -5.5 -69t-15 -82.5t-13.5 -67.5q-15 -10 -44 -23t-94 -30t-133 -20l-27 -71q76 -8 119 -51.5t43 -113.5q0 -79 -60 -131.5t-155 -52.5q-66 0 -126 30q-2 18 -8 48.5t-9.5 56t-3.5 47.5q10 -14 38 -24t59 -10q89 0 89 68 q0 30 -24 50.5t-70 20.5q-34 0 -52 -9l60 148q-208 28 -325.5 167.5t-115.5 351.5z" />
<glyph unicode="&#xe8;" horiz-adv-x="1064" d="M71 515q3 233 149 381t363 148q101 0 183 -29.5t134 -82t80 -120.5t26 -147.5t-32 -160.5l-641 -48q12 -136 89 -210.5t221 -74.5q54 0 108 12.5t92.5 31t70 36.5t46.5 31l16 12q0 -32 -5.5 -67.5t-14.5 -79t-13 -67.5q-10 -7 -18.5 -13t-44.5 -24t-72 -30t-93.5 -22.5 t-117.5 -10.5q-250 0 -389.5 143t-136.5 392zM228 1527q30 4 82.5 14t96.5 16.5t83 6.5l203 -341h-201zM341 617l424 33q15 95 -34.5 153t-146.5 58q-94 0 -158 -63.5t-85 -180.5z" />
<glyph unicode="&#xe9;" horiz-adv-x="1064" d="M71 515q3 233 149 381t363 148q101 0 183 -29.5t134 -82t80 -120.5t26 -147.5t-32 -160.5l-641 -48q12 -136 89 -210.5t221 -74.5q54 0 108 12.5t92.5 31t70 36.5t46.5 31l16 12q0 -32 -5.5 -67.5t-14.5 -79t-13 -67.5q-10 -7 -18.5 -13t-44.5 -24t-72 -30t-93.5 -22.5 t-117.5 -10.5q-250 0 -389.5 143t-136.5 392zM341 617l424 33q15 95 -34.5 153t-146.5 58q-94 0 -158 -63.5t-85 -180.5zM458 1223l181 311q35 3 99 10.5t116.5 12t98.5 4.5l-295 -338h-200z" />
<glyph unicode="&#xea;" horiz-adv-x="1064" d="M71 515q3 233 149 381t363 148q101 0 183 -29.5t134 -82t80 -120.5t26 -147.5t-32 -160.5l-641 -48q12 -136 89 -210.5t221 -74.5q54 0 108 12.5t92.5 31t70 36.5t46.5 31l16 12q0 -32 -5.5 -67.5t-14.5 -79t-13 -67.5q-10 -7 -18.5 -13t-44.5 -24t-72 -30t-93.5 -22.5 t-117.5 -10.5q-250 0 -389.5 143t-136.5 392zM233 1248l271 307h141l283 -321h-195l-159 131l-169 -148q-27 0 -55.5 5.5t-63 14t-53.5 11.5zM341 617l424 33q15 95 -34.5 153t-146.5 58q-94 0 -158 -63.5t-85 -180.5z" />
<glyph unicode="&#xeb;" horiz-adv-x="1064" d="M71 515q3 233 149 381t363 148q101 0 183 -29.5t134 -82t80 -120.5t26 -147.5t-32 -160.5l-641 -48q12 -136 89 -210.5t221 -74.5q54 0 108 12.5t92.5 31t70 36.5t46.5 31l16 12q0 -32 -5.5 -67.5t-14.5 -79t-13 -67.5q-10 -7 -18.5 -13t-44.5 -24t-72 -30t-93.5 -22.5 t-117.5 -10.5q-250 0 -389.5 143t-136.5 392zM255 1381q0 57 38 94.5t92 37.5q53 0 91 -37.5t38 -94.5q0 -54 -38 -90.5t-91 -36.5q-54 0 -92 36t-38 91zM341 617l424 33q15 95 -34.5 153t-146.5 58q-94 0 -158 -63.5t-85 -180.5zM636 1381q0 56 39 94t90 38t90 -38t39 -94 q0 -54 -39 -90.5t-90 -36.5t-90 36.5t-39 90.5z" />
<glyph unicode="&#xec;" horiz-adv-x="557" d="M26 1531q26 4 74 13t87.5 14.5t74.5 5.5l102 -341h-175zM146 0v1002q39 0 83.5 6.5t97.5 16.5t83 14v-1039h-264z" />
<glyph unicode="&#xed;" horiz-adv-x="557" d="M146 0v1002q39 0 83.5 6.5t97.5 16.5t83 14v-1039h-264zM197 1223l86 311q32 3 117 15t145 12l-173 -338h-175z" />
<glyph unicode="&#xee;" horiz-adv-x="557" d="M-8 1248l209 307h141l222 -321h-191l-101 131l-112 -148q-26 0 -54 5.5t-61.5 14t-52.5 11.5zM146 0v1002q39 0 83.5 6.5t97.5 16.5t83 14v-1039h-264z" />
<glyph unicode="&#xef;" horiz-adv-x="557" d="M4 1381q0 53 35.5 88t85.5 35t85.5 -35t35.5 -88q0 -51 -35.5 -85t-85.5 -34t-85.5 33.5t-35.5 85.5zM146 0v1002q39 0 83.5 6.5t97.5 16.5t83 14v-1039h-264zM311 1381q0 52 37 87.5t84 35.5t84 -35.5t37 -87.5q0 -51 -36.5 -85t-84.5 -34t-84.5 34t-36.5 85z" />
<glyph unicode="&#xf0;" horiz-adv-x="1212" d="M75 468q0 192 115.5 310t298.5 118q109 0 191 -41.5t130 -112.5q-44 271 -200 427l-236 -134l-73 125l183 105q-122 67 -277 79q0 31 4.5 65t13 77t11.5 65q268 -30 458 -166l214 122l74 -125l-172 -98q256 -271 256 -747q0 -245 -138.5 -401t-363.5 -156 q-215 0 -352 137t-137 351zM338 453q0 -121 65 -200.5t161 -79.5q101 0 164 85.5t63 215.5q0 112 -65 184t-163 72t-161.5 -76.5t-63.5 -200.5z" />
<glyph unicode="&#xf1;" horiz-adv-x="1228" d="M125 1002q26 0 59 3.5t52.5 6.5t62 11t53.5 10q36 -98 55 -241q59 119 158.5 185.5t213.5 66.5q149 0 228.5 -92t79.5 -256v-696h-264v620q0 96 -41 146.5t-118 50.5q-105 0 -174.5 -101t-69.5 -256v-460h-265v601q0 90 -7.5 190.5t-15.5 155.5zM300.5 1294.5 q-0.5 11.5 1 39t6.5 49.5t17 49.5t30 46t49 31t70 12.5q63 0 163 -47q80 -38 124 -38q25 0 43.5 8t28 19.5t15.5 23.5t7 20l1 8q18 0 38 -2.5t45.5 -7.5t37.5 -7v-4q1 -14 1.5 -25.5t-1 -39t-6.5 -49.5t-17 -49.5t-30 -46t-49 -31t-70 -12.5q-66 0 -164 46q-80 38 -123 38 q-25 0 -43.5 -8t-28 -19.5t-15.5 -23t-7 -19.5l-1 -8q-12 2 -37.5 7t-45.5 7.5t-38 2.5v4q-1 14 -1.5 25.5z" />
<glyph unicode="&#xf2;" horiz-adv-x="1189" d="M71 497q0 243 150 395t389 152q228 0 368 -142t140 -373q0 -243 -150 -396t-388 -153q-228 0 -368.5 143.5t-140.5 373.5zM242 1527q30 4 82.5 14t96.5 16.5t83 6.5l203 -341h-201zM349 510q0 -150 68.5 -244t175.5 -94q109 0 178 96t69 248q0 149 -67.5 242.5 t-174.5 93.5q-110 0 -179.5 -95t-69.5 -247z" />
<glyph unicode="&#xf3;" horiz-adv-x="1189" d="M71 497q0 243 150 395t389 152q228 0 368 -142t140 -373q0 -243 -150 -396t-388 -153q-228 0 -368.5 143.5t-140.5 373.5zM349 510q0 -150 68.5 -244t175.5 -94q109 0 178 96t69 248q0 149 -67.5 242.5t-174.5 93.5q-110 0 -179.5 -95t-69.5 -247zM472 1223l181 311 q35 3 99 10.5t116.5 12t98.5 4.5l-295 -338h-200z" />
<glyph unicode="&#xf4;" horiz-adv-x="1189" d="M71 497q0 243 150 395t389 152q228 0 368 -142t140 -373q0 -243 -150 -396t-388 -153q-228 0 -368.5 143.5t-140.5 373.5zM247 1248l271 307h141l283 -321h-195l-159 131l-170 -148q-27 0 -55.5 5.5t-62 14t-53.5 11.5zM349 510q0 -150 68.5 -244t175.5 -94q109 0 178 96 t69 248q0 149 -67.5 242.5t-174.5 93.5q-110 0 -179.5 -95t-69.5 -247z" />
<glyph unicode="&#xf5;" horiz-adv-x="1189" d="M71 497q0 243 150 395t389 152q228 0 368 -142t140 -373q0 -243 -150 -396t-388 -153q-228 0 -368.5 143.5t-140.5 373.5zM249.5 1294.5q-0.5 11.5 1 39t6.5 49.5t17 49.5t30 46t49 31t70 12.5q63 0 163 -47q80 -38 124 -38q25 0 43.5 8t28 19.5t15.5 23.5t7 20l1 8 q18 0 38 -2.5t45.5 -7.5t37.5 -7v-4q1 -14 1.5 -25.5t-1 -39t-6.5 -49.5t-17 -49.5t-30 -46t-49 -31t-70 -12.5q-66 0 -164 46q-80 38 -123 38q-25 0 -43.5 -8t-28 -19.5t-15.5 -23t-7 -19.5l-1 -8q-12 2 -37.5 7t-45.5 7.5t-38 2.5v4q-1 14 -1.5 25.5zM349 510 q0 -150 68.5 -244t175.5 -94q109 0 178 95.5t69 247.5q0 149 -67.5 243t-174.5 94q-110 0 -179.5 -95t-69.5 -247z" />
<glyph unicode="&#xf6;" horiz-adv-x="1189" d="M71 497q0 243 150 395t389 152q228 0 368 -142t140 -373q0 -243 -150 -396t-388 -153q-228 0 -368.5 143.5t-140.5 373.5zM269 1381q0 57 38 94.5t91 37.5t91.5 -37.5t38.5 -94.5q0 -54 -38.5 -90.5t-91.5 -36.5t-91 36t-38 91zM349 510q0 -150 68.5 -244t175.5 -94 q109 0 178 96t69 248q0 149 -67.5 242.5t-174.5 93.5q-110 0 -179.5 -95t-69.5 -247zM650 1381q0 56 39 94t90 38t90 -38t39 -94q0 -54 -39 -90.5t-90 -36.5t-90 36.5t-39 90.5z" />
<glyph unicode="&#xf7;" d="M108 621v192h1051v-192h-1051zM486 319q0 62 42.5 103.5t105.5 41.5t106 -41.5t43 -103.5q0 -63 -43 -105t-106 -42t-105.5 42t-42.5 105zM486 1116q0 62 42.5 103.5t105.5 41.5t106 -41.5t43 -103.5q0 -63 -43 -105t-106 -42t-105.5 42t-42.5 105z" />
<glyph unicode="&#xf8;" horiz-adv-x="1189" d="M71 497q0 243 150 395t389 152q176 0 303 -88l59 68h146l-122 -141q122 -139 122 -354q0 -243 -150 -396t-388 -153q-172 0 -296 83l-55 -63h-144l116 134q-130 141 -130 363zM349 510q0 -96 29 -171l380 438q-66 75 -160 75q-110 0 -179.5 -95t-69.5 -247zM438 241 q64 -69 155 -69q109 0 178 96t69 248q0 87 -25 159z" />
<glyph unicode="&#xf9;" horiz-adv-x="1228" d="M141 328v673q52 0 152.5 18.5t111.5 19.5v-635q0 -96 41 -146.5t118 -50.5q105 0 174.5 101t69.5 256v460h264v-623q0 -90 8 -190.5t16 -155.5l7 -55h-237q-28 83 -45 206q-61 -107 -156.5 -166.5t-209.5 -59.5q-153 0 -233.5 91.5t-80.5 256.5zM261 1527q30 4 82.5 14 t96.5 16.5t83 6.5l202 -341h-200z" />
<glyph unicode="&#xfa;" horiz-adv-x="1228" d="M141 328v673q52 0 152.5 18.5t111.5 19.5v-635q0 -96 41 -146.5t118 -50.5q105 0 174.5 101t69.5 256v460h264v-623q0 -90 8 -190.5t16 -155.5l7 -55h-237q-28 83 -45 206q-61 -107 -156.5 -166.5t-209.5 -59.5q-153 0 -233.5 91.5t-80.5 256.5zM491 1223l181 311 q35 3 99 10.5t116 12t98 4.5l-294 -338h-200z" />
<glyph unicode="&#xfb;" horiz-adv-x="1228" d="M141 328v673q52 0 152.5 18.5t111.5 19.5v-635q0 -96 41 -146.5t118 -50.5q105 0 174.5 101t69.5 256v460h264v-623q0 -90 8 -190.5t16 -155.5l7 -55h-237q-28 83 -45 206q-61 -107 -156.5 -166.5t-209.5 -59.5q-153 0 -233.5 91.5t-80.5 256.5zM266 1248l271 307h141 l283 -321h-195l-159 131l-170 -148q-27 0 -55.5 5.5t-62 14t-53.5 11.5z" />
<glyph unicode="&#xfc;" horiz-adv-x="1228" d="M141 328v673q52 0 152.5 18.5t111.5 19.5v-635q0 -96 41 -146.5t118 -50.5q105 0 174.5 101t69.5 256v460h264v-623q0 -90 8 -190.5t16 -155.5l7 -55h-237q-28 83 -45 206q-61 -107 -156.5 -166.5t-209.5 -59.5q-153 0 -233.5 91.5t-80.5 256.5zM288 1381q0 57 38 94.5 t91 37.5t91.5 -37.5t38.5 -94.5q0 -54 -38.5 -90.5t-91.5 -36.5t-91 36t-38 91zM669 1381q0 56 39 94t90 38t90 -38t39 -94q0 -54 -39 -90.5t-90 -36.5t-90 36.5t-39 90.5z" />
<glyph unicode="&#xfd;" horiz-adv-x="1093" d="M22 1001q41 0 86 6t100.5 17t85.5 15l263 -739l268 724h250l-573 -1431q-40 0 -85 -5.5t-99.5 -14t-85.5 -11.5l220 450h-33zM436 1223l182 311q35 3 99 10.5t116 12t98 4.5l-295 -338h-200z" />
<glyph unicode="&#xfe;" horiz-adv-x="1185" d="M146 -447v1961q39 0 83.5 6.5t97.5 16.5t83 14v-655q111 148 296 148q180 0 294.5 -136t114.5 -368q0 -251 -143 -405.5t-381 -154.5q-93 0 -181 15v-405q-39 0 -83.5 -6.5t-97.5 -16.5t-83 -14zM410 196q80 -24 151 -24q129 0 202 99.5t73 255.5q0 151 -57 231t-150 80 q-94 0 -156.5 -83t-62.5 -207v-352z" />
<glyph unicode="&#xff;" horiz-adv-x="1093" d="M22 1001q41 0 86 6t100.5 17t85.5 15l263 -739l268 724h250l-573 -1431q-40 0 -85 -5.5t-99.5 -14t-85.5 -11.5l220 450h-33zM234 1381q0 57 38 94.5t91 37.5t91 -37.5t38 -94.5q0 -54 -38 -90.5t-91 -36.5t-91 36t-38 91zM614 1381q0 56 39.5 94t90.5 38t90 -38t39 -94 q0 -54 -39 -90.5t-90 -36.5t-90.5 36.5t-39.5 90.5z" />
<glyph unicode="&#x152;" horiz-adv-x="1902" d="M92 701q0 159 56 295.5t155.5 232.5t242 150.5t308.5 54.5h923v-222h-593v-378h521q0 -31 -4.5 -67.5t-13 -87t-10.5 -67.5h-493v-391h627v-221h-975q-166 0 -305.5 52t-235.5 144t-149.5 222t-53.5 283zM371 712q0 -226 131.5 -367t342.5 -141h60v1026h-60 q-207 0 -340.5 -145t-133.5 -373z" />
<glyph unicode="&#x153;" horiz-adv-x="1908" d="M71 497q0 243 150 395t389 152q244 0 386 -161q70 77 166.5 119t208.5 42q101 0 183 -29.5t134 -82t80 -120.5t26 -147.5t-32 -160.5l-640 -48q12 -136 89 -210.5t221 -74.5q54 0 108 12.5t92.5 31t70 36.5t47.5 31l15 12q0 -32 -5.5 -67.5t-14.5 -79t-13 -67.5 q-10 -7 -19 -13t-44.5 -24t-72 -30t-94 -22.5t-117.5 -10.5q-267 0 -407 163q-72 -78 -174 -120.5t-224 -42.5q-228 0 -368.5 143.5t-140.5 373.5zM349 510q0 -150 68.5 -244t175.5 -94q109 0 178 96t69 248q0 149 -67.5 242.5t-174.5 93.5q-110 0 -179.5 -95t-69.5 -247z M1129 617l425 33q15 95 -35 153t-147 58q-94 0 -158 -63.5t-85 -180.5z" />
<glyph unicode="&#x178;" horiz-adv-x="1329" d="M11 1434h321l242 -426q59 -104 107 -239l338 665h289l-502 -893v-541h-279v540zM342 1757q0 57 38 94.5t91 37.5t91 -37.5t38 -94.5q0 -54 -38 -90.5t-91 -36.5t-91 36t-38 91zM722 1757q0 56 39.5 94t90.5 38t90 -38t39 -94q0 -54 -39 -90.5t-90 -36.5t-90.5 36.5 t-39.5 90.5z" />
<glyph unicode="&#x2c6;" horiz-adv-x="788" d="M47 1248l271 307h141l283 -321h-195l-159 131l-169 -148q-27 0 -55.5 5.5t-63 14t-53.5 11.5z" />
<glyph unicode="&#x2dc;" horiz-adv-x="770" d="M46.5 1294.5q-0.5 11.5 1 39t6.5 49.5t17 49.5t30 46t49 31t70 12.5q63 0 163 -47q80 -38 124 -38q25 0 43.5 8t28 19.5t15.5 23.5t7 20l1 8q18 0 38 -2.5t45.5 -7.5t37.5 -7v-4q1 -14 1.5 -25.5t-1 -39t-6.5 -49.5t-17 -49.5t-30 -46t-49 -31t-70 -12.5q-66 0 -164 46 q-80 38 -123 38q-25 0 -43.5 -8t-28 -19.5t-15.5 -23t-7 -19.5l-1 -8q-12 2 -37.5 7t-45.5 7.5t-38 2.5v4q-1 14 -1.5 25.5z" />
<glyph unicode="&#x2000;" horiz-adv-x="970" />
<glyph unicode="&#x2001;" horiz-adv-x="1941" />
<glyph unicode="&#x2002;" horiz-adv-x="970" />
<glyph unicode="&#x2003;" horiz-adv-x="1941" />
<glyph unicode="&#x2004;" horiz-adv-x="647" />
<glyph unicode="&#x2005;" horiz-adv-x="485" />
<glyph unicode="&#x2006;" horiz-adv-x="323" />
<glyph unicode="&#x2007;" horiz-adv-x="323" />
<glyph unicode="&#x2008;" horiz-adv-x="242" />
<glyph unicode="&#x2009;" horiz-adv-x="388" />
<glyph unicode="&#x200a;" horiz-adv-x="107" />
<glyph unicode="&#x2010;" horiz-adv-x="741" d="M61 423v178h618v-178h-618z" />
<glyph unicode="&#x2011;" horiz-adv-x="741" d="M61 423v178h618v-178h-618z" />
<glyph unicode="&#x2012;" horiz-adv-x="741" d="M61 423v178h618v-178h-618z" />
<glyph unicode="&#x2013;" horiz-adv-x="1024" d="M0 423v178h1024v-178h-1024z" />
<glyph unicode="&#x2014;" horiz-adv-x="2048" d="M0 423v178h2048v-178h-2048z" />
<glyph unicode="&#x2018;" horiz-adv-x="491" d="M83 1075q0 76 20.5 147t50 117t58.5 81t50 51l20 16q19 0 41.5 -3t49.5 -8.5t41 -7.5q-7 -6 -17.5 -16t-38.5 -40.5t-49.5 -60.5t-39 -71.5t-17.5 -77.5q0 -25 14.5 -43t35 -30t41.5 -26t35.5 -39t14.5 -61q0 -57 -37.5 -94t-97.5 -37q-80 0 -127.5 56t-47.5 147z" />
<glyph unicode="&#x2019;" horiz-adv-x="491" d="M79 892q7 6 17.5 16t38.5 40.5t49 60.5t38.5 71.5t17.5 77.5q0 25 -14.5 43t-35 30t-41.5 26t-35.5 39t-14.5 61q0 57 37.5 94t97.5 37q80 0 127.5 -56t47.5 -147q0 -76 -20.5 -147t-49.5 -117t-58.5 -81t-50.5 -51l-20 -16q-19 0 -41 3.5t-49 8.5t-41 7z" />
<glyph unicode="&#x201a;" horiz-adv-x="491" d="M79 -339q7 6 17.5 16t38.5 40.5t49 61t38.5 72t17.5 77.5q0 25 -14.5 43t-35 30t-41.5 26t-35.5 39t-14.5 61q0 57 37.5 94t97.5 37q80 0 127.5 -56t47.5 -147q0 -76 -20.5 -147t-49.5 -117t-58.5 -81.5t-50.5 -51.5l-20 -16q-19 0 -41 3.5t-49 8.5t-41 7z" />
<glyph unicode="&#x201c;" horiz-adv-x="864" d="M83 1075q0 76 20.5 147t50 117t58.5 81t50 51l20 16q19 0 41.5 -3t49.5 -8.5t41 -7.5q-7 -6 -17.5 -16t-38.5 -40.5t-49.5 -60.5t-39 -71.5t-17.5 -77.5q0 -25 14.5 -43t35 -30t41.5 -26t35.5 -39t14.5 -61q0 -57 -37.5 -94t-97.5 -37q-80 0 -127.5 56t-47.5 147z M454 1075q0 76 20.5 147t50 117t59 81t50.5 51l20 16q19 0 41 -3.5t49 -8.5t41 -7q-7 -6 -17.5 -16t-38.5 -40.5t-49 -60.5t-38.5 -71.5t-17.5 -77.5q0 -25 14.5 -43t35 -30t41.5 -26t35.5 -39t14.5 -61q0 -56 -37.5 -93.5t-98.5 -37.5q-80 0 -127.5 56t-47.5 147z" />
<glyph unicode="&#x201d;" horiz-adv-x="864" d="M79 892q7 6 17.5 16t38.5 40.5t49 60.5t38.5 71.5t17.5 77.5q0 25 -14.5 43t-35 30t-41.5 26t-35.5 39t-14.5 61q0 57 37.5 94t97.5 37q80 0 127.5 -56t47.5 -147q0 -76 -20.5 -147t-49.5 -117t-58.5 -81t-50.5 -51l-20 -16q-19 0 -41 3.5t-49 8.5t-41 7zM450 892 q7 6 17.5 16t38.5 40.5t49 60.5t38.5 71.5t17.5 77.5q0 25 -14.5 43t-35.5 30t-41.5 26t-35 39t-14.5 61q0 57 37 94t98 37q80 0 127.5 -56t47.5 -147q0 -76 -20.5 -147t-50 -117t-58.5 -81t-49 -51l-21 -16q-19 0 -41 3.5t-49 8.5t-41 7z" />
<glyph unicode="&#x201e;" horiz-adv-x="864" d="M79 -339q7 6 17.5 16t38.5 40.5t49 61t38.5 72t17.5 77.5q0 25 -14.5 43t-35 30t-41.5 26t-35.5 39t-14.5 61q0 57 37.5 94t97.5 37q80 0 127.5 -56t47.5 -147q0 -76 -20.5 -147t-49.5 -117t-58.5 -81.5t-50.5 -51.5l-20 -16q-19 0 -41 3.5t-49 8.5t-41 7zM450 -339 q7 6 17.5 16t38.5 40.5t49 61t38.5 72t17.5 77.5q0 25 -14.5 43t-35.5 30t-41.5 26t-35 39t-14.5 61q0 57 37 94t98 37q80 0 127.5 -56t47.5 -147q0 -76 -20.5 -147t-50 -117t-58.5 -81.5t-49 -51.5l-21 -16q-19 0 -41 3.5t-49 8.5t-41 7z" />
<glyph unicode="&#x2022;" horiz-adv-x="917" d="M157 512q0 -122 89 -208.5t213 -86.5q123 0 212.5 86.5t89.5 208.5q0 129 -89 219t-213 90q-125 0 -213.5 -89.5t-88.5 -219.5z" />
<glyph unicode="&#x2026;" horiz-adv-x="1335" d="M98 112q0 62 43 104t105 42q63 0 106 -42t43 -104q0 -63 -43 -105t-106 -42t-105.5 42t-42.5 105zM522 112q0 62 43 104t105 42q63 0 106 -42t43 -104q0 -63 -43 -105t-106 -42t-105.5 42t-42.5 105zM940 112q0 62 43 104t105 42q63 0 106 -42t43 -104q0 -63 -43 -105 t-106 -42t-105.5 42t-42.5 105z" />
<glyph unicode="&#x202f;" horiz-adv-x="388" />
<glyph unicode="&#x2039;" horiz-adv-x="634" d="M65 512l283 369h222l-239 -369l239 -369h-222z" />
<glyph unicode="&#x203a;" horiz-adv-x="634" d="M65 143l239 369l-239 369h221l284 -369l-284 -369h-221z" />
<glyph unicode="&#x205f;" horiz-adv-x="485" />
<glyph unicode="&#x20ac;" horiz-adv-x="1331" d="M92 668q0 206 97 374.5t264 263.5t369 95q79 0 152.5 -9.5t121.5 -22.5t84.5 -26t53.5 -23l16 -9q0 -32 -5 -68t-13.5 -79.5t-11.5 -67.5q-6 4 -17.5 10.5t-48.5 22.5t-76 28.5t-98.5 23t-118.5 10.5q-156 0 -278 -78t-181 -211h527q0 -22 -3.5 -46.5t-9.5 -55t-8 -46.5 h-547q-4 -32 -4 -73q0 -20 2 -54h570q0 -22 -3.5 -46.5t-9.5 -54.5t-8 -46h-518q52 -142 175 -223t292 -81q71 0 138 13.5t112.5 33t80 39.5t50.5 34l17 13q0 -36 -5.5 -76.5t-14 -89.5t-11.5 -77q-6 -4 -18 -11t-52 -24t-84 -30t-113.5 -24t-141.5 -11q-160 0 -295 52 t-229 144t-146.5 222.5t-52.5 283.5z" />
<glyph unicode="&#x2122;" horiz-adv-x="1865" d="M26 1390v145h696v-145h-256v-643h-184v643h-256zM793 747l108 774q13 2 72.5 13t91.5 11l202 -540l201 530h162l111 -788h-185l-60 505l-173 -509h-129l-173 480l-50 -476h-178z" />
<glyph unicode="&#xe000;" horiz-adv-x="1034" d="M0 0v1034h1034v-1034h-1034z" />
</font>
</defs>
</svg>
