<?xml version="1.0" standalone="no"?>
<!DOCTYPE svg PUBLIC "-//W3C//DTD SVG 1.1//EN" "http://www.w3.org/Graphics/SVG/1.1/DTD/svg11.dtd" >
<svg xmlns="http://www.w3.org/2000/svg">
<metadata></metadata>
<defs>
<font id="lelum_sansbook_italic" horiz-adv-x="1576" >
<font-face units-per-em="2048" ascent="1638" descent="-410" />
<missing-glyph horiz-adv-x="421" />
<glyph unicode="&#xfb01;" horiz-adv-x="1169" d="M-72 -289q37 -17 83 -17q112 0 132 189l109 1029h-152q3 11 10.5 34.5t12 42t6.5 35.5h135l16 152q38 360 322 360q33 0 63 -4t43 -8l13 -5l3 -61q4 -61 0 -61q-38 20 -94 20q-165 0 -192 -256l-15 -137h255q-2 -17 -6.5 -35t-12 -42t-10.5 -35h-237l-109 -1029 q-16 -148 -85 -228t-178 -80q-29 0 -56.5 4.5t-40.5 8.5l-13 4q-5 98 -2 119zM776 126l18 150l76 617q4 31 5 60.5t1 43.5l-1 14q25 0 53 4t62 10.5t53 9.5q-5 -73 -13 -142l-76 -617l-15 -117q-4 -31 10 -48.5t42 -17.5q16 0 33.5 5.5t27.5 11.5l9 6q0 -2 -18 -103 q-63 -34 -146 -34q-65 0 -97 38.5t-24 108.5zM908 1394q5 45 38 77t74 32q40 0 65 -31.5t20 -75.5q-5 -45 -38 -77t-74 -32q-40 0 -65 31.5t-20 75.5z" />
<glyph unicode="&#xfb02;" horiz-adv-x="1169" d="M-72 -289q37 -17 83 -17q112 0 132 189l109 1029h-152q3 11 10.5 34.5t12 42t6.5 35.5h135l16 152q38 360 322 360q33 0 63 -4t43 -8l13 -5l3 -61q4 -61 0 -61q-38 20 -94 20q-165 0 -192 -256l-15 -137h255q-2 -17 -6.5 -35t-12 -42t-10.5 -35h-237l-109 -1029 q-16 -148 -85 -228t-178 -80q-29 0 -56.5 4.5t-40.5 8.5l-13 4q-5 98 -2 119zM776 126l18 150l139 1129q4 31 5.5 60.5t0.5 43.5l-1 14q25 0 52.5 4t61.5 10.5t53 9.5q-5 -73 -13 -142l-138 -1129l-15 -117q-4 -31 10 -48.5t42 -17.5q16 0 33.5 5.5t27.5 11.5l9 6 q0 -2 -18 -103q-63 -34 -146 -34q-65 0 -97 38.5t-24 108.5z" />
<glyph horiz-adv-x="2048" />
<glyph horiz-adv-x="2048" />
<glyph unicode="&#xd;" horiz-adv-x="2048" />
<glyph unicode=" "  horiz-adv-x="421" />
<glyph unicode="&#x09;" horiz-adv-x="421" />
<glyph unicode="&#xa0;" horiz-adv-x="421" />
<glyph unicode="!" horiz-adv-x="526" d="M101 70q5 46 40.5 77.5t81.5 31.5t73.5 -31.5t22.5 -77.5q-5 -47 -40.5 -78.5t-81.5 -31.5t-73.5 31.5t-22.5 78.5zM183 369l110 1065h169l-150 -1047q-19 0 -40.5 -3t-48 -8t-40.5 -7z" />
<glyph unicode="&#x22;" horiz-adv-x="708" d="M215 956l63 501q18 0 39 3t46.5 8t39.5 7l-93 -506q-6 -1 -41 -7t-54 -6zM479 956l63 501q18 0 39 3t46.5 8t39.5 7l-93 -506q-6 -1 -41 -7t-54 -6z" />
<glyph unicode="#" horiz-adv-x="1351" d="M76 432l28 114h247l100 407h-247l28 114h247l90 367h148l-90 -367h344l90 367h148l-90 -367h247l-28 -114h-247l-100 -407h247l-28 -114h-247l-106 -432h-148l106 432h-344l-106 -432h-148l106 432h-247zM499 546h344l100 407h-344z" />
<glyph unicode="$" horiz-adv-x="1085" d="M86.5 121q-3.5 68 1.5 77q68 -36 166.5 -65.5t195.5 -29.5q124 0 213 66t106 168q16 92 -23 151.5t-152 115.5l-174 89q-203 104 -203 285q0 159 113 274.5t293 141.5l31 247h110l-30 -240q72 -2 143 -17t106 -30l35 -14q-3 -20 -8.5 -41.5t-14 -48.5t-12.5 -41 q-13 7 -36 18t-94 29t-141 18q-134 0 -225 -76.5t-91 -186.5q0 -120 142 -191l165 -85q156 -79 210 -168t31 -230q-22 -136 -127 -232t-257 -123l-32 -259h-110l31 250q-205 1 -359 71q0 9 -3.5 77z" />
<glyph unicode="%" horiz-adv-x="1728" d="M125 949q23 189 119 304.5t229 115.5t200 -115.5t44 -304.5t-118.5 -305t-228.5 -116t-200.5 116.5t-44.5 304.5zM262 949q-17 -146 15.5 -236.5t104.5 -90.5t126.5 90.5t71.5 236.5t-15 236t-104 90t-127 -90.5t-72 -235.5zM361 -56l951 1529l102 -64l-951 -1528z M1062 408q23 189 118.5 304.5t228.5 115.5t200.5 -116t44.5 -304q-23 -189 -119 -304.5t-229 -115.5t-200 115.5t-44 304.5zM1199 408q-17 -146 15 -236.5t104 -90.5t127 91t72 236q17 146 -15.5 236.5t-104.5 90.5t-126.5 -90.5t-71.5 -236.5z" />
<glyph unicode="&#x26;" horiz-adv-x="1355" d="M125 334q17 137 95 236.5t221 203.5q-43 47 -71 82.5t-56 83.5t-38 101t-4 111q19 174 143.5 282t303.5 108q160 0 248.5 -89t72.5 -230q-6 -52 -21.5 -98t-45.5 -88t-56 -72t-75.5 -69t-78.5 -60t-90 -62l270 -294q34 58 57 93.5t60 80.5t70.5 70t80 43t98.5 19 q0 -12 3.5 -66t-1.5 -67q-35 -3 -67.5 -19t-57 -36.5t-55.5 -59.5t-50 -67.5t-52 -80.5l-2 -2l271 -295l-120 -120l-247 269q-41 -57 -82.5 -100t-96.5 -82t-124 -59.5t-148 -20.5q-174 0 -274 98t-81 256zM287 331q-11 -103 50 -167.5t158 -64.5q117 0 200.5 60.5 t155.5 169.5l-318 347q-120 -89 -178 -166t-68 -179zM433 1163q-5 -43 2.5 -80.5t34.5 -77.5t46.5 -62t65.5 -71l7 5q81 56 118.5 84t83 71.5t65.5 86t27 96.5q11 96 -34 152t-135 56q-112 0 -189.5 -71.5t-91.5 -188.5z" />
<glyph unicode="'" horiz-adv-x="444" d="M215 956l63 501q18 0 39 3t46.5 8t39.5 7l-93 -506q-6 -1 -41 -7t-54 -6z" />
<glyph unicode="(" horiz-adv-x="669" d="M114 563q13 102 41 199.5t65 176.5t81 152.5t90 130t91 105t84.5 82.5t70 58.5t47.5 36.5l18 11v-155l-12 -10q-12 -9 -34 -29.5t-50 -48.5t-60.5 -69t-65.5 -88t-65.5 -108.5t-60 -128t-49 -148t-31.5 -167.5q-17 -160 -0.5 -287.5t55.5 -223t79 -159.5t71 -95l31 -32 l-42 -153q-18 13 -46.5 38t-98.5 113.5t-120 189.5t-80.5 266t-8.5 343z" />
<glyph unicode=")" horiz-adv-x="665" d="M-19 -233l12 9q12 10 34 30.5t50 48.5t60.5 69t66 88t66 108.5t60 128t49 148t31.5 167.5q17 160 0.5 287.5t-55.5 223.5t-79 159.5t-71 95.5l-31 32l41 153q18 -13 46.5 -38t98.5 -114t120 -190t80.5 -266t8.5 -343q-16 -129 -57 -251.5t-94 -215t-113 -173.5 t-117 -136.5t-103.5 -96t-74.5 -59.5l-29 -19v154z" />
<glyph unicode="*" horiz-adv-x="833" d="M206 1070l239 139l-205 139l78 92l180 -169l95 255q16 0 33 -5.5t38.5 -15.5t32.5 -14l-129 -244l265 19l-15 -114l-259 18l69 -243l-113 -36l-32 256l-222 -170z" />
<glyph unicode="+" horiz-adv-x="1263" d="M138 657v119h457v460h124v-460h457v-119h-457v-460h-124v460h-457z" />
<glyph unicode="," horiz-adv-x="444" d="M-18 -329q6 5 16.5 14t37 37.5t47.5 56.5t40.5 67.5t23.5 74.5q3 24 -7 40t-25.5 25.5t-31 19.5t-25 29t-5.5 47q5 42 36 69.5t76 27.5q64 0 93.5 -47t20.5 -123q-8 -64 -31.5 -124t-51.5 -100t-55 -70.5t-45 -44.5l-18 -14q-18 0 -52 7t-44 8z" />
<glyph unicode="-" horiz-adv-x="743" d="M55 456l13 112h620l-13 -112h-620z" />
<glyph unicode="." horiz-adv-x="444" d="M60 70q5 46 40 77.5t81 31.5t73.5 -31.5t22.5 -77.5q-5 -47 -40.5 -78.5t-81.5 -31.5t-73 31.5t-22 78.5z" />
<glyph unicode="/" horiz-adv-x="825" d="M-35 -246l794 1782h135l-797 -1782h-132z" />
<glyph unicode="0" horiz-adv-x="1138" d="M124 641q16 217 92 385.5t196.5 261t266.5 92.5q199 0 303.5 -181t79.5 -478q-16 -216 -92 -385t-197 -262.5t-266 -93.5q-199 0 -303.5 181.5t-79.5 479.5zM282 634q-24 -242 41.5 -392.5t197.5 -150.5q95 0 177 83t136 228.5t70 326.5q24 241 -42 390t-198 149 q-95 0 -177 -82t-135.5 -226.5t-69.5 -325.5z" />
<glyph unicode="1" horiz-adv-x="712" d="M142 1089q0 13 2 45q176 77 383 230l92 -7l-167 -1357h-160l143 1171q-121 -82 -289 -166q0 13 -2 42t-2 42z" />
<glyph unicode="2" horiz-adv-x="993" d="M46 111q242 204 382 346q334 339 358 542q15 122 -44.5 192t-181.5 70q-52 0 -107.5 -18t-98 -43.5t-77 -50.5t-53.5 -43l-18 -18q0 12 -2 44.5t-2 47t2 44.5q20 19 52.5 41t84.5 50.5t121.5 47t139.5 18.5q179 0 273 -99t72 -272q-9 -71 -41.5 -148t-76 -144 t-105.5 -140.5t-115.5 -127.5t-122 -115.5t-109.5 -95t-92.5 -74.5t-57.5 -46h616q-2 -17 -7 -37t-13 -45.5t-11 -36.5h-765q-3 99 -1 111z" />
<glyph unicode="3" horiz-adv-x="980" d="M21 118q-3 62 2 67q157 -87 327 -87q141 0 235.5 77.5t106.5 202.5q12 118 -70 190.5t-231 72.5l-99 -3q0 12 -1 36.5t-1 45t2 36.5q41 -5 105 -5q153 0 249 74t108 199q11 106 -58 170.5t-200 64.5q-48 0 -98.5 -11.5t-87.5 -27.5t-67 -32.5t-45 -27.5l-16 -12 q0 12 -2 41t-2 42t2 41q30 20 68.5 40t121.5 43t168 23q182 0 283 -93t89 -244q-9 -115 -83.5 -208t-199.5 -135q117 -38 177.5 -122.5t51.5 -200.5q-13 -178 -151.5 -286.5t-351.5 -108.5q-29 0 -56.5 1.5t-53 5.5t-46 7.5t-42.5 10t-36 10.5t-32.5 11t-25.5 9.5t-22 8.5 l-15 7q0 5 -3 67z" />
<glyph unicode="4" horiz-adv-x="1013" d="M45.5 395q-0.5 10 0.5 30l551 935h168l-537 -911h417l92 575l125 7l-70 -576h196q-2 -18 -7.5 -37.5t-13 -44t-11.5 -37.5h-172l-42 -336h-151l42 336h-581q-1 10 -3.5 29.5t-3 29.5z" />
<glyph unicode="5" horiz-adv-x="1060" d="M73.5 132.5q-3.5 63.5 1.5 72.5q109 -66 201 -89q64 -16 127 -16q152 0 258.5 94.5t124.5 244.5q16 134 -46 215t-180 81q-46 0 -90 -12t-73.5 -28.5t-52.5 -33.5t-34 -29l-10 -12q-85 16 -120 16l158 724h679q-2 -18 -7.5 -37.5t-13 -44t-11.5 -37.5h-521l-99 -458 q115 69 234 69q179 0 274.5 -113t72.5 -299q-25 -203 -173.5 -330.5t-361.5 -127.5q-195 0 -334 78q0 9 -3.5 72.5z" />
<glyph unicode="6" horiz-adv-x="1054" d="M106 499q34 250 141 443.5t282 313.5t399 146q3 -118 1 -135q-122 -12 -227 -63t-182.5 -130t-133 -175.5t-90.5 -209.5q59 70 146 110.5t188 40.5q174 0 266.5 -113.5t69.5 -300.5q-25 -199 -156 -321.5t-320 -122.5q-206 0 -310 146t-74 371zM260 467 q-21 -162 45.5 -267t199.5 -105q120 0 206 88t105 232q19 145 -45 234.5t-189 89.5q-116 0 -211 -79t-111 -193z" />
<glyph unicode="7" horiz-adv-x="925" d="M131 1241q3 13 11 38t13.5 44.5t7.5 36.5h841q0 -9 0.5 -25t0.5 -29t-1 -25q-201 -233 -389.5 -582.5t-311.5 -709.5l-153 17q115 345 299.5 682.5t371.5 552.5h-690z" />
<glyph unicode="8" horiz-adv-x="1067" d="M87 358q15 122 91.5 211t196.5 130q-97 40 -144.5 123.5t-34.5 194.5q20 163 144 263t304 100t279 -100.5t79 -262.5q-13 -111 -81.5 -194t-175.5 -123q110 -40 164.5 -130t39.5 -213q-21 -169 -152.5 -273t-323.5 -104q-193 0 -300 104.5t-86 273.5zM237 363 q-15 -126 52.5 -202t195.5 -76t214 76t101 202q15 125 -52.5 199.5t-195.5 74.5t-214 -74.5t-101 -199.5zM345 1012q-14 -117 45.5 -186t176.5 -69t194 69t91 186q15 121 -45 192t-177 71q-116 0 -193 -71t-92 -192z" />
<glyph unicode="9" horiz-adv-x="1054" d="M134 935q25 199 156 322t320 123q137 0 232 -68.5t134 -185t19 -263.5q-34 -250 -141.5 -444t-282.5 -314t-399 -146q0 5 -2.5 65.5t1.5 69.5q122 12 227 63t182.5 130t133.5 175.5t91 209.5q-59 -69 -146.5 -110t-187.5 -41q-174 0 -267 113.5t-70 300.5zM285 946 q-20 -146 44.5 -235t188.5 -89q116 0 211 79t111 193q21 162 -45 267.5t-199 105.5q-120 0 -206 -88.5t-105 -232.5z" />
<glyph unicode=":" horiz-adv-x="446" d="M60 70q5 46 40.5 77.5t81.5 31.5t73.5 -31.5t22.5 -77.5q-5 -47 -40.5 -78.5t-81.5 -31.5t-73.5 31.5t-22.5 78.5zM162 908q5 46 40.5 77t81.5 31t73.5 -31t22.5 -77q-5 -47 -40.5 -79t-81.5 -32t-73.5 32t-22.5 79z" />
<glyph unicode=";" horiz-adv-x="446" d="M-20 -329q6 5 16.5 14t37 37.5t48 56.5t41 67.5t23.5 74.5q4 29 -12 48t-36.5 27.5t-35.5 30t-11 55.5q5 42 36.5 69.5t76.5 27.5q64 0 93.5 -47t20.5 -123q-8 -64 -31.5 -124t-52 -100t-55.5 -70.5t-45 -44.5l-18 -14q-18 0 -52 7t-44 8zM158 908q5 46 40 77t81 31 t74 -31t23 -77q-5 -47 -40.5 -79t-81.5 -32t-73.5 32t-22.5 79z" />
<glyph unicode="&#x3c;" horiz-adv-x="1316" d="M137 655v115l1038 441v-131l-893 -368l893 -368v-130z" />
<glyph unicode="=" horiz-adv-x="1318" d="M165 432v119h1039v-119h-1039zM165 883v119h1039v-119h-1039z" />
<glyph unicode="&#x3e;" horiz-adv-x="1316" d="M191 214v130l893 368l-893 368v131l1038 -441v-115z" />
<glyph unicode="?" horiz-adv-x="919" d="M192 680q8 88 60.5 150t158.5 104l178 71q74 28 111 65.5t41 98.5q5 70 -50 113t-155 43q-69 0 -136.5 -21.5t-101.5 -43.5l-33 -21q-3 117 -1 132q15 10 42 24.5t106 39t151 24.5q158 0 247 -80.5t77 -214.5q-9 -106 -69 -170.5t-175 -107.5l-153 -58 q-82 -31 -117.5 -69t-40.5 -93q-6 -74 41 -118.5t132 -44.5q46 0 87.5 12.5t59.5 24.5l18 13q0 -14 2 -42.5t2 -41t-2 -42.5q-9 -5 -26 -12.5t-68.5 -20t-103.5 -12.5q-140 0 -217.5 81t-64.5 217zM308 70q5 46 40.5 77.5t81.5 31.5t73.5 -31.5t22.5 -77.5 q-5 -47 -40.5 -78.5t-81.5 -31.5t-73.5 31.5t-22.5 78.5z" />
<glyph unicode="@" horiz-adv-x="1777" d="M101 398q0 169 51 325.5t142 279.5t212 215t267.5 141t301.5 49q291 0 459 -168.5t168 -449.5q0 -186 -59.5 -336.5t-165 -236t-234.5 -85.5q-112 0 -173 61.5t-65 162.5q-49 -69 -118 -109t-148 -40q-93 0 -143 68t-50 184q0 226 138.5 374t340.5 148q44 0 84 -5.5 t66 -13.5t45.5 -16.5t27.5 -13.5l9 -6l-111 -471q-18 -82 10 -136.5t105 -54.5q118 0 199.5 146t81.5 356q0 225 -133.5 359.5t-365.5 134.5q-155 0 -297 -65t-247 -176t-167 -267.5t-62 -329.5q0 -239 126.5 -389t343.5 -150q77 0 155 17.5t117 35.5l40 18q-7 -25 -59 -158 q-14 -7 -40.5 -17t-104 -27t-152.5 -17q-179 0 -315.5 87.5t-208 237.5t-71.5 338zM692 482q0 -75 30 -118.5t88 -43.5q79 0 142 68.5t85 163.5l74 318q-40 7 -79 7q-144 0 -242 -113.5t-98 -281.5z" />
<glyph unicode="A" horiz-adv-x="1331" d="M-22 0l728 1434q85 0 153 9l377 -1443h-182l-104 413h-595l-204 -413h-173zM405 532h524l-174 715z" />
<glyph unicode="B" horiz-adv-x="1226" d="M142 11l174 1411q190 25 363 25q210 0 331 -86t121 -237q0 -138 -76.5 -231t-221.5 -136q138 -34 209.5 -115t71.5 -201q0 -211 -167 -335t-445 -124q-88 0 -178 7.5t-134.5 14t-47.5 7.5zM322 122q96 -12 179 -12q206 0 325.5 88.5t119.5 242.5q0 117 -88 180.5 t-246 63.5q-98 0 -222 -9zM405 797q92 -5 148 -5q201 0 305.5 77t104.5 224q0 106 -82 166t-231 61q-83 0 -183 -14z" />
<glyph unicode="C" horiz-adv-x="1316" d="M126 608q0 175 66.5 334.5t177 272.5t258 179.5t304.5 66.5q73 0 141.5 -10t113.5 -23.5t79 -27.5t50 -24l16 -10q-3 -21 -9 -44.5t-15.5 -53.5t-13.5 -45l-16.5 11t-46 24.5t-74 31t-99 24.5t-122.5 11q-101 0 -197 -34.5t-175.5 -98t-139.5 -148.5t-93.5 -193 t-33.5 -224q0 -230 131 -374.5t352 -144.5q74 0 144.5 14t119 34t86.5 40.5t56 34.5l19 14q-3 -25 -10 -52.5t-17 -61.5t-15 -52q-7 -4 -20 -11.5t-55.5 -25.5t-89 -32t-117 -25.5t-142.5 -11.5q-185 0 -325 82t-214 225.5t-74 327.5z" />
<glyph unicode="D" horiz-adv-x="1478" d="M142 4l174 1425q219 17 448 17q307 0 477.5 -156t170.5 -436q0 -183 -65.5 -343.5t-179.5 -275.5t-277 -181.5t-350 -66.5q-74 0 -173.5 4.5t-162.5 8.5zM329 137q146 -12 257 -12q179 0 321.5 83.5t226 229t99.5 331.5q4 42 4 80q-1 197 -107 317q-128 144 -370 144 q-65 0 -138 -3t-114 -5l-40 -3z" />
<glyph unicode="E" horiz-adv-x="1114" d="M140 0l176 1434h777l-18 -136h-607l-61 -509h534q-3 -19 -9 -42.5t-14 -51.5l-12 -42h-517l-62 -517h642l-17 -136h-812z" />
<glyph unicode="F" horiz-adv-x="1091" d="M140 0l176 1434h790l-18 -136h-620l-63 -523h519q-3 -20 -8.5 -41.5t-13.5 -47.5t-12 -40h-502l-79 -646h-169z" />
<glyph unicode="G" horiz-adv-x="1454" d="M126 608q0 175 67 334.5t177.5 272.5t258.5 179.5t306 66.5q75 0 144.5 -9.5t115 -23.5t81 -28t51.5 -24l16 -9q-3 -22 -9.5 -46t-16 -53.5t-13.5 -45.5l-16.5 11t-47 25t-76 31.5t-101 24.5t-124.5 11q-127 0 -244.5 -54t-205 -146t-140 -222t-52.5 -275 q0 -231 133.5 -375.5t360.5 -144.5q160 0 312 64l54 430h-343q3 12 11 37.5t13.5 45.5t7.5 38h480l-76 -617q-9 -5 -24.5 -14t-67.5 -32t-107 -40.5t-137 -32t-163 -14.5q-143 0 -260.5 47.5t-197.5 132t-123.5 201.5t-43.5 254z" />
<glyph unicode="H" horiz-adv-x="1533" d="M140 0l176 1434h170l-78 -638h794l78 638h169l-176 -1434h-170l81 660h-794l-80 -660h-170z" />
<glyph unicode="I" horiz-adv-x="571" d="M140 0l176 1434h170l-176 -1434h-170z" />
<glyph unicode="J" horiz-adv-x="806" d="M50 102q0 14 2 49q7 -5 20 -12t55 -19t86 -12q82 0 136.5 57.5t67.5 159.5l136 1109h170l-138 -1122q-19 -156 -112.5 -247.5t-250.5 -91.5q-43 0 -85.5 8t-62.5 16l-21 8q0 13 -2 48q-2 28 -2 43q0 3 1 6z" />
<glyph unicode="K" horiz-adv-x="1271" d="M140 0l176 1434h170l-90 -726l738 726h191l-753 -744q65 -63 112 -118l505 -572h-213l-585 661l-81 -661h-170z" />
<glyph unicode="L" horiz-adv-x="1126" d="M140 0l176 1434h170l-159 -1298h696l-17 -136h-866z" />
<glyph unicode="M" horiz-adv-x="1802" d="M83 0l328 1434q13 0 68 3.5t85 3.5l308 -1200l598 1193h152l-23 -1434h-171l28 1005q1 69 12 169l-569 -1166h-131l-281 1124q-15 -116 -26 -164l-216 -968h-162z" />
<glyph unicode="N" horiz-adv-x="1538" d="M140 0l176 1434q13 1 54 4.5t63 3.5l717 -1165q6 96 15 169l119 987h170l-176 -1433h-117l-718 1165q-7 -114 -12 -155l-121 -1010h-170z" />
<glyph unicode="O" d="M126 605q0 179 64.5 338.5t172.5 272.5t254.5 179t306.5 66q259 0 420.5 -179t161.5 -458q0 -236 -105.5 -431.5t-289 -307.5t-403.5 -112q-176 0 -309 81.5t-203 224.5t-70 326zM298 626q0 -228 119.5 -373t317.5 -145q165 0 302.5 91.5t217.5 251.5t80 352 q0 228 -122 375t-315 147q-119 0 -228.5 -54t-191.5 -146t-131 -222.5t-49 -276.5z" />
<glyph unicode="P" horiz-adv-x="1173" d="M140 0l175 1422q185 25 356 25q231 0 359 -99.5t128 -281.5q0 -243 -163 -387.5t-452 -144.5q-83 0 -167 11l-66 -545h-170zM386 682q72 -14 169 -14q209 0 324 103.5t115 276.5q0 128 -86.5 197t-242.5 69q-52 0 -103 -3t-76 -6l-25 -3z" />
<glyph unicode="Q" d="M126 605q0 179 64.5 338.5t172.5 272.5t254.5 179t306.5 66q259 0 420.5 -179t161.5 -458q0 -288 -154 -510t-401 -303l524 -78q-4 -27 -18.5 -73.5t-18.5 -64.5l-831 186q-222 34 -351.5 204t-129.5 420zM298 626q0 -228 119.5 -373t317.5 -145q165 0 302.5 91.5 t217.5 251.5t80 352q0 228 -122 375t-315 147q-119 0 -228.5 -54t-191.5 -146t-131 -222.5t-49 -276.5z" />
<glyph unicode="R" horiz-adv-x="1228" d="M140 0l175 1423q169 24 340 24q223 0 347 -91t124 -258q0 -162 -94.5 -279t-261.5 -167q21 -36 48 -92l271 -560h-200l-274 624q-52 -4 -82 -4q-76 0 -146 8l-77 -628h-170zM394 750q68 -10 150 -10q201 0 309 90.5t108 244.5q0 115 -80 177.5t-229 62.5q-49 0 -96.5 -3 t-71.5 -6l-23 -3z" />
<glyph unicode="S" horiz-adv-x="1081" d="M82 98v31.5v28.5q0 27 5 51q66 -37 161.5 -68t194.5 -31q120 0 207.5 67.5t106.5 172.5q5 30 5 58q0 58 -24 100q-36 62 -143 119l-169 93q-101 56 -148 126.5t-47 163.5q0 191 145.5 320.5t363.5 129.5q76 0 151 -16.5t112 -32.5l37 -16q-4 -21 -11 -44t-16.5 -51 t-14.5 -43q-12 8 -34.5 19t-92 29.5t-138.5 18.5q-131 0 -221 -80.5t-90 -195.5q0 -121 133 -193l161 -88q150 -81 202 -175q34 -62 33 -148q0 -43 -8 -93q-30 -167 -169 -271.5t-330 -104.5q-208 0 -361 72q-1 17 -1 51z" />
<glyph unicode="T" horiz-adv-x="1171" d="M128 1298l18 136h1113l-17 -136h-472l-159 -1298h-169l158 1298h-472z" />
<glyph unicode="U" horiz-adv-x="1505" d="M210 586l104 848h170l-105 -848q-6 -51 -6 -97q0 -153 69 -252q90 -129 270 -129t300.5 129t147.5 349l104 848h160l-104 -848q-35 -285 -202 -449t-424 -164q-262 -1 -390 163q-101 128 -101 333q0 56 7 117z" />
<glyph unicode="V" horiz-adv-x="1271" d="M146 1434h180l235 -1009q18 -78 43 -221l570 1230h168l-688 -1433h-171z" />
<glyph unicode="W" horiz-adv-x="2037" d="M146 1434h180l173 -972q18 -105 31 -253l517 1225h161l218 -1228q41 129 84 234l419 994h180l-613 -1433h-163l-236 1189l-527 -1189h-163z" />
<glyph unicode="X" horiz-adv-x="1300" d="M15 0l562 723l-390 711h202l128 -236q119 -218 178 -368l466 604h182l-557 -703l395 -731h-203l-116 219q-140 264 -193 407l-471 -626h-183z" />
<glyph unicode="Y" horiz-adv-x="1224" d="M146 1434h193l257 -627q30 -68 41 -136l483 763h177l-601 -904l-65 -530h-170l66 530z" />
<glyph unicode="Z" horiz-adv-x="1241" d="M48 0v46t2 46l961 1206h-777q28 116 30 136h975q-2 -24 -1.5 -36t2.5 -35.5t2 -35.5l-948 -1191h776q-2 -19 -8 -42t-15 -52t-12 -42h-987z" />
<glyph unicode="[" horiz-adv-x="733" d="M102 -307l215 1741h440q-4 -5 -1.5 -56t2.5 -56h-294l-185 -1517h279q0 -7 2.5 -57t-1.5 -55h-457z" />
<glyph unicode="\" horiz-adv-x="929" d="M-56 1536h134l794 -1782h-132z" />
<glyph unicode="]" horiz-adv-x="727" d="M-13 -195h294l185 1516h-279q0 6 -2.5 57t1.5 56h456l-214 -1741h-440q4 5 1.5 56t-2.5 56z" />
<glyph unicode="^" horiz-adv-x="1196" d="M198 801l444 633h138l289 -633h-156l-219 499l-341 -499h-155z" />
<glyph unicode="_" horiz-adv-x="1021" d="M-82 -153l14 112h1023l-14 -112h-1023z" />
<glyph unicode="`" horiz-adv-x="458" d="M205 1535q18 3 50 9.5t58.5 10.5t49.5 4l137 -320h-118z" />
<glyph unicode="a" horiz-adv-x="1130" d="M79 364q0 188 74.5 343.5t207.5 246t297 90.5q79 0 152.5 -16.5t122.5 -32.5t69 -16l-2 -10l-85 -693l-14 -117q-4 -31 9.5 -48.5t41.5 -17.5q16 0 33.5 5.5t27.5 11.5l10 6q-2 -19 -10 -58t-9 -45q-63 -34 -146 -34q-64 1 -96 39q-25 31 -26 81q0 13 2 27l15 129 q-65 -125 -165.5 -200t-213.5 -75q-135 0 -215 103.5t-80 280.5zM245 398q0 -140 57.5 -216t149.5 -76q115 0 210.5 124t126.5 317l42 347q-96 32 -178 32q-96 0 -175 -43.5t-129 -117.5t-77 -168.5t-27 -198.5z" />
<glyph unicode="b" horiz-adv-x="1118" d="M115 45l2 14l169 1375q4 31 5 60.5t1 43.5l-1 14q25 0 52.5 3.5t62.5 10t53 9.5q-5 -72 -13 -141l-82 -665q65 125 165.5 200t213.5 75q135 0 215 -103.5t80 -280.5q0 -188 -74.5 -343.5t-207.5 -246t-297 -90.5q-79 0 -152.5 16.5t-122.5 32.5t-69 16zM286 130 q96 -32 178 -32q96 0 175 43.5t129 117.5t77 168.5t27 198.5q0 140 -57.5 216t-149.5 76q-115 0 -210.5 -124t-126.5 -317z" />
<glyph unicode="c" horiz-adv-x="948" d="M90 465q12 256 164.5 417.5t380.5 161.5q187 0 287 -83q-3 -19 -9 -39.5t-14.5 -46.5t-12.5 -39q-2 3 -10 11t-29 22t-47 26.5t-67 21.5t-86 9q-165 0 -275 -130t-116 -334q-1 -13 -1 -26q0 -146 74 -236q80 -98 222 -99q133 0 283 104q-3 -21 -10 -44.5t-16.5 -51 t-13.5 -43.5q-26 -17 -59.5 -33.5t-99.5 -34.5t-131 -18q-204 0 -316 133q-100 118 -100 305q0 23 2 47z" />
<glyph unicode="d" horiz-adv-x="1130" d="M79 364q0 188 74.5 343.5t207.5 246t297 90.5q95 0 189 -24l47 385q4 31 5.5 60.5t0.5 43.5v14q25 0 52.5 4t61.5 10.5t53 9.5q-5 -73 -13 -142l-52 -426l-2 -14l-85 -689l-14 -117q-4 -31 9.5 -48.5t41.5 -17.5q16 0 33.5 5.5t27.5 11.5l10 6q-2 -19 -10 -58t-9 -45 q-63 -34 -146 -34q-64 1 -96 39q-25 31 -26 81q0 13 2 27l15 129q-65 -125 -165.5 -200t-213.5 -75q-135 0 -215 103.5t-80 280.5zM246 398q0 -140 57 -216t149 -76q115 0 210.5 124t126.5 317l42 347q-96 32 -178 32q-96 0 -174.5 -43.5t-128.5 -117.5t-77 -168.5 t-27 -198.5z" />
<glyph unicode="e" horiz-adv-x="987" d="M87 442q13 264 171 433t386 169q132 0 211.5 -65t79.5 -176q0 -70 -23 -127.5t-61 -98t-93.5 -72t-114.5 -50.5t-130.5 -31t-135.5 -17t-134 -6q4 -143 75 -223t209 -80q50 0 102 13.5t90.5 32.5t70 38.5t47.5 33.5l16 13q-3 -19 -40 -144q-16 -13 -49.5 -33t-116.5 -46 t-168 -26q-197 0 -301 126q-92 112 -92 290q0 23 1 46zM249 516q56 3 99.5 6t101.5 11.5t101 20.5t88.5 33t74 48.5t47 68t18.5 89.5q0 64 -42.5 102t-117.5 38q-141 0 -243.5 -114t-126.5 -303z" />
<glyph unicode="f" horiz-adv-x="651" d="M-72 -289q37 -17 83 -17q112 0 132 189l109 1029h-152q3 11 10.5 34.5t12 42t6.5 35.5h135l16 152q38 360 322 360q33 0 63 -4t43 -8l13 -5l3 -61q2 -30 2 -45.5t-2 -15.5q-38 20 -94 20q-165 0 -192 -256l-15 -137h255q-2 -17 -6.5 -35t-12 -42t-10.5 -35h-237 l-109 -1029q-16 -148 -85 -228t-178 -80q-29 0 -56.5 4.5t-40.5 8.5l-13 4q-3 61 -3 92q0 19 1 27z" />
<glyph unicode="g" horiz-adv-x="1032" d="M0 -172q13 169 214 280q-101 48 -101 146v11q6 106 149 169q-107 85 -107 223q0 14 1 27q8 157 131 258.5t304 101.5q100 0 175 -33q111 45 124 142q14 2 39.5 7t46 8t38.5 3q-5 -47 -24 -84.5t-47.5 -60.5t-53 -36.5t-50.5 -22.5q106 -84 106 -224q0 -13 -1 -27 q-8 -157 -130 -258.5t-303 -101.5q-99 0 -176 34q-73 -33 -77 -91v-7q0 -36 40 -58q43 -25 131 -33l260 -20q117 -9 171 -65q48 -52 48 -134v-16q-9 -175 -161 -286t-378 -111q-177 0 -277 70q-92 65 -92 174v15zM134 -139q-1 -7 -1 -14q0 -70 63 -115q70 -48 195 -48 q148 0 250.5 68t112.5 171q1 8 1 16q0 41 -27 71q-32 36 -97 42l-277 22l-33 3q-175 -86 -187 -216zM307 692q-1 -13 -1 -26q0 -84 53 -141q61 -65 165 -65q109 0 184.5 70t84.5 178q1 13 1 26q0 84 -52 142q-61 65 -166 65q-108 0 -184 -70.5t-85 -178.5z" />
<glyph unicode="h" horiz-adv-x="1175" d="M110 0l172 1405q4 31 5.5 60.5t0.5 43.5v14q25 0 52.5 4t61.5 10.5t53 9.5q-5 -73 -13 -142l-87 -706q83 149 209 247.5t252 98.5q120 0 174 -83q39 -59 39 -150q0 -37 -7 -79l-66 -457l-17 -117q-4 -30 10.5 -48t43.5 -18q16 0 33.5 5.5t27.5 11.5l9 6q0 -2 -18 -103 q-63 -34 -146 -34q-66 -1 -100 39q-26 31 -26 79q0 14 2 29l21 150l62 429q4 26 4 49q0 60 -25 100q-34 54 -106 55q-94 0 -185 -72.5t-150 -182.5t-73 -223l-53 -431h-160z" />
<glyph unicode="i" horiz-adv-x="520" d="M126 126l18 150l76 617q4 31 5 60.5t1 43.5l-1 14q25 0 52.5 4t61.5 10.5t53 9.5q-5 -73 -13 -142l-75 -617l-15 -117q-4 -31 9.5 -48.5t41.5 -17.5q16 0 33.5 5.5t27.5 11.5l10 6q0 -2 -18 -103q-64 -34 -147 -34q-64 1 -96 39q-25 31 -26 81q0 13 2 27zM258 1394 q5 45 37.5 77t73.5 32q41 1 66 -31q21 -26 21 -62q0 -7 -1 -14q-5 -45 -38 -77t-74 -32q-40 -1 -65 31q-21 26 -21 62q0 7 1 14z" />
<glyph unicode="j" horiz-adv-x="532" d="M-140 -346q0 20 2 37q41 -17 93 -17q129 0 152 190l126 1029q4 31 5.5 60.5t1.5 43.5l-1 14q25 0 52.5 4t61.5 10.5t53 9.5q-5 -73 -13 -142l-126 -1029q-18 -148 -92.5 -228.5t-193.5 -80.5q-31 0 -60.5 4.5t-44.5 8.5l-14 5q0 13 -1 37t-1 44zM271 1394q5 45 38 77 t74 32t66 -31q21 -27 21 -62q0 -7 -1 -14q-5 -45 -38 -77t-74 -32t-66 31q-21 27 -21 62q0 7 1 14z" />
<glyph unicode="k" horiz-adv-x="991" d="M110 0l172 1405q4 31 5.5 60.5t0.5 43.5v14q25 0 52.5 4t61.5 10.5t53 9.5q-4 -73 -13 -142l-101 -827l469 445q38 0 111 4.5t85 5.5l-504 -477q207 -206 406 -556q-23 -1 -88.5 -5t-99.5 -4q-163 295 -386 537l-64 -528h-160z" />
<glyph unicode="l" horiz-adv-x="520" d="M126 126l18 150l138 1129q4 31 5.5 60.5t0.5 43.5v14q25 0 52.5 4t61.5 10.5t53 9.5q-5 -73 -13 -142l-138 -1129l-15 -117q-4 -31 9.5 -48.5t41.5 -17.5q16 0 33.5 5.5t27.5 11.5l10 6q0 -2 -18 -103q-64 -34 -147 -34q-64 1 -96 39q-25 31 -26 81q0 13 2 27z" />
<glyph unicode="m" horiz-adv-x="1779" d="M120 0l77 627q11 91 16 187t5 146l-1 51q28 0 140 19q3 -16 5 -44q4 -26 8 -116q2 -30 1 -59q0 -58 -6 -112q80 149 199.5 247.5t238.5 98.5q112 -1 162 -83q37 -61 37 -156q0 -34 -5 -73l-4 -31q80 147 199.5 245t237.5 98q112 0 163 -83q36 -59 36 -149q0 -37 -6 -80 l-64 -457l-17 -117q-4 -30 10.5 -48t43.5 -18q16 0 33.5 5.5t26.5 11.5l10 6q0 -2 -18 -103q-64 -34 -147 -34q-65 -1 -99 39q-26 30 -26 78q0 14 2 30l21 150l60 429q4 28 4 53q1 58 -21 96q-30 54 -99 55q-88 0 -173 -73t-140.5 -182.5t-69.5 -223.5l-53 -430h-160l85 705 q3 26 3 48q0 62 -22 102q-30 54 -97 54q-87 0 -172 -72t-140.5 -181t-70.5 -222l-53 -434h-160z" />
<glyph unicode="n" horiz-adv-x="1185" d="M120 0l77 627q11 91 16 187t5 146l-1 51q28 0 140 19q2 -15 5 -42q4 -26 8 -111q2 -31 1 -60q0 -53 -5 -103q79 140 205.5 235.5t254.5 95.5q119 0 173 -83q39 -60 39 -152q0 -36 -6 -77l-66 -457l-17 -117q-4 -30 10.5 -48t43.5 -18q16 0 33.5 5.5t27.5 11.5l10 6 q-2 -19 -10 -58t-9 -45q-63 -34 -146 -34q-66 -1 -100 39q-26 31 -26 79q0 14 2 29l22 150l61 429q4 27 4 50q0 59 -24 99q-34 54 -107 55q-94 0 -185 -73t-150 -183t-73 -223l-53 -430h-160z" />
<glyph unicode="o" horiz-adv-x="1107" d="M87 431q0 172 71 312.5t195.5 220.5t275.5 80q180 0 286 -123.5t106 -325.5q0 -172 -71 -313t-195 -221.5t-275 -80.5q-180 0 -286.5 124.5t-106.5 326.5zM257 462v-22q-1 -146 61 -240q66 -102 183 -102q146 0 249 140t103 345q0 153 -67 248t-178 95q-143 0 -245 -134 t-106 -330z" />
<glyph unicode="p" horiz-adv-x="1136" d="M83 -419q5 72 13 141l39 323l2 14l70 568q11 92 15 188q3 64 3 108q0 21 -1 38l-1 50q29 0 141 19q2 -13 5 -36t7 -95q2 -41 2 -82q0 -31 -1 -61q65 131 167.5 209.5t218.5 78.5q135 0 215 -103.5t80 -280.5q0 -188 -74.5 -343.5t-207.5 -246t-297 -90.5q-95 0 -189 24 l-35 -282q-4 -31 -5.5 -60.5t-0.5 -43.5l1 -14q-25 0 -52.5 -3.5t-62 -10t-52.5 -9.5zM306 130q96 -32 178 -32q96 0 175 43.5t129 117.5t77 168.5t27 198.5q0 140 -57.5 216t-149.5 76q-115 0 -210.5 -124t-126.5 -318z" />
<glyph unicode="q" horiz-adv-x="1136" d="M91 361q0 188 74.5 343.5t207.5 246.5t297 91q79 0 152.5 -16.5t122.5 -32.5t69 -16l-2 -14l-153 -1243q-4 -31 -5 -60.5t0 -43.5v-13q-25 0 -52.5 -3.5t-62 -10t-52.5 -9.5q4 72 13 141l65 532q-65 -125 -165.5 -200t-213.5 -75q-135 0 -215 103t-80 280zM258 395 q0 -140 57 -216t149 -76q116 0 211 124t126 318l42 346q-99 33 -178 33q-96 0 -174.5 -44t-128.5 -118t-77 -168.5t-27 -198.5z" />
<glyph unicode="r" horiz-adv-x="737" d="M129 0l77 627q12 91 16 187q3 66 3 111q0 20 -1 35l-1 51q29 0 141 19q3 -15 6 -42q2 -28 7 -114q2 -33 2 -65q0 -51 -5 -99q73 145 177 239.5t211 94.5q0 -18 -3 -39t-6 -34t-10 -41l-9 -36q-94 -2 -182.5 -78.5t-143.5 -185t-68 -214.5l-51 -416h-160z" />
<glyph unicode="s" horiz-adv-x="790" d="M44 128q0 23 6 44q12 -9 34 -21.5t86.5 -33.5t124.5 -21q104 0 169 56.5t65 144.5q0 47 -24.5 78.5t-75.5 55.5l-139 68q-143 69 -143 212q0 148 104.5 240.5t271.5 92.5q123 0 222 -46q-1 -7 -35 -116q-8 6 -23.5 15t-64 23.5t-98.5 14.5q-100 0 -159 -53.5t-59 -139.5 q0 -84 101 -130l124 -60q81 -42 121.5 -94t40.5 -132q0 -155 -110 -250.5t-281 -95.5q-142 0 -256 52q0 15 -1 44q-1 19 -1 36v16z" />
<glyph unicode="t" horiz-adv-x="671" d="M110 912q28 103 29 112q26 -3 51 -3q29 0 46 2.5t32.5 14.5t23.5 26.5t16.5 50.5t14 73.5t13.5 106.5q19 0 41 3t48.5 8t40.5 7l-36 -289h259q-2 -17 -7 -34.5t-13 -43t-11 -34.5h-240l-74 -620q-4 -35 -4 -63q0 -62 20 -90q28 -41 99 -41q31 0 62 10.5t46 20.5l15 10 q-4 -24 -18.5 -72t-15.5 -52q-74 -35 -145 -35q-125 0 -183 69q-43 52 -43 155q0 34 5 73l76 635h-148z" />
<glyph unicode="u" horiz-adv-x="1173" d="M145 291l74 602q4 31 5.5 60.5t1.5 43.5l-1 14q25 0 52.5 4t61.5 10.5t53 9.5q-5 -73 -13 -142l-70 -575q-3 -25 -3 -48q0 -62 22 -101q30 -53 101 -53q94 0 185 73t150 183t73 223l53 429h160l-92 -748l-14 -117q-4 -31 9.5 -48.5t41.5 -17.5q16 0 33.5 5.5t27.5 11.5 l9 6q0 -2 -18 -103q-63 -34 -146 -34q-65 1 -97 39q-25 31 -25 81q0 13 2 27l17 150l4 32q-80 -139 -206 -233.5t-252 -94.5q-117 0 -167 81q-37 60 -37 156q0 35 5 74z" />
<glyph unicode="v" horiz-adv-x="1007" d="M104 1013q25 0 52 3.5t61.5 10t52.5 9.5l197 -854l407 842h161l-523 -1024h-140z" />
<glyph unicode="w" horiz-adv-x="1546" d="M127 1009q32 0 91.5 10t75.5 12l122 -819l351 812h141l155 -812l317 812h172l-432 -1024h-148l-163 798l-356 -798h-149z" />
<glyph unicode="x" horiz-adv-x="915" d="M-22 0l395 511l-263 501q25 0 54 3.5t64.5 9.5t54.5 8l198 -419l290 410h179l-393 -504l284 -520h-194l-200 412l-293 -412h-176z" />
<glyph unicode="y" horiz-adv-x="991" d="M102 1010q24 0 52 4t62.5 10.5t52.5 9.5l195 -851l400 841h156l-709 -1429q-32 0 -92 -8.5t-78 -10.5l238 430h-20z" />
<glyph unicode="z" horiz-adv-x="882" d="M55 80l602 825h-504q3 13 10 37.5t12 44t7 37.5h681l3 -82l-603 -823h522q-2 -18 -7 -37.5t-12.5 -43.5t-10.5 -38h-697l-2 32q-1 21 -1 36v12z" />
<glyph unicode="{" horiz-adv-x="700" d="M111 620q40 0 68 8.5t53 32.5t39.5 66t23 109t8.5 162q0 241 98.5 348.5t341.5 107.5l-15 -112q-147 0 -214 -86.5t-63 -290.5q6 -182 -46 -274.5t-150 -126.5q43 -17 71.5 -45t45 -74.5t12 -117.5t-30.5 -165q-39 -138 -27 -221.5t63 -118.5t149 -35l-15 -113 q-164 0 -249 48.5t-101.5 150t22.5 257.5q28 116 35.5 190.5t-7 114t-40.5 54t-71 16.5q-3 102 -1 115z" />
<glyph unicode="|" horiz-adv-x="557" d="M91 -410l238 1946h154l-238 -1946h-154z" />
<glyph unicode="}" horiz-adv-x="700" d="M-29 -326l15 112q147 0 214 86t63 290q-3 95 10 166.5t41 117.5t62.5 74t81.5 44q-43 17 -71.5 45t-45 74.5t-12 117t30.5 164.5q39 138 27.5 221.5t-62.5 119t-149 35.5l14 112q165 0 249.5 -48t101.5 -149.5t-22 -257.5q-28 -116 -35.5 -190.5t6.5 -114t40 -54.5 t71 -17q0 -12 2 -38.5t2 -38.5t-2 -38q-51 0 -83.5 -14t-58.5 -54t-38 -115.5t-12 -193.5q0 -241 -98.5 -348.5t-341.5 -107.5z" />
<glyph unicode="~" horiz-adv-x="1255" d="M141 745q128 112 255 112q70 0 167 -39.5t192 -79t161 -39.5q38 0 76 12t65 29.5t49 35t33 29.5l11 12q2 -11 7.5 -38t8.5 -47t3 -39q-124 -112 -255 -112q-56 0 -130 24.5t-134 54t-132 54t-124 24.5q-38 0 -75.5 -12t-64.5 -29t-49 -34.5t-33 -29.5l-11 -12 q-2 13 -8 38.5t-9 46t-3 39.5z" />
<glyph unicode="&#xa1;" horiz-adv-x="526" d="M63 -410l151 1047q19 0 40 3t47.5 8t40.5 7l-110 -1065h-169zM206 954q5 47 40.5 78.5t81.5 31.5t73.5 -31.5t22.5 -78.5q-5 -46 -40 -77.5t-81 -31.5t-74 31.5t-23 77.5z" />
<glyph unicode="&#xa2;" horiz-adv-x="937" d="M110 634q12 252 160.5 413.5t370.5 166.5l19 146h104l-19 -152q127 -17 198 -78q-3 -19 -9 -39.5t-14.5 -46t-12.5 -38.5q-67 67 -178 84l-22 -174h-104l23 176q-150 -17 -247 -143.5t-103 -316.5q-6 -150 61.5 -246.5t189.5 -112.5l21 171h100l-20 -170q115 18 227 100 q-3 -21 -10 -44.5t-16.5 -51t-13.5 -43.5q-85 -58 -202 -78l-19 -157h-100l18 149q-198 4 -307 136.5t-95 348.5z" />
<glyph unicode="&#xa3;" horiz-adv-x="1198" d="M110.5 60q-0.5 9 1.5 30q13 9 35.5 25t79 65.5t99.5 98.5t78.5 117.5t35.5 129.5l-1 21h-265q2 9 14.5 51t16.5 65h200q-8 16 -32 58t-36.5 67t-24 71.5t-11.5 96.5q0 189 134 317t331 128q76 0 152 -15.5t114 -30.5l38 -15q-2 -20 -8 -42t-14.5 -49.5t-12.5 -41.5 q-13 7 -36 18t-94 29.5t-141 18.5q-120 0 -202.5 -76t-94.5 -191q-7 -70 12 -126.5t56 -117.5t50 -99h336q-2 -23 -15.5 -66.5t-15.5 -49.5h-286q-1 -55 -25 -112.5t-54 -99t-75.5 -86t-71.5 -66t-60 -47.5q-5 -4 -8 -6h661q-2 -20 -7.5 -41.5t-13.5 -48t-12 -40.5h-824 q0 9 -1.5 30t-2 30z" />
<glyph unicode="&#xa4;" horiz-adv-x="1443" d="M190 238l187 186q-97 122 -97 281t97 281l-187 186l86 86l185 -186q126 100 286 99.5t283 -99.5l185 186l87 -86l-187 -186q97 -122 97 -281t-97 -281l187 -186l-87 -86l-185 186q-126 -100 -286 -99.5t-283 99.5l-185 -186zM432.5 644.5q20.5 -133.5 127.5 -210.5 q70 -51 154 -57.5t161 31t128 111.5q77 113 56.5 246.5t-127.5 210.5q-70 51 -154 57.5t-161 -31t-128 -111.5q-77 -113 -56.5 -246.5z" />
<glyph unicode="&#xa5;" horiz-adv-x="1230" d="M139 1374h184l272 -600q29 -61 41 -134l491 734h169l-528 -758h233q-2 -23 -15.5 -66.5t-15.5 -49.5h-278l-9 -77h282q-2 -17 -7 -36.5t-12.5 -43t-10.5 -36.5h-267l-37 -307h-162l37 307h-287q1 3 13.5 48t16.5 68h272l9 77h-276q2 9 14.5 51t16.5 65h197z" />
<glyph unicode="&#xa6;" horiz-adv-x="557" d="M91 -410l99 809h154l-99 -809h-154zM230 727l99 809h154l-99 -809h-154z" />
<glyph unicode="&#xa7;" horiz-adv-x="1038" d="M9.5 -270q-0.5 16 2.5 49q200 -86 364 -86q126 0 215 58t100 149q10 80 -31 131t-157 99l-175 80q-212 97 -212 266q0 122 88 215.5t237 132.5l-38 16q-110 47 -163 111t-53 151q0 159 137.5 266t347.5 107q76 0 152 -14t114 -28l38 -14q-3 -25 -17.5 -72t-16.5 -53 q-13 6 -36 16t-94 26t-142 16q-133 0 -222 -65t-89 -159q0 -107 151 -172l182 -84q147 -64 201.5 -139.5t40.5 -191.5q-13 -109 -97.5 -189t-216.5 -118q143 -63 199.5 -139t41.5 -196q-18 -145 -153.5 -237t-325.5 -92q-205 0 -367 62q0 17 -2.5 49.5t-3 48.5zM257 506 q0 -58 40 -103t128 -83l23 -10q145 4 239.5 63.5t105.5 147.5q10 77 -29 128.5t-147 99.5q-154 -1 -257 -71t-103 -172z" />
<glyph unicode="&#xa8;" horiz-adv-x="593" d="M161 1393q4 42 33.5 70.5t66.5 28.5t60 -28.5t19 -70.5q-4 -41 -34 -68.5t-67 -27.5t-59.5 27t-18.5 69zM467 1393q4 42 34.5 70.5t65.5 28.5t58.5 -28.5t19.5 -70.5q-4 -41 -34 -68.5t-66 -27.5q-35 0 -58.5 27.5t-19.5 68.5z" />
<glyph unicode="&#xa9;" horiz-adv-x="1736" d="M135 718q25 206 148 380.5t310 276t393 101.5t367.5 -101.5t241.5 -276t55 -380.5t-148 -380.5t-309.5 -275.5t-392.5 -101q-154 0 -287 60t-222 161t-132 241.5t-24 294.5zM277 718q-21 -171 44.5 -315.5t196.5 -228t297 -83.5q124 0 243.5 49.5t213 133t157 200 t79.5 244.5t-19 244.5t-108 200t-180.5 133t-231.5 49.5q-166 0 -317.5 -83.5t-252.5 -228t-122 -315.5zM507 663q0 123 64 226.5t169 162t225 58.5q128 0 224 -45q-2 -19 -12.5 -54t-12.5 -41q-87 45 -191 45q-144 0 -244.5 -98t-100.5 -241q0 -116 73 -187t197 -71 q22 0 44 2t39.5 5.5t34.5 8.5t30.5 10t25 10t20.5 10t15 8.5t9 5.5l3 2q-2 -16 -6.5 -34.5t-11 -40.5t-9.5 -34l-4 -1q-3 -2 -9 -5t-15 -6.5t-21 -7.5t-25.5 -8t-30.5 -7.5t-35.5 -6.5t-40 -4.5t-43.5 -1.5q-164 0 -262.5 95t-98.5 245z" />
<glyph unicode="&#xaa;" horiz-adv-x="696" d="M84 677q12 99 90 150.5t198 51.5h110l3 17q22 153 -123 153q-43 0 -89 -15.5t-70 -31.5l-24 -15q0 8 -2.5 48.5t0.5 48.5q10 7 29.5 16.5t77.5 26t116 16.5q119 0 173.5 -60t36.5 -176l-39 -264q-9 -54 37 -54q12 0 21.5 3.5t13.5 7.5l4 4q-2 -20 -11.5 -50t-10.5 -34 q-25 -16 -67 -16q-49 0 -76 26t-26 77q-79 -103 -202 -103q-86 0 -133 47.5t-37 125.5zM203 699q-6 -46 19.5 -73.5t75.5 -27.5q70 0 114.5 54t54.5 126l4 28h-99q-73 0 -117.5 -28t-51.5 -79z" />
<glyph unicode="&#xab;" horiz-adv-x="1042" d="M77 512l320 369h138l-291 -369l201 -369h-138zM529 512l320 369h138l-291 -369l201 -369h-138z" />
<glyph unicode="&#xac;" horiz-adv-x="1280" d="M138 657v119h1038v-119h-28v-370h-125v370h-885z" />
<glyph unicode="&#xad;" horiz-adv-x="743" d="M55 456l13 112h620l-13 -112h-620z" />
<glyph unicode="&#xae;" horiz-adv-x="1736" d="M135 718q25 206 148 380.5t310 276t393 101.5q154 0 287 -60t222 -161.5t131.5 -242t23.5 -294.5t-96 -294.5t-190.5 -241.5t-261.5 -161t-302 -60t-287 60t-222 161t-132 241.5t-24 294.5zM277 718q-21 -171 44.5 -315.5t196.5 -228t297 -83.5q124 0 243.5 49.5t213 133 t157 200t79.5 244.5t-19 244.5t-108 200t-180.5 133t-231.5 49.5q-166 0 -317.5 -83.5t-252.5 -228t-122 -315.5zM606 332l93 761q110 15 212 15q137 0 213 -55.5t76 -156.5q0 -90 -50.5 -156.5t-142.5 -98.5q28 -31 53 -82l118 -227l-135 -7l-150 293l-45 -2q-45 0 -87 6 l-36 -290h-119zM760 707q40 -8 94 -8q109 0 170 50t61 134q0 63 -46.5 97.5t-129.5 34.5l-111 -5z" />
<glyph unicode="&#xaf;" horiz-adv-x="598" d="M141 1315l15 111h524q-3 -22 -16.5 -64t-14.5 -47h-508z" />
<glyph unicode="&#xb0;" horiz-adv-x="790" d="M215 1189q13 109 100.5 187t194.5 78q109 0 177.5 -78t55.5 -187q-14 -107 -101.5 -185t-196.5 -78q-107 0 -175 78t-55 185zM335 1189q-7 -61 29.5 -104.5t94.5 -43.5q59 0 107.5 43.5t55.5 104.5q7 63 -29.5 106.5t-96.5 43.5q-58 0 -106 -44t-55 -106z" />
<glyph unicode="&#xb1;" horiz-adv-x="1351" d="M146 1v118h1039v-118h-1039zM146 728v119h458v460h124v-460h457v-119h-457v-460h-124v460h-458z" />
<glyph unicode="&#xb2;" horiz-adv-x="722" d="M175 1030q-2 40 1 46q2 2 29 24.5t47.5 40t56.5 49t65 60t64.5 64t62 69t51 68t39 67t17.5 60.5q8 62 -23.5 97.5t-99.5 35.5q-30 0 -63 -10t-58.5 -24.5t-46 -29.5t-31.5 -25l-12 -10q-3 98 -1 110q14 13 43.5 31.5t89 38.5t118.5 20q115 0 175 -59.5t47 -164.5 q-7 -58 -39 -120.5t-72 -111t-93.5 -99t-91.5 -80t-79.5 -60.5t-44.5 -33h358q-2 -14 -6.5 -31.5t-10.5 -38.5t-9 -31h-481q0 7 -2 47z" />
<glyph unicode="&#xb3;" horiz-adv-x="722" d="M177.5 1068.5q-2.5 50.5 1.5 55.5l4 -2q4 -3 9 -5.5t13.5 -7t19 -8.5t22.5 -8.5t27 -8t30.5 -7t34 -5t37.5 -1.5q76 0 128 40t60 105q8 61 -37 98.5t-127 37.5l-63 -3q0 10 -1 30.5t-1 38t2 30.5q24 -3 68 -3q85 0 137.5 37t60.5 102q7 57 -31 91.5t-112 34.5 q-47 0 -95 -16t-72 -32l-24 -15q0 5 -2 51t1 51q14 10 38.5 22t79.5 25.5t113 13.5q119 0 183.5 -60t52.5 -156q-8 -61 -50 -113.5t-110 -79.5q69 -25 103 -76.5t26 -120.5q-13 -107 -101.5 -170t-221.5 -63q-28 0 -54.5 3t-45.5 6.5t-38 9t-28.5 9t-21.5 9t-13 5.5 q0 5 -2.5 55.5z" />
<glyph unicode="&#xb4;" horiz-adv-x="477" d="M138 1239l188 297q10 1 87.5 10t117.5 9l-263 -316h-130z" />
<glyph unicode="&#xb5;" horiz-adv-x="1173" d="M62 -419q5 72 13 141l69 560l1 9l74 602q4 31 5.5 60.5t1.5 43.5l-1 14q25 0 52.5 4t61.5 10.5t53 9.5q-5 -73 -13 -142l-70 -575q-11 -96 19.5 -149t100.5 -53q94 0 185 73t150 183t73 223l53 429h160l-92 -748l-14 -117q-4 -31 9.5 -48.5t41.5 -17.5q16 0 33.5 5.5 t27.5 11.5l9 6q0 -2 -18 -103q-63 -34 -146 -34q-65 0 -96.5 38.5t-23.5 108.5l17 150l4 32q-80 -139 -206 -233.5t-252 -94.5q-41 0 -77 11l-32 -269q-4 -31 -5.5 -60.5t-0.5 -43.5l1 -14q-25 0 -52.5 -3.5t-62.5 -10t-53 -9.5z" />
<glyph unicode="&#xb6;" horiz-adv-x="1021" d="M136 965q6 126 76.5 234.5t183 171.5t237.5 63h446l-197 -1598h-117l180 1464h-211l-180 -1464h-118l88 714q-173 0 -285 121t-103 294z" />
<glyph unicode="&#xb7;" horiz-adv-x="444" d="M145 766q5 46 40 77.5t81 31.5t74 -31.5t23 -77.5q-5 -47 -40.5 -78.5t-81.5 -31.5t-73.5 31.5t-22.5 78.5z" />
<glyph unicode="&#xb8;" horiz-adv-x="405" d="M-52.5 -336q-2.5 46 0.5 55q5 -10 33.5 -21t62.5 -11q45 0 74 21.5t33 58.5q4 34 -19.5 56t-69.5 22q-38 0 -51 -7l92 188l80 -26l-50 -102q72 -5 109.5 -45t29.5 -106q-9 -72 -67 -118.5t-143 -46.5q-70 0 -112 26q0 10 -2.5 56z" />
<glyph unicode="&#xb9;" horiz-adv-x="722" d="M320 1627.5q0 18.5 2 35.5q104 40 232 139l78 -6l-100 -813h-135l79 658q-79 -51 -154 -87q0 12 -1 33.5t-1 40z" />
<glyph unicode="&#xba;" horiz-adv-x="792" d="M101 816q18 145 118.5 236t240.5 91q134 0 207.5 -86t56.5 -224q-18 -145 -118.5 -237t-240.5 -92q-134 0 -207.5 87t-56.5 225zM230 821q-12 -98 31.5 -160.5t122.5 -62.5q81 0 139.5 63.5t70.5 164.5q12 98 -30.5 160.5t-121.5 62.5q-81 0 -140.5 -64t-71.5 -164z" />
<glyph unicode="&#xbb;" horiz-adv-x="1042" d="M55 143l291 369l-201 369h138l230 -369l-321 -369h-137zM507 143l291 369l-201 369h138l230 -369l-320 -369h-138z" />
<glyph unicode="&#xbc;" horiz-adv-x="1712" d="M283 1184.5q0 18.5 2 35.5q101 39 232 140l78 -6l-101 -813h-135l80 657q-73 -47 -154 -86q0 12 -1 33t-1 39.5zM407 -56l952 1529l101 -64l-951 -1528zM1040 278l319 538h142l-314 -520h221l59 319l94 6l-39 -319h116q-2 -15 -6.5 -31.5t-11 -36.5t-9.5 -32h-95 l-25 -202h-127l25 202h-347q-3 70 -2 76z" />
<glyph unicode="&#xbd;" horiz-adv-x="1843" d="M283 1184.5q0 18.5 2 35.5q101 39 232 140l78 -6l-101 -813h-135l80 657q-73 -47 -154 -86q0 12 -1 33t-1 39.5zM407 -56l952 1529l101 -64l-951 -1528zM1178.5 47q-1.5 45 1.5 46q1 1 29 24t47.5 40t56.5 49.5t65 60t63.5 64t62 69.5t51 67.5t39 67t17.5 60.5 q8 62 -23.5 97.5t-99.5 35.5q-48 0 -101 -25t-81 -49l-29 -25q-3 98 -1 110q14 13 43.5 31.5t89 38.5t118.5 20q115 0 175 -60t47 -164q-7 -58 -39 -120.5t-72 -111t-93.5 -99t-91.5 -80t-79.5 -60.5t-44.5 -33h358q-3 -21 -26 -101h-481q0 2 -1.5 47z" />
<glyph unicode="&#xbe;" horiz-adv-x="1734" d="M132.5 626.5q-2.5 50.5 1.5 55.5l4 -2q4 -3 9 -5.5t13.5 -7t19 -8.5t22.5 -8.5t27 -8t30.5 -7t34 -5t37.5 -1.5q76 0 128 40t60 105q8 61 -37 98.5t-127 37.5l-63 -4q0 10 -1 31t-1 38.5t2 30.5q24 -4 68 -4q85 0 137.5 37.5t60.5 102.5q7 57 -31 91t-112 34 q-47 0 -95 -15.5t-72 -31.5l-24 -16q0 5 -2 51.5t1 51.5q14 10 38.5 22t79.5 25.5t113 13.5q119 0 183.5 -59.5t52.5 -156.5q-8 -61 -50 -114t-110 -80q69 -25 103 -76t26 -120q-13 -107 -101.5 -170.5t-221.5 -63.5q-28 0 -54.5 3t-45.5 6.5t-38 9.5t-29 10t-21.5 9 t-12.5 5q0 5 -2.5 55.5zM429 -56l951 1529l102 -64l-951 -1528zM1062 278l319 538h142l-314 -520h221l59 319l94 6l-39 -319h116q-2 -15 -6.5 -31.5t-11 -36.5t-9.5 -32h-95l-25 -202h-127l24 202h-346q-3 69 -2 76z" />
<glyph unicode="&#xbf;" horiz-adv-x="919" d="M34 -132q9 106 69 170.5t175 107.5l153 58q81 31 116.5 69t40.5 93q6 74 -41 118.5t-132 44.5q-46 0 -87.5 -12.5t-59.5 -24.5l-18 -13q0 14 -2 42.5t-2 41t2 42.5q9 5 26 12.5t69 20t104 12.5q140 0 217.5 -81t64.5 -217q-8 -88 -60.5 -150t-158.5 -104l-178 -71 q-74 -28 -111.5 -66t-41.5 -98q-5 -70 50.5 -113t155.5 -43q69 0 136.5 21.5t100.5 43.5l34 21q3 -110 0 -132q-5 -4 -15.5 -9.5t-42.5 -20.5t-65 -26.5t-81 -21t-94 -9.5q-158 0 -247 80t-77 214zM395 962q5 47 40.5 78.5t81.5 31.5t73 -31.5t22 -78.5q-5 -46 -40 -77.5 t-81 -31.5t-73.5 31.5t-22.5 77.5z" />
<glyph unicode="&#xc0;" horiz-adv-x="1331" d="M-22 0l728 1434q85 0 153 9l377 -1443h-182l-104 413h-595l-204 -413h-173zM405 532h524l-174 715zM557 1877q6 1 66.5 13t91.5 12l137 -320h-118z" />
<glyph unicode="&#xc1;" horiz-adv-x="1331" d="M-22 0l728 1434q85 0 153 9l377 -1443h-182l-104 413h-595l-204 -413h-173zM405 532h524l-174 715zM744 1582l188 296q10 1 87.5 10t117.5 9l-264 -315h-129z" />
<glyph unicode="&#xc2;" horiz-adv-x="1331" d="M-22 0l728 1434q85 0 153 9l377 -1443h-182l-104 413h-595l-204 -413h-173zM405 532h524l-174 715zM527 1598l261 299h82l193 -307h-117l-134 162l-183 -173q-16 0 -32.5 3t-38 8.5t-31.5 7.5z" />
<glyph unicode="&#xc3;" horiz-adv-x="1331" d="M-22 0l728 1434q85 0 153 9l377 -1443h-182l-104 413h-595l-204 -413h-173zM405 532h524l-174 715zM531 1621l1 13q1 12 3 21.5t5 27t8.5 32t13.5 31.5t19 30t25 24t33.5 17t42.5 6q50 0 123 -44q62 -37 100 -37q20 0 36.5 8t25 20t14 24t7.5 20l2 8q12 0 24 -2t27 -5.5 t23 -4.5q0 -1 -1 -12.5t-3 -22t-5 -27.5t-8.5 -31.5t-13 -31.5t-18.5 -30t-25 -24t-33.5 -17t-42.5 -6q-52 0 -127 45q-59 36 -97 36q-32 0 -53 -20t-26 -40l-5 -20q-8 1 -23.5 4.5t-28 5.5t-23.5 2z" />
<glyph unicode="&#xc4;" horiz-adv-x="1331" d="M-22 0l728 1434q85 0 153 9l377 -1443h-182l-104 413h-595l-204 -413h-173zM405 532h524l-174 715zM566 1736q4 42 34 70.5t67 28.5t59.5 -28.5t18.5 -70.5q-4 -41 -33.5 -68.5t-66.5 -27.5t-60 27.5t-19 68.5zM872 1736q4 42 34.5 70.5t65.5 28.5t58.5 -28.5t19.5 -70.5 q-4 -41 -34 -68.5t-66 -27.5q-35 0 -58.5 27.5t-19.5 68.5z" />
<glyph unicode="&#xc5;" horiz-adv-x="1331" d="M-22 0l722 1422q-52 22 -79 69.5t-20 106.5q10 78 75.5 134.5t148.5 56.5t132.5 -56t39.5 -135q-7 -56 -43.5 -102t-90.5 -70l373 -1426h-182l-104 413h-595l-204 -413h-173zM405 532h524l-174 715zM708 1594q-5 -38 17 -62.5t59 -24.5q40 0 70.5 27t35.5 68 q5 38 -15.5 63t-57.5 25q-41 0 -72.5 -28t-36.5 -68z" />
<glyph unicode="&#xc6;" horiz-adv-x="1607" d="M-33 0l847 1434h15h779l-18 -136h-585l19 -510h433q-3 -20 -8.5 -42t-14.5 -51.5t-12 -41.5h-386l20 -517h429l-18 -136h-564l-21 401h-501l-232 -401h-182zM442 520h434l-37 719z" />
<glyph unicode="&#xc7;" horiz-adv-x="1316" d="M126 608q0 175 66.5 334.5t177 272.5t258 179.5t304.5 66.5q73 0 141.5 -10t113.5 -23.5t79 -27.5t50 -24l16 -10q-3 -21 -9 -44.5t-15.5 -53.5t-13.5 -45l-16.5 11t-46 24.5t-74 31t-99 24.5t-122.5 11q-101 0 -197 -34.5t-175.5 -98t-139.5 -148.5t-93.5 -193 t-33.5 -224q0 -230 131 -374.5t352 -144.5q74 0 144.5 14t119 34t86.5 40.5t56 34.5l19 14q-3 -25 -10 -52.5t-17 -61.5t-15 -52q-6 -4 -17.5 -10.5t-50.5 -23.5t-80.5 -30.5t-106 -25.5t-129.5 -15l-37 -76q72 -5 109.5 -45t29.5 -106q-9 -72 -67 -118.5t-143 -46.5 q-70 0 -112 26q0 7 -2 56.5t1 54.5q6 -10 34 -21t62 -11q44 0 73 21.5t33 58.5q4 34 -19.5 56t-69.5 22q-38 0 -51 -7l67 137q-257 17 -409 192t-152 441z" />
<glyph unicode="&#xc8;" horiz-adv-x="1114" d="M140 0l176 1434h777l-18 -136h-607l-61 -509h534q-3 -19 -9 -42.5t-14 -51.5l-12 -42h-517l-62 -517h642l-17 -136h-812zM496 1877q5 1 66.5 13t92.5 12l136 -320h-118z" />
<glyph unicode="&#xc9;" horiz-adv-x="1114" d="M140 0l176 1434h777l-18 -136h-607l-61 -509h534q-3 -19 -9 -42.5t-14 -51.5l-12 -42h-517l-62 -517h642l-17 -136h-812zM683 1582l189 296q10 1 87.5 10t117.5 9l-264 -315h-130z" />
<glyph unicode="&#xca;" horiz-adv-x="1114" d="M140 0l176 1434h777l-18 -136h-607l-61 -509h534q-3 -19 -9 -42.5t-14 -51.5l-12 -42h-517l-62 -517h642l-17 -136h-812zM467 1598l261 299h82l193 -307h-118l-134 162l-182 -173q-16 0 -32.5 3t-38 8.5t-31.5 7.5z" />
<glyph unicode="&#xcb;" horiz-adv-x="1114" d="M140 0l176 1434h777l-18 -136h-607l-61 -509h534q-3 -19 -9 -42.5t-14 -51.5l-12 -42h-517l-62 -517h642l-17 -136h-812zM506 1736q4 42 33.5 70.5t66.5 28.5t60 -28.5t19 -70.5q-4 -41 -33.5 -68.5t-66.5 -27.5t-60 27.5t-19 68.5zM812 1736q4 42 34.5 70.5t65.5 28.5 t58.5 -28.5t19.5 -70.5q-4 -41 -34 -68.5t-66 -27.5q-35 0 -58.5 27.5t-19.5 68.5z" />
<glyph unicode="&#xcc;" horiz-adv-x="571" d="M140 0l176 1434h170l-176 -1434h-170zM181 1877q6 1 66.5 13t91.5 12l137 -320h-118z" />
<glyph unicode="&#xcd;" horiz-adv-x="571" d="M140 0l176 1434h170l-176 -1434h-170zM368 1582l188 296q10 1 87.5 10t117.5 9l-264 -315h-129z" />
<glyph unicode="&#xce;" horiz-adv-x="571" d="M140 0l176 1434h170l-176 -1434h-170zM152 1598l261 299h81l193 -307h-117l-134 162l-183 -173q-16 0 -32.5 3t-37.5 8.5t-31 7.5z" />
<glyph unicode="&#xcf;" horiz-adv-x="571" d="M140 0l176 1434h170l-176 -1434h-170zM190 1736q4 42 34 70.5t67 28.5t59.5 -28.5t18.5 -70.5q-4 -41 -33.5 -68.5t-66.5 -27.5t-60 27.5t-19 68.5zM496 1736q4 42 34.5 70.5t65.5 28.5t59 -28.5t20 -70.5q-4 -41 -34.5 -68.5t-66.5 -27.5q-35 0 -58.5 27.5t-19.5 68.5z " />
<glyph unicode="&#xd0;" horiz-adv-x="1611" d="M87 662l10 110h165l80 657q220 17 449 17q307 0 477.5 -156t170.5 -436q0 -183 -65.5 -343.5t-179.5 -275.5t-277 -181.5t-350 -66.5q-74 0 -173.5 4.5t-161.5 8.5l-63 4l80 658h-162zM355 137q147 -12 258 -12q179 0 321 83.5t225.5 229t99.5 331.5q25 255 -102 398 t-370 143q-65 0 -138 -3t-113 -5l-41 -3l-63 -527h436q-1 -17 -5.5 -35t-11 -40.5t-9.5 -34.5h-424z" />
<glyph unicode="&#xd1;" horiz-adv-x="1538" d="M140 0l176 1434q13 1 54 4.5t63 3.5l717 -1165q6 96 15 169l119 987h170l-176 -1433h-117l-718 1165q-7 -112 -12 -154l-121 -1011h-170zM651 1621q0 1 1 12.5t3 22t5 27.5t8.5 31.5t13 31.5t18.5 30t25 24t33.5 17t42.5 6q51 0 124 -44q62 -37 100 -37q32 0 53 20t26 40 l5 20q12 0 24.5 -2t27.5 -5.5t23 -4.5l-1 -12q-1 -13 -3 -22.5t-5 -27t-8.5 -32t-13.5 -31.5t-19 -30t-25 -24t-33.5 -17t-42.5 -6q-51 0 -126 45q-58 36 -97 36q-32 0 -53 -20t-27 -40l-5 -20q-8 1 -23 4.5t-27.5 5.5t-23.5 2z" />
<glyph unicode="&#xd2;" d="M126 605q0 179 64.5 338.5t172.5 272.5t254.5 179t306.5 66q259 0 420.5 -179t161.5 -458q0 -236 -105.5 -431.5t-289 -307.5t-403.5 -112q-176 0 -309 81.5t-203 224.5t-70 326zM298 626q0 -228 119.5 -373t317.5 -145q165 0 302.5 91.5t217.5 251.5t80 352 q0 228 -122 375t-315 147q-119 0 -228.5 -54t-191.5 -146t-131 -222.5t-49 -276.5zM699 1878q18 3 50 9.5t58.5 10.5t49.5 4l137 -320h-118z" />
<glyph unicode="&#xd3;" d="M126 605q0 179 64.5 338.5t172.5 272.5t254.5 179t306.5 66q259 0 420.5 -179t161.5 -458q0 -236 -105.5 -431.5t-289 -307.5t-403.5 -112q-176 0 -309 81.5t-203 224.5t-70 326zM298 626q0 -228 119.5 -373t317.5 -145q165 0 302.5 91.5t217.5 251.5t80 352 q0 228 -122 375t-315 147q-119 0 -228.5 -54t-191.5 -146t-131 -222.5t-49 -276.5zM886 1582l188 297q10 1 87.5 10t117.5 9l-263 -316h-130z" />
<glyph unicode="&#xd4;" d="M126 605q0 179 64.5 338.5t172.5 272.5t254.5 179t306.5 66q259 0 420.5 -179t161.5 -458q0 -236 -105.5 -431.5t-289 -307.5t-403.5 -112q-176 0 -309 81.5t-203 224.5t-70 326zM298 626q0 -228 119.5 -373t317.5 -145q165 0 302.5 91.5t217.5 251.5t80 352 q0 228 -122 375t-315 147q-119 0 -228.5 -54t-191.5 -146t-131 -222.5t-49 -276.5zM670 1599l261 298h82l193 -306h-118l-134 162l-182 -174q-16 0 -33 3t-37.5 9t-31.5 8z" />
<glyph unicode="&#xd5;" d="M126 605q0 179 64.5 338.5t172.5 272.5t254.5 179t306.5 66q259 0 420.5 -179t161.5 -458q0 -236 -105.5 -431.5t-289 -307.5t-403.5 -112q-176 0 -309 81.5t-203 224.5t-70 326zM298 626q0 -228 119.5 -373t317.5 -145q165 0 302.5 91.5t217.5 251.5t80 352 q0 228 -122 375t-315 147q-119 0 -228.5 -54t-191.5 -146t-131 -222.5t-49 -276.5zM673 1621l1 13q1 12 3 21.5t5 27t8.5 32t13.5 31.5t19 30t25 24t33.5 17t42.5 6q51 0 124 -44q62 -37 99 -37q20 0 36.5 8t25 20t14 24t7.5 20l2 8q6 0 75 -11l-1 -13q-1 -12 -3 -21.5 t-5 -27t-8.5 -32t-13.5 -31.5t-19 -30t-25 -24t-33.5 -17t-42.5 -6q-54 0 -127 44q-59 37 -96 37q-20 0 -36.5 -8t-25 -20t-14 -24t-7.5 -20l-2 -8q-69 11 -75 11z" />
<glyph unicode="&#xd6;" d="M126 605q0 179 64.5 338.5t172.5 272.5t254.5 179t306.5 66q259 0 420.5 -179t161.5 -458q0 -236 -105.5 -431.5t-289 -307.5t-403.5 -112q-176 0 -309 81.5t-203 224.5t-70 326zM298 626q0 -228 119.5 -373t317.5 -145q165 0 302.5 91.5t217.5 251.5t80 352 q0 228 -122 375t-315 147q-119 0 -228.5 -54t-191.5 -146t-131 -222.5t-49 -276.5zM709 1736q4 42 33.5 71t66.5 29t59.5 -29t18.5 -71q-4 -41 -33.5 -68.5t-66.5 -27.5t-59.5 27t-18.5 69zM1014 1736q4 42 35 71t66 29t58.5 -29t19.5 -71q-4 -41 -34 -68.5t-66 -27.5 t-59.5 27.5t-19.5 68.5z" />
<glyph unicode="&#xd7;" horiz-adv-x="1302" d="M273 1034l88 84l718 -718l-88 -84z" />
<glyph unicode="&#xd8;" d="M70 0l182 189q-126 170 -126 416q0 179 64.5 338.5t172.5 272.5t254.5 179t306.5 66q245 0 404 -161l130 134h139l-205 -212q114 -167 114 -398q0 -236 -105.5 -431.5t-289 -307.5t-403.5 -112q-233 0 -388 142l-111 -115h-139zM298 626q0 -179 76 -311l838 865 q-121 145 -314 145q-119 0 -228.5 -54t-191.5 -146t-131 -222.5t-49 -276.5zM435 234q120 -126 300 -126q165 0 302.5 91.5t217.5 251.5t80 352q0 166 -66 292z" />
<glyph unicode="&#xd9;" horiz-adv-x="1505" d="M210 586l104 848h170l-105 -848q-27 -220 63 -349t270 -129t300.5 129t147.5 349l104 848h160l-104 -848q-35 -285 -202 -449t-424 -164q-262 0 -390.5 163.5t-93.5 449.5zM659 1877q5 1 66.5 13t92.5 12l136 -320h-118z" />
<glyph unicode="&#xda;" horiz-adv-x="1505" d="M210 586l104 848h170l-105 -848q-27 -220 63 -349t270 -129t300.5 129t147.5 349l104 848h160l-104 -848q-35 -285 -202 -449t-424 -164q-262 0 -390.5 163.5t-93.5 449.5zM846 1582l188 296q9 1 87.5 10t118.5 9l-264 -315h-130z" />
<glyph unicode="&#xdb;" horiz-adv-x="1505" d="M210 586l104 848h170l-105 -848q-27 -220 63 -349t270 -129t300.5 129t147.5 349l104 848h160l-104 -848q-35 -285 -202 -449t-424 -164q-262 0 -390.5 163.5t-93.5 449.5zM630 1598l261 299h82l193 -307h-118l-134 162l-182 -173q-16 0 -32.5 3t-38 8.5t-31.5 7.5z" />
<glyph unicode="&#xdc;" horiz-adv-x="1505" d="M210 586l104 848h170l-105 -848q-27 -220 63 -349t270 -129t300.5 129t147.5 349l104 848h160l-104 -848q-35 -285 -202 -449t-424 -164q-262 0 -390.5 163.5t-93.5 449.5zM669 1736q4 42 33.5 70.5t66.5 28.5t59.5 -28.5t18.5 -70.5q-4 -41 -33.5 -68.5t-66.5 -27.5 t-59.5 27t-18.5 69zM974 1736q4 42 34.5 70.5t66.5 28.5q35 0 58.5 -28.5t19.5 -70.5q-4 -41 -34 -68.5t-66 -27.5t-59.5 27.5t-19.5 68.5z" />
<glyph unicode="&#xdd;" horiz-adv-x="1224" d="M146 1434h193l257 -627q30 -68 41 -136l483 763h177l-601 -904l-65 -530h-170l66 530zM717 1582l188 296q9 1 87.5 10t118.5 9l-264 -315h-130z" />
<glyph unicode="&#xde;" horiz-adv-x="1226" d="M249 0l59 1171l12 263h169l-11 -248q98 7 184 7q243 0 379 -108.5t136 -304.5q0 -232 -153 -366.5t-427 -134.5q-88 0 -164 10l-15 -289h-169zM425 429q85 -17 181 -17q195 0 301 95t106 258q0 141 -93 218t-259 77q-52 0 -105 -2.5t-80 -5.5l-26 -2z" />
<glyph unicode="&#xdf;" horiz-adv-x="1101" d="M108 0l124 1015q30 245 159.5 383t321.5 138q136 0 226.5 -75t90.5 -203q0 -84 -28 -146.5t-91 -127.5l-45 -47q-25 -25 -37.5 -40.5t-24 -43t-11.5 -60.5q0 -37 16 -67t51 -73l77 -94q98 -122 98 -243q0 -142 -98 -239t-258 -97q-68 0 -130.5 17t-90.5 34l-28 17 q0 14 -2.5 62t0.5 62q4 -3 11.5 -8t31 -18.5t48.5 -23.5t62 -18t73 -8q97 0 154.5 58t57.5 142q0 85 -76 181l-71 85q-46 58 -67.5 102t-21.5 101q0 70 27 119t77 102l47 50q53 53 74 99.5t21 105.5q0 78 -50 127t-130 49q-121 0 -202.5 -112.5t-104.5 -310.5l-122 -994 h-159z" />
<glyph unicode="&#xe0;" horiz-adv-x="1130" d="M79 364q0 188 74.5 343.5t207.5 246t297 90.5q79 0 152.5 -16.5t122.5 -32.5t69 -16l-2 -10l-85 -693l-14 -117q-4 -31 9.5 -48.5t41.5 -17.5q16 0 33.5 5.5t27.5 11.5l10 6q-2 -19 -10 -58t-9 -45q-63 -34 -146 -34q-65 0 -96.5 38.5t-23.5 108.5l15 129 q-65 -125 -165.5 -200t-213.5 -75q-135 0 -215 103.5t-80 280.5zM245 398q0 -140 57.5 -216t149.5 -76q115 0 210.5 124t126.5 317l42 347q-96 32 -178 32q-96 0 -175 -43.5t-129 -117.5t-77 -168.5t-27 -198.5zM414 1535q18 3 50 9.5t58.5 10.5t49.5 4l137 -320h-118z" />
<glyph unicode="&#xe1;" horiz-adv-x="1130" d="M79 364q0 188 74.5 343.5t207.5 246t297 90.5q79 0 152.5 -16.5t122.5 -32.5t69 -16l-2 -10l-85 -693l-14 -117q-4 -31 9.5 -48.5t41.5 -17.5q16 0 33.5 5.5t27.5 11.5l10 6q-2 -19 -10 -58t-9 -45q-63 -34 -146 -34q-65 0 -96.5 38.5t-23.5 108.5l15 129 q-65 -125 -165.5 -200t-213.5 -75q-135 0 -215 103.5t-80 280.5zM245 398q0 -140 57.5 -216t149.5 -76q115 0 210.5 124t126.5 317l42 347q-96 32 -178 32q-96 0 -175 -43.5t-129 -117.5t-77 -168.5t-27 -198.5zM604 1239l188 297q9 1 87.5 10t118.5 9l-264 -316h-130z" />
<glyph unicode="&#xe2;" horiz-adv-x="1130" d="M79 364q0 188 74.5 343.5t207.5 246t297 90.5q79 0 152.5 -16.5t122.5 -32.5t69 -16l-2 -10l-85 -693l-14 -117q-4 -31 9.5 -48.5t41.5 -17.5q16 0 33.5 5.5t27.5 11.5l10 6q-2 -19 -10 -58t-9 -45q-63 -34 -146 -34q-65 0 -96.5 38.5t-23.5 108.5l15 129 q-65 -125 -165.5 -200t-213.5 -75q-135 0 -215 103.5t-80 280.5zM245 398q0 -140 57.5 -216t149.5 -76q115 0 210.5 124t126.5 317l42 347q-96 32 -178 32q-96 0 -175 -43.5t-129 -117.5t-77 -168.5t-27 -198.5zM393 1256l261 298h82l193 -306h-117l-134 161l-183 -173 q-16 0 -33 3t-37.5 9t-31.5 8z" />
<glyph unicode="&#xe3;" horiz-adv-x="1130" d="M79 364q0 188 74.5 343.5t207.5 246t297 90.5q79 0 152.5 -16.5t122.5 -32.5t69 -16l-2 -10l-85 -693l-14 -117q-4 -31 9.5 -48.5t41.5 -17.5q16 0 33.5 5.5t27.5 11.5l10 6q-2 -19 -10 -58t-9 -45q-63 -34 -146 -34q-65 0 -96.5 38.5t-23.5 108.5l15 129 q-65 -125 -165.5 -200t-213.5 -75q-135 0 -215 103.5t-80 280.5zM245 398q0 -140 57.5 -216t149.5 -76q115 0 210.5 124t126.5 317l42 347q-96 32 -178 32q-96 0 -175 -43.5t-129 -117.5t-77 -168.5t-27 -198.5zM392 1286q0 1 1 11t2 19t4 24t6.5 27.5t10 28t14 28t19 25 t25 21t31.5 13.5t38 5q51 0 124 -44q62 -37 99 -37q32 0 53 20t27 40l5 20q12 0 24.5 -2t27.5 -5.5t23 -4.5q0 -1 -1 -11t-2 -18.5t-4 -23.5t-6.5 -27.5t-10 -28.5t-14 -28t-19 -24.5t-25 -21t-31.5 -13.5t-38 -5q-54 0 -127 44q-59 37 -97 37q-32 0 -53 -20.5t-26 -40.5 l-5 -20q-8 1 -23.5 4.5t-28 5.5t-23.5 2z" />
<glyph unicode="&#xe4;" horiz-adv-x="1130" d="M79 364q0 188 74.5 343.5t207.5 246t297 90.5q79 0 152.5 -16.5t122.5 -32.5t69 -16l-2 -10l-85 -693l-14 -117q-4 -31 9.5 -48.5t41.5 -17.5q16 0 33.5 5.5t27.5 11.5l10 6q-2 -19 -10 -58t-9 -45q-63 -34 -146 -34q-65 0 -96.5 38.5t-23.5 108.5l15 129 q-65 -125 -165.5 -200t-213.5 -75q-135 0 -215 103.5t-80 280.5zM246 398q0 -140 57 -216t149 -76q115 0 210.5 124t126.5 317l42 347q-96 32 -178 32q-96 0 -174.5 -43.5t-128.5 -117.5t-77 -168.5t-27 -198.5zM405 1393q4 42 33.5 70.5t66.5 28.5t59.5 -28.5t18.5 -70.5 q-4 -41 -33.5 -68.5t-66.5 -27.5t-59.5 27t-18.5 69zM710 1393q4 42 34.5 70.5t66.5 28.5q35 0 58.5 -28.5t19.5 -70.5q-4 -41 -34 -68.5t-66 -27.5t-59.5 27.5t-19.5 68.5z" />
<glyph unicode="&#xe5;" horiz-adv-x="1130" d="M79 364q0 188 74.5 343.5t207.5 246t297 90.5q79 0 152.5 -16.5t122.5 -32.5t69 -16l-2 -10l-85 -693l-14 -117q-4 -31 9.5 -48.5t41.5 -17.5q16 0 33.5 5.5t27.5 11.5l10 6q-2 -19 -10 -58t-9 -45q-63 -34 -146 -34q-65 0 -96.5 38.5t-23.5 108.5l15 129 q-65 -125 -165.5 -200t-213.5 -75q-135 0 -215 103.5t-80 280.5zM245 398q0 -140 57.5 -216t149.5 -76q115 0 210.5 124t126.5 317l42 347q-96 32 -178 32q-96 0 -175 -43.5t-129 -117.5t-77 -168.5t-27 -198.5zM479 1395q10 78 75.5 134.5t148.5 56.5t132.5 -56t39.5 -135 t-74 -134.5t-147 -55.5t-134 56t-41 134zM586 1391q-5 -38 16.5 -62.5t58.5 -24.5q40 0 71 27.5t36 68.5q5 38 -15.5 62.5t-57.5 24.5q-41 0 -72.5 -28t-36.5 -68z" />
<glyph unicode="&#xe6;" horiz-adv-x="1609" d="M54 267q19 157 147 245.5t330 88.5h174l8 51q20 137 -34 205.5t-168 68.5q-71 0 -146 -27t-115 -53l-39 -27q0 6 -2.5 62.5t1.5 62.5q6 4 17 11t47 24t74.5 30t95 24t112.5 11q253 0 310 -187q77 90 180.5 139t222.5 49q132 0 211.5 -65.5t79.5 -176.5 q0 -81 -29.5 -145.5t-83.5 -107t-118.5 -72t-147 -45.5t-156.5 -23t-157 -8q4 -144 75 -224t209 -80q50 0 102 13.5t90.5 32.5t70 38.5t47.5 33.5l16 13q-3 -19 -40 -144q-16 -13 -49.5 -33t-116.5 -46t-168 -26q-154 0 -253 79t-129 219q-54 -131 -157.5 -214.5 t-240.5 -83.5q-136 0 -211 79t-59 208zM213 283q-10 -83 34 -133.5t127 -50.5q67 0 123 31.5t93.5 83.5t61 113t32.5 126l5 35h-175q-131 0 -210 -53.5t-91 -151.5zM874 516q56 2 100 5.5t101.5 12t100.5 20.5t88 33t74 48.5t47.5 68t18.5 89.5q0 64 -43 102t-118 38 q-141 0 -243 -114t-126 -303z" />
<glyph unicode="&#xe7;" horiz-adv-x="948" d="M90 465q12 256 164.5 417.5t380.5 161.5q187 0 287 -83q-3 -19 -9 -39.5t-14.5 -46.5t-12.5 -39q-2 3 -10 11t-29 22t-47 26.5t-67 21.5t-86 9q-165 0 -275 -130t-116 -334q-7 -164 73 -262.5t222 -98.5q133 0 283 104q-3 -21 -10 -44.5t-16.5 -51t-13.5 -43.5 q-26 -17 -59.5 -34t-99.5 -35t-131 -18l-4 1l-40 -82q72 -5 109.5 -45t29.5 -106q-9 -72 -67 -118.5t-143 -46.5q-70 0 -112 26q0 10 -2.5 56t0.5 55q5 -10 33.5 -21t62.5 -11q45 0 74 21.5t33 58.5q4 34 -19.5 56t-69.5 22q-38 0 -51 -7l73 150q-161 30 -247 157.5 t-74 319.5z" />
<glyph unicode="&#xe8;" horiz-adv-x="987" d="M87 442q13 264 171 433t386 169q132 0 211.5 -65t79.5 -176q0 -81 -29.5 -145.5t-83.5 -107t-118.5 -72t-147 -45.5t-156.5 -23t-157 -8q4 -144 75 -224t209 -80q50 0 102 13.5t90.5 32.5t70 38.5t47.5 33.5l16 13q-3 -19 -40 -144q-16 -13 -49.5 -33t-116.5 -46 t-168 -26q-197 0 -301 126t-91 336zM249 516q56 2 100 5.5t101.5 12t100.5 20.5t88 33t74 48.5t47.5 68t18.5 89.5q0 64 -42.5 102t-117.5 38q-141 0 -243.5 -114t-126.5 -303zM404 1535q18 3 50.5 9.5t59 10.5t49.5 4l136 -320h-118z" />
<glyph unicode="&#xe9;" horiz-adv-x="987" d="M87 442q13 264 171 433t386 169q132 0 211.5 -65t79.5 -176q0 -81 -29.5 -145.5t-83.5 -107t-118.5 -72t-147 -45.5t-156.5 -23t-157 -8q4 -144 75 -224t209 -80q50 0 102 13.5t90.5 32.5t70 38.5t47.5 33.5l16 13q-3 -19 -40 -144q-16 -13 -49.5 -33t-116.5 -46 t-168 -26q-197 0 -301 126t-91 336zM249 516q56 2 100 5.5t101.5 12t100.5 20.5t88 33t74 48.5t47.5 68t18.5 89.5q0 64 -42.5 102t-117.5 38q-141 0 -243.5 -114t-126.5 -303zM595 1239l188 297q10 1 87.5 10t117.5 9l-264 -316h-129z" />
<glyph unicode="&#xea;" horiz-adv-x="987" d="M87 442q13 264 171 433t386 169q132 0 211.5 -65t79.5 -176q0 -70 -23 -127.5t-61 -98t-93.5 -72t-114.5 -50.5t-130.5 -31t-135.5 -17t-134 -6q4 -143 75 -223t209 -80q50 0 102 13.5t90.5 32.5t70 38.5t47.5 33.5l16 13q-3 -19 -40 -144q-16 -13 -49.5 -33t-116.5 -46 t-168 -26q-197 0 -301 126t-91 336zM249 516q56 3 99.5 6t101.5 11.5t101 20.5t88.5 33t74 48.5t47 68t18.5 89.5q0 64 -42.5 102t-117.5 38q-141 0 -243.5 -114t-126.5 -303zM384 1256l261 298h82l193 -306h-118l-134 161l-182 -173q-16 0 -33 3t-37.5 9t-31.5 8z" />
<glyph unicode="&#xeb;" horiz-adv-x="987" d="M87 442q13 264 171 433t386 169q132 0 211.5 -65t79.5 -176q0 -70 -23 -127.5t-61 -98t-93.5 -72t-114.5 -50.5t-130.5 -31t-135.5 -17t-134 -6q4 -143 75 -223t209 -80q50 0 102 13.5t90.5 32.5t70 38.5t47.5 33.5l16 13q-3 -19 -40 -144q-16 -13 -49.5 -33t-116.5 -46 t-168 -26q-197 0 -301 126t-91 336zM249 516q56 3 99.5 6t101.5 11.5t101 20.5t88.5 33t74 48.5t47 68t18.5 89.5q0 64 -42.5 102t-117.5 38q-141 0 -243.5 -114t-126.5 -303zM395 1393q4 42 34 70.5t67 28.5t59.5 -28.5t18.5 -70.5q-4 -41 -33.5 -68.5t-66.5 -27.5 t-60 27.5t-19 68.5zM701 1393q4 42 34.5 70.5t65.5 28.5t58.5 -28.5t19.5 -70.5q-4 -41 -34 -68.5t-66 -27.5q-35 0 -58.5 27.5t-19.5 68.5z" />
<glyph unicode="&#xec;" horiz-adv-x="520" d="M126 126l18 150l76 617q4 31 5 60.5t1 43.5l-1 14q25 0 52.5 4t61.5 10.5t53 9.5q-5 -73 -13 -142l-75 -617l-15 -117q-4 -31 10 -48.5t42 -17.5q16 0 33.5 5.5t27.5 11.5l9 6q0 -2 -18 -103q-64 -34 -147 -34q-65 0 -96.5 38.5t-23.5 108.5zM177 1538q15 2 44.5 8t53 9 t44.5 3l76 -316h-104z" />
<glyph unicode="&#xed;" horiz-adv-x="520" d="M126 126l18 150l76 617q4 31 5 60.5t1 43.5l-1 14q25 0 52.5 4t61.5 10.5t53 9.5q-5 -73 -13 -142l-75 -617l-15 -117q-4 -31 9.5 -48.5t41.5 -17.5q16 0 33.5 5.5t27.5 11.5l10 6q0 -2 -18 -103q-64 -34 -147 -34q-65 0 -96.5 38.5t-23.5 108.5zM290 1242l144 297 q20 2 71.5 10t87.5 8l-200 -315h-103z" />
<glyph unicode="&#xee;" horiz-adv-x="520" d="M91 1257l248 297h82l181 -304h-117l-119 186l-174 -197q-16 0 -33 3t-37 8t-31 7zM126 126l18 150l76 617q4 31 5 60.5t1 43.5l-1 14q25 0 52.5 4t61.5 10.5t53 9.5q-5 -73 -13 -142l-75 -617l-15 -117q-4 -31 10 -48.5t42 -17.5q16 0 33.5 5.5t27.5 11.5l9 6 q0 -2 -18 -103q-64 -34 -147 -34q-65 0 -96.5 38.5t-23.5 108.5z" />
<glyph unicode="&#xef;" horiz-adv-x="520" d="M126 126l18 150l76 617q4 31 5 60.5t1 43.5l-1 14q25 0 52.5 4t61.5 10.5t53 9.5q-5 -73 -13 -142l-75 -617l-15 -117q-4 -31 10 -48.5t42 -17.5q16 0 33.5 5.5t27.5 11.5l9 6q0 -2 -18 -103q-64 -34 -147 -34q-65 0 -96.5 38.5t-23.5 108.5zM147 1394q4 34 29 56.5 t58 22.5q32 0 52 -22.5t16 -56.5q-4 -33 -29.5 -55t-57.5 -22q-33 0 -52.5 22t-15.5 55zM420 1394q4 34 30 56.5t57 22.5q32 0 52 -22.5t16 -56.5q-4 -33 -29.5 -55t-57.5 -22q-31 0 -51.5 22t-16.5 55z" />
<glyph unicode="&#xf0;" horiz-adv-x="1157" d="M82 428q16 204 152.5 332t328.5 128q120 0 205 -49.5t125 -134.5q-3 338 -176 528l-269 -131l-31 70l240 117q-126 102 -315 130q2 19 8 40.5t14 47.5t12 41q261 -40 423 -189l250 121l30 -70l-223 -109q116 -136 160 -334.5t13 -448.5q-19 -150 -91 -271.5 t-189.5 -193.5t-257.5 -72q-191 0 -307.5 128t-101.5 320zM244 428q-13 -138 63 -232.5t199 -94.5q139 0 238.5 115t114.5 282q11 122 -67 202.5t-204 80.5q-133 0 -231.5 -98.5t-112.5 -254.5z" />
<glyph unicode="&#xf1;" horiz-adv-x="1185" d="M120 0l77 627q11 91 16 187t5 146l-1 51q28 0 140 19q2 -15 5 -41.5t7.5 -111.5t-3.5 -163q79 140 205.5 235.5t254.5 95.5q119 0 173 -83t33 -229l-66 -457l-17 -117q-4 -30 10.5 -48t43.5 -18q16 0 33.5 5.5t27.5 11.5l10 6q-2 -19 -10 -58t-9 -45q-63 -34 -146 -34 q-66 0 -100 39.5t-24 107.5l22 150l61 429q13 95 -20.5 149.5t-106.5 54.5q-94 0 -185 -73t-150 -183t-73 -223l-53 -430h-160zM449 1286q0 1 1 11t2 19t4 24t6.5 27.5t10 28t14 28t19 25t25 21t31.5 13.5t38 5q51 0 124 -44q62 -37 99 -37q20 0 36.5 8t25 20t14 24t7.5 20 l2 8q12 0 24.5 -2t27.5 -5.5t23 -4.5q0 -1 -1 -11t-2 -18.5t-4 -23.5t-6.5 -27.5t-10 -28.5t-14 -28t-19 -24.5t-25 -21t-31.5 -13.5t-38 -5q-54 0 -127 44q-59 37 -97 37q-32 0 -53 -20.5t-26 -40.5l-5 -20q-8 1 -23.5 4.5t-28 5.5t-23.5 2z" />
<glyph unicode="&#xf2;" horiz-adv-x="1107" d="M87 431q0 172 71 312.5t195.5 220.5t275.5 80q180 0 286 -123.5t106 -325.5q0 -172 -71 -313t-195 -221.5t-275 -80.5q-180 0 -286.5 124.5t-106.5 326.5zM257 462q-5 -161 61.5 -262.5t182.5 -101.5q146 0 249 140t103 345q0 153 -67 248t-178 95q-143 0 -245 -134 t-106 -330zM412 1535q18 3 50.5 9.5t59 10.5t49.5 4l136 -320h-118z" />
<glyph unicode="&#xf3;" horiz-adv-x="1107" d="M87 431q0 172 71 312.5t195.5 220.5t275.5 80q180 0 286 -123.5t106 -325.5q0 -172 -71 -313t-195 -221.5t-275 -80.5q-180 0 -286.5 124.5t-106.5 326.5zM257 462q-5 -161 61.5 -262.5t182.5 -101.5q146 0 249 140t103 345q0 153 -67 248t-178 95q-143 0 -245 -134 t-106 -330zM603 1239l188 297q10 1 87.5 10t117.5 9l-264 -316h-129z" />
<glyph unicode="&#xf4;" horiz-adv-x="1107" d="M87 431q0 172 71 312.5t195.5 220.5t275.5 80q180 0 286 -123.5t106 -325.5q0 -172 -71 -313t-195 -221.5t-275 -80.5q-180 0 -286.5 124.5t-106.5 326.5zM257 462q-5 -161 61.5 -262.5t182.5 -101.5q146 0 249 140t103 345q0 153 -67 248t-178 95q-143 0 -245 -134 t-106 -330zM392 1256l261 298h82l193 -306h-118l-134 161l-182 -173q-16 0 -33 3t-37.5 9t-31.5 8z" />
<glyph unicode="&#xf5;" horiz-adv-x="1107" d="M87 431q0 172 71 312.5t195.5 220.5t275.5 80q180 0 286 -123.5t106 -325.5q0 -172 -71 -313t-195 -221.5t-275 -80.5q-180 0 -286.5 124.5t-106.5 326.5zM257 462q-5 -161 61.5 -262.5t182.5 -101.5q146 0 249 140t103 345q0 153 -67 248t-178 95q-143 0 -245 -134 t-106 -330zM391 1286q0 1 1 12.5t3 22t5 27.5t8.5 31.5t13 31.5t18.5 30t25 24t33.5 17t42.5 6q51 0 124 -44q62 -37 100 -37q32 0 53 20t26 40l5 20q12 0 24.5 -2t27.5 -5.5t23 -4.5l-1 -13q-1 -12 -3 -21.5t-5 -27t-8.5 -31.5t-13.5 -31t-19 -30t-25 -24t-33.5 -17 t-42.5 -6q-53 0 -126 44q-59 37 -97 37q-32 0 -53 -20.5t-27 -40.5l-5 -20q-8 1 -23 4.5t-27.5 5.5t-23.5 2z" />
<glyph unicode="&#xf6;" horiz-adv-x="1107" d="M87 431q0 172 71 312.5t195.5 220.5t275.5 80q180 0 286 -123.5t106 -325.5q0 -172 -71 -313t-195 -221.5t-275 -80.5q-180 0 -286.5 124.5t-106.5 326.5zM257 462q-5 -161 61.5 -262.5t182.5 -101.5q146 0 249 140t103 345q0 153 -67 248t-178 95q-143 0 -245 -134 t-106 -330zM403 1393q4 42 34 70.5t67 28.5t59.5 -28.5t18.5 -70.5q-4 -41 -33.5 -68.5t-66.5 -27.5t-60 27.5t-19 68.5zM709 1393q4 42 34.5 70.5t65.5 28.5t58.5 -28.5t19.5 -70.5q-4 -41 -34 -68.5t-66 -27.5q-35 0 -58.5 27.5t-19.5 68.5z" />
<glyph unicode="&#xf7;" horiz-adv-x="1263" d="M138 657v119h1038v-119h-1038zM539 352q5 46 40.5 77.5t81.5 31.5t73.5 -31.5t22.5 -77.5q-5 -47 -40.5 -78.5t-81.5 -31.5t-73.5 31.5t-22.5 78.5zM557 1084q5 46 40 77t81 31t74 -31t23 -77q-5 -47 -40.5 -79t-81.5 -32t-73.5 32t-22.5 79z" />
<glyph unicode="&#xf8;" horiz-adv-x="1107" d="M28 0l133 147q-74 116 -74 284q0 172 71 312.5t195.5 220.5t275.5 80q154 0 255 -92l65 72h105l-117 -131q84 -118 84 -298q0 -172 -71 -313.5t-195 -222t-275 -80.5q-164 0 -270 106l-77 -85h-105zM257 462q-3 -102 23 -182l501 557q-67 89 -173 89q-143 0 -245 -134 t-106 -330zM316 203q67 -105 185 -105q146 0 249 140t103 345q0 104 -32 182z" />
<glyph unicode="&#xf9;" horiz-adv-x="1173" d="M145 291l74 602q4 31 5.5 60.5t1.5 43.5l-1 14q25 0 52.5 4t61.5 10.5t53 9.5q-5 -73 -13 -142l-70 -575q-11 -96 19.5 -149t100.5 -53q94 0 185 73t150 183t73 223l53 429h160l-92 -748l-14 -117q-4 -31 9.5 -48.5t41.5 -17.5q16 0 33.5 5.5t27.5 11.5l9 6 q0 -2 -18 -103q-63 -34 -146 -34q-65 0 -96.5 38.5t-23.5 108.5l17 150l4 32q-80 -139 -206 -233.5t-252 -94.5q-117 0 -167 81t-32 230zM406 1535q18 3 50.5 9.5t59 10.5t49.5 4l136 -320h-118z" />
<glyph unicode="&#xfa;" horiz-adv-x="1173" d="M145 291l74 602q4 31 5.5 60.5t1.5 43.5l-1 14q25 0 52.5 4t61.5 10.5t53 9.5q-5 -73 -13 -142l-70 -575q-11 -96 19.5 -149t100.5 -53q94 0 185 73t150 183t73 223l53 429h160l-92 -748l-14 -117q-4 -31 9.5 -48.5t41.5 -17.5q16 0 33.5 5.5t27.5 11.5l9 6 q0 -2 -18 -103q-63 -34 -146 -34q-65 0 -96.5 38.5t-23.5 108.5l17 150l4 32q-80 -139 -206 -233.5t-252 -94.5q-117 0 -167 81t-32 230zM596 1239l189 297q10 1 87.5 10t117.5 9l-264 -316h-130z" />
<glyph unicode="&#xfb;" horiz-adv-x="1173" d="M145 291l74 602q4 31 5.5 60.5t0.5 43.5l-1 14q25 0 53 4t62 10.5t53 9.5q-5 -73 -13 -142l-70 -575q-11 -96 19.5 -149t100.5 -53q94 0 185 73t150 183t73 223l53 429h160l-92 -748l-14 -117q-4 -31 9.5 -48.5t41.5 -17.5q16 0 33.5 5.5t27.5 11.5l9 6q0 -2 -18 -103 q-63 -34 -146 -34q-65 0 -96.5 38.5t-23.5 108.5l17 150l4 32q-80 -139 -206 -233.5t-252 -94.5q-117 0 -167 81t-32 230zM386 1256l261 298h82l193 -306h-118l-134 161l-182 -173q-16 0 -33 3t-37.5 9t-31.5 8z" />
<glyph unicode="&#xfc;" horiz-adv-x="1173" d="M145 291l74 602q4 31 5.5 60.5t1.5 43.5l-1 14q25 0 52.5 4t61.5 10.5t53 9.5q-5 -73 -13 -142l-70 -575q-11 -96 19.5 -149t100.5 -53q94 0 185 73t150 183t73 223l53 429h160l-92 -748l-14 -117q-4 -31 9.5 -48.5t41.5 -17.5q16 0 33.5 5.5t27.5 11.5l9 6 q0 -2 -18 -103q-63 -34 -146 -34q-65 0 -96.5 38.5t-23.5 108.5l17 150l4 32q-80 -139 -206 -233.5t-252 -94.5q-117 0 -167 81t-32 230zM397 1393q4 42 33.5 70.5t66.5 28.5t60 -28.5t19 -70.5q-4 -41 -33.5 -68.5t-66.5 -27.5t-60 27.5t-19 68.5zM703 1393q4 42 34.5 70.5 t65.5 28.5t58.5 -28.5t19.5 -70.5q-4 -41 -34 -68.5t-66 -27.5q-35 0 -58.5 27.5t-19.5 68.5z" />
<glyph unicode="&#xfd;" horiz-adv-x="991" d="M102 1010q24 0 52 4t62.5 10.5t52.5 9.5l195 -851l400 841h156l-709 -1429q-32 0 -92 -8.5t-78 -10.5l238 430h-20zM544 1239l189 297q10 1 87.5 10t117.5 9l-264 -316h-130z" />
<glyph unicode="&#xfe;" horiz-adv-x="1134" d="M69 -421q5 72 13 141l40 325l2 14l165 1346q4 31 5.5 60.5t1.5 43.5l-1 14q25 0 52.5 4t61.5 10.5t53 9.5q-5 -73 -13 -142l-78 -636q65 125 165.5 200t213.5 75q135 0 215 -103.5t80 -280.5q0 -188 -74.5 -343.5t-207.5 -246t-297 -90.5q-95 0 -189 24l-35 -284 q-4 -31 -5.5 -60.5t-0.5 -43.5l1 -14q-25 0 -52.5 -3.5t-62.5 -10t-53 -9.5zM292 130q96 -32 178 -32q96 0 175 43.5t129 117.5t77 168.5t27 198.5q0 140 -57 216t-149 76q-115 0 -210.5 -123.5t-126.5 -316.5z" />
<glyph unicode="&#xff;" horiz-adv-x="991" d="M102 1010q24 0 52 4t62.5 10.5t52.5 9.5l195 -851l400 841h156l-709 -1429q-32 0 -92 -8.5t-78 -10.5l238 430h-20zM345 1393q4 42 33.5 70.5t66.5 28.5t60 -28.5t19 -70.5q-4 -41 -33.5 -68.5t-66.5 -27.5t-60 27.5t-19 68.5zM651 1393q4 42 34.5 70.5t65.5 28.5 t58.5 -28.5t19.5 -70.5q-4 -41 -34 -68.5t-66 -27.5q-35 0 -58.5 27.5t-19.5 68.5z" />
<glyph unicode="&#x152;" horiz-adv-x="1822" d="M134 670q0 163 58 304t160.5 242.5t249.5 159.5t319 58h880l-17 -136h-608l-61 -509h535q-3 -19 -9 -42.5t-14 -51.5l-12 -42h-517l-63 -517h643l-18 -136h-851q-152 0 -279 50.5t-213.5 139.5t-134.5 212.5t-48 267.5zM304 684q0 -244 144 -400.5t379 -156.5h37 l145 1180h-106q-175 0 -312 -80.5t-212 -222.5t-75 -320z" />
<glyph unicode="&#x153;" horiz-adv-x="1753" d="M87 431q0 172 71 312.5t195.5 220.5t275.5 80q124 0 214 -60t136 -167q77 108 190 167.5t244 59.5q132 0 211.5 -65t79.5 -176q0 -81 -29.5 -145.5t-83.5 -107t-118.5 -72t-147 -45.5t-156.5 -23t-157 -8q4 -144 75 -224t209 -80q50 0 102 13.5t90.5 32.5t70 38.5 t47.5 33.5l16 13q-3 -19 -40 -144q-16 -13 -49.5 -33t-116.5 -46t-168 -26q-128 0 -219 55.5t-135 156.5q-75 -100 -182 -156t-232 -56q-180 0 -286.5 124.5t-106.5 326.5zM257 462q-5 -161 61.5 -262.5t182.5 -101.5q146 0 249 140t103 345q0 153 -67 248t-178 95 q-143 0 -245 -134t-106 -330zM1018 516q56 2 100 5.5t101.5 12t100.5 20.5t88 33t74 48.5t47.5 68t18.5 89.5q0 64 -42.5 102t-117.5 38q-141 0 -243.5 -114t-126.5 -303z" />
<glyph unicode="&#x178;" horiz-adv-x="1224" d="M146 1434h193l257 -627q30 -68 41 -136l483 763h177l-601 -904l-65 -530h-170l66 530zM540 1736q4 42 33.5 70.5t66.5 28.5t59.5 -28.5t18.5 -70.5q-4 -41 -33.5 -68.5t-66.5 -27.5t-59.5 27t-18.5 69zM845 1736q4 42 34.5 70.5t66.5 28.5q35 0 58.5 -28.5t19.5 -70.5 q-4 -41 -34 -68.5t-66 -27.5t-59.5 27.5t-19.5 68.5z" />
<glyph unicode="&#x2c6;" horiz-adv-x="634" d="M147 1256l261 298h82l193 -306h-118l-134 161l-182 -173q-16 0 -33 3t-37.5 9t-31.5 8z" />
<glyph unicode="&#x2dc;" horiz-adv-x="591" d="M142 1286l1 12q1 13 3 22.5t5 27t8.5 32t13.5 31.5t19 30t25 24t33.5 17t42.5 6q51 0 124 -44q62 -37 100 -37q32 0 53 20t26 40l5 20q12 0 24.5 -2t27.5 -5.5t23 -4.5l-1 -13q-1 -12 -3 -21.5t-5 -27t-8.5 -31.5t-13.5 -31t-19 -30t-25 -24t-33.5 -17t-42.5 -6 q-53 0 -126 44q-61 37 -97 37q-32 0 -53 -20.5t-27 -40.5l-5 -20q-8 1 -23.5 4.5t-28 5.5t-23.5 2z" />
<glyph unicode="&#x2000;" horiz-adv-x="951" />
<glyph unicode="&#x2001;" horiz-adv-x="1902" />
<glyph unicode="&#x2002;" horiz-adv-x="951" />
<glyph unicode="&#x2003;" horiz-adv-x="1902" />
<glyph unicode="&#x2004;" horiz-adv-x="634" />
<glyph unicode="&#x2005;" horiz-adv-x="475" />
<glyph unicode="&#x2006;" horiz-adv-x="317" />
<glyph unicode="&#x2007;" horiz-adv-x="317" />
<glyph unicode="&#x2008;" horiz-adv-x="237" />
<glyph unicode="&#x2009;" horiz-adv-x="380" />
<glyph unicode="&#x200a;" horiz-adv-x="105" />
<glyph unicode="&#x2010;" horiz-adv-x="743" d="M55 456l13 112h620l-13 -112h-620z" />
<glyph unicode="&#x2011;" horiz-adv-x="743" d="M55 456l13 112h620l-13 -112h-620z" />
<glyph unicode="&#x2012;" horiz-adv-x="743" d="M55 456l13 112h620l-13 -112h-620z" />
<glyph unicode="&#x2013;" horiz-adv-x="1021" d="M-7 456l14 112h1023l-14 -112h-1023z" />
<glyph unicode="&#x2014;" horiz-adv-x="2045" d="M-7 456l14 112h2047l-14 -112h-2047z" />
<glyph unicode="&#x2018;" horiz-adv-x="446" d="M101 1134q8 64 31.5 124t52 99.5t55.5 70t45 44.5l18 14q19 0 53.5 -6.5t42.5 -7.5q-6 -5 -16.5 -14t-37 -37.5t-48 -56.5t-41 -67.5t-23.5 -74.5q-3 -24 7 -40t25.5 -25.5t31 -19.5t25 -29t5.5 -47q-5 -42 -36 -69.5t-76 -27.5q-64 0 -93.5 47t-20.5 123z" />
<glyph unicode="&#x2019;" horiz-adv-x="444" d="M113 985q6 5 16.5 14.5t37 38t48 56.5t41 67.5t23.5 74.5q3 24 -7 40t-25.5 25.5t-31.5 19t-25.5 28.5t-5.5 47q5 42 36.5 69.5t76.5 27.5q64 0 93.5 -47t20.5 -123q-8 -64 -31.5 -124t-52 -99.5t-55.5 -70t-45 -44.5l-18 -14q-19 0 -53.5 6.5t-42.5 7.5z" />
<glyph unicode="&#x201a;" horiz-adv-x="446" d="M-20 -329q6 5 16.5 14t37 37.5t48 56.5t41 67.5t23.5 74.5q4 29 -12 48t-36.5 27.5t-35.5 30t-11 55.5q5 42 36.5 69.5t76.5 27.5q64 0 93.5 -47t20.5 -123q-8 -64 -31.5 -124t-52 -100t-55.5 -70.5t-45 -44.5l-18 -14q-18 0 -52 7t-44 8z" />
<glyph unicode="&#x201c;" horiz-adv-x="763" d="M183 1134q8 64 31.5 124t52 99.5t55.5 70t45 44.5l18 14q19 0 53.5 -6.5t42.5 -7.5q-6 -5 -16.5 -14t-37 -37.5t-48 -56.5t-41 -67.5t-23.5 -74.5q-4 -29 12 -48t36.5 -27.5t35.5 -30t11 -55.5q-5 -42 -36.5 -69.5t-76.5 -27.5q-64 0 -93.5 47t-20.5 123zM499 1134 q8 64 31.5 124t52 99.5t55.5 70t45 44.5l18 14q19 0 53.5 -6.5t42.5 -7.5q-6 -5 -16.5 -14t-37 -37.5t-47.5 -56.5t-40.5 -67.5t-23.5 -74.5q-3 -24 7 -40t25.5 -25.5t31 -19.5t25 -29t5.5 -47q-5 -42 -36 -69.5t-76 -27.5q-64 0 -94 47t-21 123z" />
<glyph unicode="&#x201d;" horiz-adv-x="763" d="M141 985q6 5 16.5 14.5t37 38t48 56.5t41 67.5t23.5 74.5q4 29 -11.5 47.5t-36 27t-35.5 30t-11 55.5q5 42 36 69.5t76 27.5q64 0 93.5 -47t20.5 -123q-8 -64 -31.5 -124t-51.5 -99.5t-55 -70t-45 -44.5l-18 -14q-19 0 -54 6.5t-43 7.5zM458 985q6 5 16.5 14.5t37 38 t48 56.5t41 67.5t23.5 74.5q3 24 -7 40t-25.5 25.5t-31.5 19t-25.5 28.5t-5.5 47q5 42 36.5 69.5t76.5 27.5q64 0 93.5 -47t20.5 -123q-8 -64 -31.5 -124t-52 -99.5t-55.5 -70t-45 -44.5l-18 -14q-19 0 -53.5 6.5t-42.5 7.5z" />
<glyph unicode="&#x201e;" horiz-adv-x="763" d="M-20 -329q6 5 16.5 14t37 37.5t48 56.5t41 67.5t23.5 74.5q4 29 -12 48t-36.5 27.5t-35.5 30t-11 55.5q5 42 36.5 69.5t76.5 27.5q64 0 93.5 -47t20.5 -123q-8 -64 -31.5 -124t-52 -100t-55.5 -70.5t-45 -44.5l-18 -14q-18 0 -52 7t-44 8zM297 -329q6 5 16.5 14t37 37.5 t47.5 56.5t40.5 67.5t23.5 74.5q3 24 -7 40t-25.5 25.5t-31 19.5t-25 29t-5.5 47q5 42 36 69.5t76 27.5q64 0 94 -47t21 -123q-8 -64 -31.5 -124t-52 -100t-55.5 -70.5t-45 -44.5l-18 -14q-18 0 -52 7t-44 8z" />
<glyph unicode="&#x2022;" horiz-adv-x="774" d="M174 522q-10 -88 45.5 -150t144.5 -62t159.5 62t80.5 150q11 92 -43.5 155t-143.5 63q-90 0 -161 -63t-82 -155z" />
<glyph unicode="&#x2026;" horiz-adv-x="1146" d="M60 70q5 46 40 77.5t81 31.5t73.5 -31.5t22.5 -77.5q-5 -47 -40.5 -78.5t-81.5 -31.5t-73 31.5t-22 78.5zM417 70q5 46 40.5 77.5t81.5 31.5t73.5 -31.5t22.5 -77.5q-5 -47 -40.5 -78.5t-81.5 -31.5t-73.5 31.5t-22.5 78.5zM761 70q5 46 40.5 77.5t81.5 31.5t73.5 -31.5 t22.5 -77.5q-5 -47 -40.5 -78.5t-81.5 -31.5t-73.5 31.5t-22.5 78.5z" />
<glyph unicode="&#x202f;" horiz-adv-x="380" />
<glyph unicode="&#x2039;" horiz-adv-x="589" d="M77 512l320 369h138l-291 -369l201 -369h-138z" />
<glyph unicode="&#x203a;" horiz-adv-x="589" d="M55 143l291 369l-201 369h138l230 -369l-321 -369h-137z" />
<glyph unicode="&#x205f;" horiz-adv-x="475" />
<glyph unicode="&#x20ac;" horiz-adv-x="1327" d="M123 588q0 168 66.5 319.5t177.5 259t259 171t306 63.5q74 0 142.5 -9.5t114 -22.5t80.5 -26t51 -23l16 -9q-3 -20 -9 -43t-14.5 -50t-12.5 -43q-6 4 -16.5 10.5t-46.5 23t-75.5 29.5t-101 23.5t-124.5 10.5q-187 0 -345.5 -103t-239.5 -273h596q-2 -23 -15.5 -66.5 t-15.5 -49.5h-607q-22 -85 -22 -171h614q-2 -23 -15.5 -66.5t-15.5 -49.5h-573q33 -178 162 -284t325 -106q75 0 146.5 13.5t120.5 32.5t87.5 38.5t57.5 32.5l18 14q-4 -31 -21 -91.5t-19 -67.5q-7 -4 -20 -11t-56.5 -24.5t-90 -31t-118 -24.5t-144.5 -11 q-187 0 -329.5 79.5t-217.5 218.5t-75 317z" />
<glyph unicode="&#x2122;" horiz-adv-x="1769" d="M144 1428l14 107h645l-15 -107h-254l-83 -681h-135l83 681h-255zM788 747l188 777q11 1 55.5 9.5t67.5 8.5l148 -603l293 596h117v-788h-135l11 573l-268 -572h-97l-131 551l-120 -552h-129z" />
<glyph unicode="&#xe000;" horiz-adv-x="1034" d="M0 0v1034h1034v-1034h-1034z" />
</font>
</defs>
</svg>
