<?xml version="1.0" standalone="no"?>
<!DOCTYPE svg PUBLIC "-//W3C//DTD SVG 1.1//EN" "http://www.w3.org/Graphics/SVG/1.1/DTD/svg11.dtd" >
<svg xmlns="http://www.w3.org/2000/svg">
<metadata></metadata>
<defs>
<font id="lelum_sansbook" horiz-adv-x="1230" >
<font-face units-per-em="2048" ascent="1638" descent="-410" />
<missing-glyph horiz-adv-x="477" />
<glyph unicode="&#xfb01;" d="M68 912q1 4 8.5 46.5t7.5 65.5h153v152q0 360 308 360q35 0 67.5 -4t47.5 -8l14 -5q2 -13 7 -38.5t7.5 -46t2.5 -38.5q-44 21 -106 21q-188 0 -188 -256v-137h286q0 -22 -7.5 -64.5t-8.5 -47.5h-270v-912h-160v912h-169zM864 1395q0 44 32 76t76 32t75.5 -32t31.5 -76 t-31.5 -76t-75.5 -32t-76 32t-32 76zM892 0v1011q23 0 50 4t59 10t50 8v-1033h-159z" />
<glyph unicode="&#xfb02;" d="M68 912q1 4 8.5 46.5t7.5 65.5h153v152q0 360 308 360q35 0 67.5 -4t47.5 -8l14 -5q2 -13 7 -38.5t7.5 -46t2.5 -38.5q-44 21 -106 21q-188 0 -188 -256v-137h286q0 -22 -7.5 -64.5t-8.5 -47.5h-270v-912h-160v912h-169zM892 0v1525q30 0 85.5 10.5t73.5 12.5v-1548h-159 z" />
<glyph horiz-adv-x="2048" />
<glyph horiz-adv-x="2048" />
<glyph unicode="&#xd;" horiz-adv-x="2048" />
<glyph unicode=" "  horiz-adv-x="477" />
<glyph unicode="&#x09;" horiz-adv-x="477" />
<glyph unicode="&#xa0;" horiz-adv-x="477" />
<glyph unicode="!" horiz-adv-x="561" d="M166 70q0 46 33 77.5t81 31.5t81 -31.5t33 -77.5q0 -47 -33 -78.5t-81 -31.5t-81 31.5t-33 78.5zM196 1434h169l-21 -1047q-19 0 -40 -3t-47 -8t-40 -7z" />
<glyph unicode="&#x22;" horiz-adv-x="716" d="M165 961v496q18 0 38.5 3t45.5 8t39 7l-30 -501q-5 -1 -39.5 -7t-53.5 -6zM429 961v496q18 0 38.5 3t45.5 8t39 7l-30 -501q-5 -1 -39.5 -7t-53.5 -6z" />
<glyph unicode="#" horiz-adv-x="1320" d="M54 432l14 114h248l50 407h-248l14 114h248l45 367h148l-45 -367h344l45 367h148l-45 -367h247l-14 -114h-247l-50 -407h247l-14 -114h-247l-53 -432h-148l53 432h-344l-53 -432h-148l53 432h-248zM464 546h344l50 407h-345z" />
<glyph unicode="$" horiz-adv-x="1103" d="M145 198q74 -36 175.5 -65.5t198.5 -29.5q124 0 205 66t86 168q5 92 -41.5 151.5t-166.5 115.5l-185 89q-124 60 -182 137.5t-58 183.5q0 144 94 247t250 131v264h126v-255q72 -2 144 -17.5t109 -29.5l36 -14q0 -26 -9 -75.5t-10 -55.5q-14 7 -38 18t-97.5 29t-143.5 18 q-125 0 -205.5 -69t-80.5 -172q0 -69 40 -120.5t127 -92.5l176 -85q165 -79 230.5 -168t59.5 -230q-5 -135 -97.5 -230.5t-240.5 -123.5v-260h-126v250q-192 3 -355 71q-1 11 -11.5 67.5t-9.5 86.5z" />
<glyph unicode="%" horiz-adv-x="1814" d="M70 949q0 188 85.5 304t224.5 116t224 -115.5t85 -304.5t-85 -305t-224 -116t-224.5 116t-85.5 305zM207 949q0 -145 47.5 -236t125.5 -91t125 90.5t47 236.5q0 145 -47 235.5t-125 90.5t-125.5 -90.5t-47.5 -235.5zM477 -76l754 1556l108 -53l-754 -1556zM1126 409 q0 188 85 303.5t224 115.5t224.5 -115.5t85.5 -303.5q0 -189 -85.5 -305t-224.5 -116t-224 116t-85 305zM1262 408q0 -145 47.5 -236t125.5 -91t125.5 91t47.5 236t-47.5 236t-125.5 91t-125.5 -91t-47.5 -236z" />
<glyph unicode="&#x26;" horiz-adv-x="1464" d="M147 334q0 137 70 238t207 202q-52 47 -86.5 83.5t-69.5 85t-52.5 102.5t-17.5 114q0 172 116.5 278t303.5 106q169 0 274.5 -92t105.5 -236q0 -62 -19 -117.5t-46 -96t-75.5 -84.5t-89 -72.5t-104.5 -70.5l332 -299q29 59 49 94t53.5 81.5t66 72t80 44t102.5 19.5 q2 -17 7.5 -43t8.5 -47t3 -43q-37 -3 -70.5 -19t-57.5 -36.5t-51 -58.5t-44.5 -67.5t-44.5 -80.5l-2 -5l325 -293l-104 -120l-303 272q-37 -58 -75.5 -101t-92 -82.5t-124 -60.5t-155.5 -21q-182 0 -301 98t-119 256zM309 336q0 -105 75 -171.5t182 -66.5q66 0 121 17.5 t97.5 51t74 72t61.5 90.5l-388 349q-116 -90 -169.5 -166t-53.5 -176zM357 1163q0 -26 6.5 -51t13 -43.5t25.5 -43.5t29 -38t39.5 -40.5t40.5 -37t47 -41.5l13 9q46 33 60.5 43.5t51.5 38t48.5 39.5t36.5 36.5t33.5 41t21 40.5t16 48t3.5 51q0 96 -57.5 152.5t-155.5 56.5 q-122 0 -197 -72t-75 -189z" />
<glyph unicode="'" horiz-adv-x="452" d="M165 961v496q18 0 38.5 3t45.5 8t39 7l-30 -501q-5 -1 -39.5 -7t-53.5 -6z" />
<glyph unicode="(" horiz-adv-x="704" d="M112 563q0 129 27.5 251.5t71 215t96.5 174t106 137t96.5 96t70.5 59.5l28 19l22 -155q-7 -6 -20 -16.5t-50.5 -48.5t-71 -81t-75 -113.5t-71 -146.5t-50 -179t-20.5 -212t19.5 -211.5t51.5 -180t70 -145.5t76 -114.5t70 -80.5t51 -49l20 -16l-22 -153q-10 7 -28 19.5 t-69.5 57.5t-98.5 96.5t-104 136t-98.5 174.5t-69.5 213t-28 253z" />
<glyph unicode=")" horiz-adv-x="704" d="M75 -234q7 6 20 16.5t50.5 48.5t71 81t75 113.5t71 146.5t50 179t20.5 212t-19.5 211.5t-51.5 180t-70 145.5t-76 114.5t-70 80.5t-52 49l-19 16l21 155q10 -7 28 -19.5t69.5 -58t98.5 -97.5t104 -136t98.5 -175t69.5 -214t28 -252q0 -130 -27.5 -252t-71 -214.5 t-96.5 -173.5t-106 -136.5t-96.5 -95.5t-70.5 -59l-28 -19z" />
<glyph unicode="*" horiz-adv-x="831" d="M115 1070l223 139l-223 139l67 92l201 -169l63 255q16 0 34 -5.5t41 -15.5t34 -14l-99 -244l263 19v-114l-263 18l99 -243l-109 -36l-63 256l-201 -170z" />
<glyph unicode="+" horiz-adv-x="1249" d="M105 657v119h458v460h124v-460h456v-119h-456v-460h-124v460h-458z" />
<glyph unicode="," horiz-adv-x="452" d="M100 -329q5 5 14.5 14t32.5 37.5t40.5 56.5t32 67.5t14.5 74.5q0 29 -18 47.5t-39 27t-39 30t-18 55.5q0 42 28 70t73 28q64 0 99.5 -47t35.5 -123q0 -64 -16.5 -124t-40 -100t-46.5 -70.5t-39 -44.5l-17 -14q-18 0 -53.5 7t-43.5 8z" />
<glyph unicode="-" horiz-adv-x="743" d="M61 456v112h622v-112h-622z" />
<glyph unicode="." horiz-adv-x="452" d="M112 70q0 46 33 77.5t81 31.5t81 -31.5t33 -77.5q0 -47 -33 -78.5t-81 -31.5t-81 31.5t-33 78.5z" />
<glyph unicode="/" horiz-adv-x="825" d="M57 -246l578 1782h134l-578 -1782h-134z" />
<glyph unicode="0" horiz-adv-x="1193" d="M107 681q0 314 135 506.5t355 192.5t354.5 -192.5t134.5 -506.5q0 -315 -134.5 -508t-354.5 -193t-355 193t-135 508zM267 681q0 -263 91 -426.5t239 -163.5t239 163.5t91 426.5t-91 425t-239 162t-239 -162t-91 -425z" />
<glyph unicode="1" horiz-adv-x="712" d="M70 1134q171 74 371 230l92 -7v-1357h-159v1171q-116 -81 -286 -166q-2 14 -7 39.5t-8 47t-3 42.5z" />
<glyph unicode="2" horiz-adv-x="1044" d="M98 111q670 587 670 888q0 122 -73 192t-204 70q-55 0 -111.5 -18t-97.5 -43.5t-74.5 -50.5t-50.5 -43l-17 -18q-2 13 -7.5 42t-8.5 52t-3 42q19 19 50 41t82 50.5t121.5 47t143.5 18.5q187 0 298 -99t111 -272q0 -71 -25 -148t-61.5 -144t-93.5 -140.5t-106 -127.5 t-114.5 -116t-103.5 -94.5t-89 -74.5t-55 -46h653q0 -17 -2.5 -37.5t-7 -45t-6.5 -36.5h-802q-2 12 -6.5 35t-7 40.5t-2.5 35.5z" />
<glyph unicode="3" horiz-adv-x="1032" d="M63 185q172 -86 357 -86q148 0 239 75.5t91 199.5q0 120 -97.5 193.5t-259.5 73.5l-103 -3q-1 11 -5.5 36.5t-7 45t-2.5 36.5q44 -5 110 -5q159 0 252.5 72.5t93.5 194.5q0 108 -82 174.5t-224 66.5q-51 0 -102.5 -11.5t-89 -27.5t-67 -32.5t-44.5 -27.5l-15 -12 q-2 13 -7 39t-8 46.5t-3 38.5q28 20 66.5 40t123 43t172.5 23q197 0 315.5 -97t118.5 -253q0 -111 -65 -199.5t-185 -129.5q132 -39 206 -127.5t74 -209.5q0 -174 -130.5 -278.5t-346.5 -104.5q-30 0 -59.5 2t-56 5.5t-49.5 7.5t-46.5 10t-39.5 10t-36 11t-28 10t-24 9.5 t-17 6.5q-1 4 -10 56t-9 78z" />
<glyph unicode="4" horiz-adv-x="1062" d="M56 425l463 935h167l-451 -911h446l22 575l128 7v-576h207q0 -18 -2.5 -37.5t-7.5 -44t-7 -37.5h-183v-336h-151v336h-613q-2 10 -7 28t-8 33t-3 28z" />
<glyph unicode="5" horiz-adv-x="1118" d="M117 205q1 -1 15 -8.5t21.5 -11t26 -12.5t32 -14.5t35 -14t39.5 -14t42.5 -12t47 -10t48.5 -6t51 -2.5q163 0 264 94t101 244q0 134 -77 215.5t-203 81.5q-50 0 -95.5 -12t-75.5 -28.5t-52.5 -33.5t-32.5 -29l-10 -12q-87 16 -121 16l72 724h711q0 -18 -2.5 -37t-7 -45 t-6.5 -37h-546l-46 -453q111 64 236 64q187 0 301 -113t114 -299q0 -203 -138.5 -330.5t-362.5 -127.5q-197 0 -360 78q-1 10 -11 63.5t-10 81.5z" />
<glyph unicode="6" horiz-adv-x="1110" d="M112 499q3 250 90.5 443.5t255.5 313.5t400 146q2 -14 7 -40.5t8.5 -49.5t3.5 -45q-129 -12 -234 -63t-177 -131t-118.5 -177t-68.5 -211q54 71 141.5 113t194.5 42q184 0 296 -113.5t112 -300.5q0 -199 -121.5 -321.5t-319.5 -122.5q-217 0 -344.5 146t-125.5 371z M270 467q-2 -162 83.5 -267t228.5 -105q129 0 209.5 88t82.5 232q2 145 -78.5 234.5t-214.5 89.5q-124 0 -217 -79t-94 -193z" />
<glyph unicode="7" horiz-adv-x="972" d="M43 1241q2 11 6.5 37t7 45t2.5 37h883q11 -71 11 -79q-180 -234 -335 -584t-239 -708l-156 17q79 344 230.5 682t321.5 553h-732z" />
<glyph unicode="8" horiz-adv-x="1124" d="M110 358q0 122 68.5 211t189.5 130q-107 40 -167.5 123.5t-60.5 194.5q0 163 116.5 263t305.5 100q188 0 305 -101t117 -262q0 -111 -61 -194t-168 -123q121 -40 189.5 -130t68.5 -213q0 -169 -124.5 -273t-325.5 -104q-202 0 -327.5 104.5t-125.5 273.5zM260 362 q0 -126 82 -201.5t220 -75.5q137 0 219.5 75.5t82.5 201.5q0 125 -82.5 200t-219.5 75q-138 0 -220 -75t-82 -200zM290 1011q0 -117 72.5 -185.5t198.5 -68.5t199.5 69t73.5 185q0 122 -73.5 193t-198.5 71t-198.5 -71.5t-73.5 -192.5z" />
<glyph unicode="9" horiz-adv-x="1110" d="M96 935q0 199 121.5 321.5t320.5 122.5q217 0 344.5 -146t125.5 -371q-3 -250 -90.5 -443.5t-255.5 -313.5t-400 -146q-2 14 -7 40.5t-8.5 49.5t-3.5 45q129 12 234 63t177 131t118.5 177t68.5 211q-54 -71 -141.5 -113t-194.5 -42q-184 0 -296.5 113.5t-112.5 300.5z M246 946q-2 -145 78.5 -234.5t214.5 -89.5q124 0 217 79t94 193q2 162 -83.5 267t-228.5 105q-129 0 -209.5 -88t-82.5 -232z" />
<glyph unicode=":" horiz-adv-x="452" d="M112 70q0 46 33 77.5t81 31.5t81 -31.5t33 -77.5q0 -47 -33 -78.5t-81 -31.5t-81 31.5t-33 78.5zM112 908q0 46 33 77t81 31t81 -31t33 -77q0 -47 -33 -79t-81 -32t-81 32t-33 79z" />
<glyph unicode=";" horiz-adv-x="452" d="M100 -329q5 5 14.5 14t32.5 37.5t40.5 56.5t32 67.5t14.5 74.5q0 29 -18 47.5t-39 27t-39 30t-18 55.5q0 42 28 70t73 28q64 0 99.5 -47t35.5 -123q0 -64 -16.5 -124t-40 -100t-46.5 -70.5t-39 -44.5l-17 -14q-18 0 -53.5 7t-43.5 8zM109 908q0 46 32.5 77t80.5 31 t81 -31t33 -77q0 -47 -33 -79t-81 -32t-80.5 32t-32.5 79z" />
<glyph unicode="&#x3c;" horiz-adv-x="1249" d="M105 655v115l1038 441v-131l-893 -368l893 -368v-130z" />
<glyph unicode="=" horiz-adv-x="1249" d="M105 432v119h1038v-119h-1038zM105 883v119h1038v-119h-1038z" />
<glyph unicode="&#x3e;" horiz-adv-x="1249" d="M105 214v130l893 368l-893 368v131l1038 -441v-115z" />
<glyph unicode="?" horiz-adv-x="968" d="M117 1372q6 4 16 9.5t43.5 20.5t68.5 26.5t86.5 21t101.5 9.5q176 0 283.5 -82t107.5 -218q0 -103 -57.5 -166t-175.5 -106l-159 -58q-83 -30 -117.5 -66.5t-34.5 -89.5q0 -77 57.5 -123.5t151.5 -46.5q50 0 93.5 12.5t61.5 24.5l19 13q2 -15 7 -40t8 -46t3 -40 q-10 -5 -27.5 -12.5t-73 -20t-111.5 -12.5q-156 0 -250.5 82.5t-94.5 221.5q0 85 50 146t158 102l185 72q74 28 110 64.5t36 94.5q0 72 -66.5 116.5t-177.5 44.5q-75 0 -146.5 -21.5t-104.5 -42.5l-34 -22q-2 13 -7 41t-7.5 50t-2.5 41zM318 71q0 46 32.5 77.5t80.5 31.5 t81.5 -31.5t33.5 -77.5q0 -47 -33.5 -78.5t-81.5 -31.5t-80.5 31.5t-32.5 78.5z" />
<glyph unicode="@" horiz-adv-x="1896" d="M120 494q0 196 70.5 367t191.5 290.5t288 188t356 68.5q341 0 546.5 -195t205.5 -516q0 -254 -111 -409t-292 -155q-119 0 -191.5 61.5t-88.5 163.5q-43 -70 -112 -110.5t-155 -40.5q-115 0 -179 83.5t-64 224.5q0 208 125 337t321 129q73 0 136.5 -13.5t90.5 -27.5 l26 -14l-57 -471q-10 -82 28 -136.5t122 -54.5q109 0 175.5 118t66.5 311q0 256 -165 411.5t-441 155.5q-153 0 -287.5 -57t-230.5 -156t-151.5 -239t-55.5 -299q0 -180 70.5 -321.5t203.5 -223t307 -81.5q84 0 166.5 17.5t122.5 35.5l41 18q-4 -23 -10 -49t-15.5 -60 t-13.5 -49q-15 -7 -41.5 -17t-109.5 -27t-165 -17q-211 0 -377 100.5t-256.5 273.5t-90.5 385zM730 521q0 -93 39 -147t114 -54q88 0 149 68.5t72 163.5l39 317q-42 8 -91 8q-141 0 -231.5 -99.5t-90.5 -256.5z" />
<glyph unicode="A" horiz-adv-x="1396" d="M40 0l581 1434q84 0 151 9l584 -1443h-182l-159 398h-644l-159 -398h-172zM415 532h556l-277 717z" />
<glyph unicode="B" horiz-adv-x="1294" d="M214 11v1412q194 24 374 25q237 0 377.5 -96.5t140.5 -265.5q0 -235 -238 -325q150 -43 229.5 -138t79.5 -231q0 -195 -154.5 -302.5t-432.5 -107.5q-91 0 -185 7t-143 15zM380 131q121 -13 219 -13q197 0 302.5 73.5t105.5 209.5q0 129 -103 200t-286 71q-96 0 -238 -10 v-531zM380 812q97 -5 159 -5q401 0 401 260q0 113 -91.5 175.5t-260.5 66.5q-16 1 -32 1q-81 0 -176 -13v-485z" />
<glyph unicode="C" horiz-adv-x="1386" d="M112 697q0 213 99.5 389t269.5 275.5t373 99.5q77 0 149.5 -10t121.5 -23.5t87 -27.5t56 -24l18 -10q0 -21 -3 -44.5t-9 -53.5t-8 -45q-6 4 -18 11t-52 24.5t-82.5 31t-107.5 24.5t-131 11q-165 0 -301 -80.5t-214.5 -223t-78.5 -317.5q0 -261 162.5 -428.5t422.5 -167.5 q78 0 151 14t121.5 34t86 40.5t55.5 34.5l17 14q0 -25 -3.5 -52.5t-9.5 -61.5t-8 -52q-7 -4 -19.5 -11.5t-55 -25.5t-89.5 -32t-120 -25.5t-149 -11.5q-160 0 -297 54.5t-232 150.5t-148.5 230t-53.5 289z" />
<glyph unicode="D" horiz-adv-x="1556" d="M214 4v1425q229 17 469 17q355 0 558 -181t203 -505q0 -166 -58.5 -309t-162.5 -245.5t-256 -160.5t-332 -58q-36 0 -78 1t-81.5 2.5t-78.5 3t-71.5 3.5t-57.5 3.5t-40 2.5zM385 137q160 -12 278 -12q278 0 443 173.5t165 453.5q0 262 -154.5 410t-419.5 148 q-44 0 -92.5 -1t-86.5 -3t-69 -3.5t-48 -2.5t-16 -1v-1162z" />
<glyph unicode="E" horiz-adv-x="1171" d="M214 0v1434h813v-136h-644v-509h567q0 -19 -3 -42t-8 -52t-7 -42h-549v-517h681v-136h-850z" />
<glyph unicode="F" horiz-adv-x="1148" d="M214 0v1434h829v-136h-660v-523h552q0 -20 -3 -41.5t-8 -47.5t-7 -40h-534v-646h-169z" />
<glyph unicode="G" horiz-adv-x="1521" d="M112 697q0 214 99.5 389.5t270 275t374.5 99.5q78 0 152 -9.5t124 -23.5t88.5 -28t57.5 -24l18 -9q0 -22 -3 -46t-9 -54t-8 -45q-7 4 -19 11t-53 25t-84.5 31.5t-110 24.5t-133.5 11q-165 0 -301.5 -80.5t-215 -223t-78.5 -317.5q0 -262 164.5 -429t432.5 -167 q176 0 330 67v413h-368q1 6 10 57t9 78h503v-617q-8 -5 -24 -14t-67.5 -32t-107 -40.5t-139.5 -32t-169 -14.5q-132 0 -248.5 35t-206.5 100t-155 154t-99 200t-34 235z" />
<glyph unicode="H" horiz-adv-x="1613" d="M214 0v1434h169v-638h848v638h169v-1434h-169v660h-848v-660h-169z" />
<glyph unicode="I" horiz-adv-x="598" d="M214 0v1434h169v-1434h-169z" />
<glyph unicode="J" horiz-adv-x="847" d="M98 151q8 -5 23 -12t61 -19t92 -12q88 0 139.5 57.5t51.5 159.5v1109h170v-1122q0 -156 -86 -247.5t-249 -91.5q-45 0 -90.5 8t-68.5 16l-23 8q-2 15 -8 45.5t-9 54.5t-3 46z" />
<glyph unicode="K" horiz-adv-x="1335" d="M214 0v1434h169v-723l671 723h214l-699 -730q93 -84 104 -95l636 -609h-233l-693 664v-664h-169z" />
<glyph unicode="L" horiz-adv-x="1185" d="M214 0v1434h169v-1298h739v-136h-908z" />
<glyph unicode="M" horiz-adv-x="1912" d="M162 0l158 1434q13 1 67.5 4t84.5 3l484 -1188l483 1181h152l159 -1434h-170l-98 891q-10 81 -15 247l-454 -1130h-131l-447 1111q-10 -169 -19 -253l-92 -866h-162z" />
<glyph unicode="N" horiz-adv-x="1619" d="M214 0v1434q13 1 53.5 4.5t62.5 3.5l913 -1147q-6 189 -6 214v924l170 1v-1434h-117l-913 1146q5 -130 5 -167v-979h-168z" />
<glyph unicode="O" horiz-adv-x="1656" d="M112 698q0 162 56.5 304.5t154.5 242.5t233.5 158t289.5 58q198 0 357.5 -93.5t250 -260t90.5 -373.5q0 -217 -93 -390.5t-261 -272t-379 -98.5q-153 0 -283.5 54.5t-221.5 150.5t-142.5 230.5t-51.5 289.5zM281 709q0 -261 151.5 -431t388.5 -170q160 0 286.5 80 t197 220.5t70.5 315.5q0 259 -154.5 430t-384.5 171q-115 0 -217.5 -46.5t-177 -127.5t-117.5 -196t-43 -246z" />
<glyph unicode="P" d="M214 0v1422q189 25 368 25q264 0 412.5 -113.5t148.5 -319.5q0 -224 -151.5 -352t-428.5 -128q-90 0 -180 11v-545h-169zM376 682q80 -14 183 -14q204 0 313 91t109 251q0 145 -102.5 224.5t-284.5 79.5q-56 0 -110.5 -3t-81.5 -6l-26 -3v-620z" />
<glyph unicode="Q" horiz-adv-x="1656" d="M112 698q0 162 56.5 304.5t154.5 242.5t233.5 158t289.5 58q198 0 357.5 -93.5t250 -260t90.5 -373.5q0 -256 -129 -449t-347 -269q99 -10 156 -21l354 -64q0 -21 -3 -43t-8.5 -51.5t-7.5 -44.5l-929 201h2q-237 56 -378.5 247.5t-141.5 457.5zM281 709 q0 -261 151.5 -431t388.5 -170q160 0 286.5 80t197 220.5t70.5 315.5q0 259 -154.5 430t-384.5 171q-115 0 -217.5 -46.5t-177 -127.5t-117.5 -196t-43 -246z" />
<glyph unicode="R" horiz-adv-x="1292" d="M214 0v1423q174 25 351 25q252 0 395 -103.5t143 -291.5q0 -148 -85 -255.5t-240 -153.5q60 -75 93 -127l333 -517h-200l-378 616q-54 -4 -85 -4q-84 0 -158 8v-620h-169zM376 754q79 -11 161 -11q198 0 301 78.5t103 219.5q0 132 -94.5 203t-267.5 71q-52 0 -102.5 -3 t-75.5 -6l-25 -3v-549z" />
<glyph unicode="S" horiz-adv-x="1114" d="M145 209q70 -37 173.5 -68t203.5 -31q123 0 203 67.5t85 172.5v18q0 83 -41 139q-46 62 -164 120l-186 93q-124 62 -183 143.5t-59 191.5q0 177 127 291t329 114q77 0 155.5 -16.5t117.5 -32.5l40 -16q0 -21 -3 -43.5t-9 -52t-8 -43.5q-14 8 -38.5 19t-98 30t-144.5 19 q-123 0 -202 -71.5t-79 -177.5q0 -139 164 -220l177 -88q165 -81 231 -175q60 -86 59 -217v-24q-7 -167 -132.5 -271.5t-319.5 -104.5q-211 0 -375 71q0 8 -12 70q-11 57 -11 88v5z" />
<glyph unicode="T" d="M31 1298v136h1169v-136h-500v-1298h-169v1298h-500z" />
<glyph unicode="U" horiz-adv-x="1558" d="M197 586v848h169v-848q0 -220 113 -349t305 -129t304.5 129t112.5 349v848h160v-848q0 -285 -154 -449t-423 -164q-274 0 -430.5 164t-156.5 449z" />
<glyph unicode="V" horiz-adv-x="1386" d="M40 1434h192l384 -955q44 -112 90 -256l467 1211h174l-574 -1434h-158z" />
<glyph unicode="W" horiz-adv-x="2144" d="M40 1434h180l334 -1031q9 -28 45 -162l398 1193h161l387 -1193q36 134 45 162l334 1031h180l-462 -1434h-165l-400 1177l-411 -1177h-163z" />
<glyph unicode="X" horiz-adv-x="1351" d="M60 1434h203l219 -306q122 -174 188 -300l418 606h183l-496 -703l509 -731h-202l-206 292q-139 203 -207 336l-420 -628h-182l497 723z" />
<glyph unicode="Y" horiz-adv-x="1286" d="M40 1434h194l330 -579q45 -79 88 -183l417 762h177l-517 -906v-528h-170v528z" />
<glyph unicode="Z" horiz-adv-x="1234" d="M107 92l732 1112q28 42 71 94h-767q1 14 5 42t6 51.5t2 42.5h956q0 -16 2.5 -33t7.5 -41t6 -33l-707 -1076q-26 -39 -86 -115h767q0 -19 -3 -42t-8 -52.5t-7 -41.5h-968q-1 10 -3.5 29t-4 34t-1.5 29z" />
<glyph unicode="[" horiz-adv-x="768" d="M214 -307v1741h455q0 -22 7.5 -64.5t8.5 -47.5h-309v-1517h294q1 -9 8.5 -49.5t7.5 -62.5h-472z" />
<glyph unicode="\" horiz-adv-x="712" d="M-57 1536h134l578 -1782h-135z" />
<glyph unicode="]" horiz-adv-x="808" d="M122 1434h472v-1741h-455q0 22 -7.5 64.5t-8.5 47.5h309v1516h-294q-1 8 -8.5 49.5t-7.5 63.5z" />
<glyph unicode="^" horiz-adv-x="1249" d="M189 801l367 633h137l367 -633h-156l-280 499l-279 -499h-156z" />
<glyph unicode="_" horiz-adv-x="1024" d="M0 -41h1024v-112h-1024v112z" />
<glyph unicode="`" horiz-adv-x="458" d="M49 1535q19 3 53.5 9.5t63 10.5t53.5 4l190 -320h-130z" />
<glyph unicode="a" horiz-adv-x="1089" d="M97 268q0 156 123.5 244.5t336.5 88.5h194v51v12q0 128 -64 194q-67 68 -190 68q-76 0 -152.5 -27t-114.5 -53l-38 -27q-2 14 -7 39.5t-8 46t-3 39.5q6 4 17 11t46.5 24t74 30t97 24t117.5 11q190 0 290 -98q96 -94 95 -268v-14l-10 -483q-1 -93 76 -93q20 0 37 7t24 13 l6 7q0 -19 -3 -37.5t-7 -39.5t-6 -33q-33 -25 -95 -25q-82 0 -128.5 47t-45.5 135l-1 8q-53 -88 -138.5 -139t-198.5 -51q-144 0 -234 79.5t-90 208.5zM254 284q0 -83 55 -134t145 -51q73 0 130.5 31t91.5 83t51.5 112.5t19.5 125.5l1 37h-194q-142 0 -221 -53t-79 -151z " />
<glyph unicode="b" horiz-adv-x="1181" d="M180 32v4v1487q23 0 50 4t59 10t50 8v-728q54 100 141.5 157t199.5 57q179 0 294.5 -131.5t115.5 -363.5q0 -252 -138.5 -410.5t-374.5 -158.5q-85 0 -171.5 16.5t-146.5 32.5t-79 16zM339 127q126 -42 220 -42q89 0 159 35.5t113.5 97t66.5 141.5t23 173q0 180 -79 277 t-201 97q-130 0 -215.5 -118t-86.5 -297v-364z" />
<glyph unicode="c" horiz-adv-x="1021" d="M98 503q2 244 146.5 392.5t379.5 148.5q206 0 329 -83q0 -19 -3 -39.5t-9 -47t-8 -38.5q-3 3 -11.5 10t-34.5 22t-56 27t-79 21.5t-101 9.5q-173 0 -279 -114q-107 -116 -106 -306q0 -180 106 -292q107 -113 281 -113q151 0 305 104q0 -21 -4 -44.5t-10 -51t-8 -43.5 q-26 -17 -62 -34t-107 -34.5t-143 -17.5q-242 0 -385 144q-141 142 -141 373v6z" />
<glyph unicode="d" horiz-adv-x="1191" d="M92 476q0 252 138 410t374 158q109 0 237 -29v509q23 0 50 4t59.5 10t50.5 8v-1163q0 -91 7.5 -186.5t15.5 -146.5l8 -50h-145q-24 85 -37 210q-54 -106 -143.5 -168t-205.5 -62q-179 0 -294 132t-115 364zM260 479q0 -180 79 -276.5t201 -96.5q130 0 215.5 118t85.5 297 v364q-123 41 -219 41q-89 0 -159 -35.5t-113.5 -97t-66.5 -141.5t-23 -173z" />
<glyph unicode="e" horiz-adv-x="1071" d="M91 513q1 155 66.5 277t177 188t247.5 66q116 0 205.5 -39t138 -107t64.5 -158q5 -29 4 -60q0 -63 -21 -132l-722 -54q4 -184 99 -290t270 -106q56 0 112.5 14t97 34.5t73 41t48.5 34.5l16 14q0 -22 -4 -47t-10 -54.5t-8 -46.5q-12 -9 -33.5 -22t-67.5 -35t-112 -36.5 t-136 -14.5q-237 0 -372 144q-133 142 -133 382v7zM259 611l576 43q3 24 3 47q0 90 -54 150q-68 75 -199 75q-126 0 -214 -84t-112 -231z" />
<glyph unicode="f" horiz-adv-x="712" d="M68 912q1 4 8.5 46.5t7.5 65.5h153v152q0 360 308 360q35 0 67.5 -4t47.5 -8l14 -5q2 -13 7 -38.5t7.5 -46t2.5 -38.5q-44 21 -106 21q-188 0 -188 -256v-137h286q0 -22 -7.5 -64.5t-8.5 -47.5h-270v-912h-160v912h-169z" />
<glyph unicode="g" horiz-adv-x="1120" d="M90 -155q0 48 17 90.5t46.5 74t59 53t62.5 39.5q-122 55 -122 159q0 112 126 180q-129 97 -129 256q0 153 116.5 250t299.5 97q100 0 180 -30q16 5 31.5 13.5t35.5 24.5t33.5 41.5t14.5 57.5q12 2 43 7.5t56 9t43 3.5q0 -47 -16 -85.5t-42.5 -63t-50 -38.5t-49.5 -24 q128 -98 128 -257q0 -153 -116 -250t-299 -97q-107 0 -195 37q-62 -32 -62 -85q0 -86 187 -100l274 -21q129 -10 192 -72.5t63 -163.5q0 -169 -145.5 -274t-375.5 -105q-185 0 -295.5 76t-110.5 197zM230 -137q0 -77 73.5 -123.5t204.5 -46.5q157 0 257.5 64.5t100.5 163.5 q0 108 -135 119l-292 23l-46 5q-163 -82 -163 -205zM304 701q0 -104 71 -169t186 -65t187 65t72 169t-71.5 168.5t-187.5 64.5q-115 0 -186 -64.5t-71 -168.5z" />
<glyph unicode="h" horiz-adv-x="1220" d="M180 0v1523q23 0 50 4t59 10t50 8v-737q61 112 161 174t222 62q159 0 242.5 -91.5t83.5 -256.5v-696h-160v657q0 121 -55.5 186t-160.5 65q-137 0 -235 -125t-98 -318v-465h-159z" />
<glyph unicode="i" horiz-adv-x="518" d="M152 1395q0 44 31.5 76t75.5 32t76 -32t32 -76t-32 -76t-76 -32t-75.5 32t-31.5 76zM180 0v1011q23 0 50 4t59 10t50 8v-1033h-159z" />
<glyph unicode="j" horiz-adv-x="518" d="M-46 -294q44 -17 97 -17q129 0 129 188v1134q31 1 87 10.5t72 11.5v-1154q0 -149 -64.5 -229t-183.5 -80q-31 0 -61 4t-44 8l-14 5q-1 10 -9.5 53t-8.5 66zM153 1395q0 44 32 76t76 32t75.5 -32t31.5 -76t-31.5 -76t-75.5 -32t-76 32t-32 76z" />
<glyph unicode="k" horiz-adv-x="1073" d="M180 0v1523q23 0 50 4t59 10t50 8v-982l477 460q39 0 112.5 4.5t86.5 5.5l-499 -486l530 -547q-15 0 -87.5 -3.5t-110.5 -3.5l-509 524v-517h-159z" />
<glyph unicode="l" horiz-adv-x="518" d="M180 0v1525q30 0 85.5 10.5t73.5 12.5v-1548h-159z" />
<glyph unicode="m" horiz-adv-x="1906" d="M160 1011q29 0 138 19q35 -115 48 -278q57 136 161.5 214t225.5 78q135 0 214 -75t93 -211q58 133 161.5 209.5t223.5 76.5q150 0 230.5 -92t80.5 -256v-696h-160v657q0 121 -54.5 186t-155.5 65q-132 0 -227 -125t-96 -318v-465h-159v657q0 121 -54.5 186t-155.5 65 q-133 0 -228.5 -125.5t-95.5 -318.5v-464h-160v627q0 91 -7.5 187t-14.5 146z" />
<glyph unicode="n" d="M160 1011q29 0 138 19q32 -109 46 -264q57 131 164.5 204.5t231.5 73.5q153 0 235.5 -92t82.5 -256v-696h-159v657q0 121 -56 185.5t-161 64.5q-136 0 -233.5 -124.5t-98.5 -316.5v-466h-160v627q0 91 -7.5 187t-14.5 146z" />
<glyph unicode="o" horiz-adv-x="1204" d="M91 499q0 239 147 392t377 153q220 0 358.5 -145t138.5 -374q0 -239 -146.5 -392t-375.5 -153q-220 0 -359.5 145t-139.5 374zM258 507q0 -179 95 -293.5t244 -114.5q152 0 250 117.5t98 301.5q0 178 -94.5 292.5t-242.5 114.5q-153 0 -251.5 -117t-98.5 -301z" />
<glyph unicode="p" horiz-adv-x="1183" d="M160 1011q27 0 136 19q24 -90 38 -218q54 107 143 169.5t206 62.5q179 0 294.5 -132t115.5 -364q0 -252 -138.5 -410.5t-374.5 -158.5q-104 0 -236 30v-419q-23 0 -50 -4t-59.5 -10t-50.5 -8v1059q0 91 -6 187t-12 146zM344 139q123 -41 219 -41q117 0 200.5 62t122 161 t38.5 224q0 180 -78.5 276.5t-200.5 96.5q-130 0 -215.5 -118t-85.5 -297v-364z" />
<glyph unicode="q" horiz-adv-x="1179" d="M92 476q0 252 138 410t374 158q85 0 171.5 -16.5t146.5 -32.5t79 -16v-1389q-23 0 -50 -4t-59.5 -10t-50.5 -8v625q-55 -99 -142 -156t-198 -57q-179 0 -294 132t-115 364zM260 479q0 -180 79 -276.5t201 -96.5q130 0 215.5 118t85.5 297v364q-123 41 -219 41 q-89 0 -159 -35.5t-113.5 -97t-66.5 -141.5t-23 -173z" />
<glyph unicode="r" horiz-adv-x="770" d="M160 1011q29 0 138 19q35 -117 48 -281q50 139 146.5 217t220.5 78q0 -24 -3.5 -49t-9.5 -56t-9 -49q-13 1 -26 1q-78 1 -144 -45q-77 -54 -123.5 -165.5t-47.5 -259.5v-421h-160v627q0 91 -7.5 187t-14.5 146z" />
<glyph unicode="s" horiz-adv-x="854" d="M108 178q14 -9 38 -22.5t96.5 -35.5t140.5 -22q98 0 156.5 49t58.5 129q0 56 -30 90.5t-92 60.5l-162 72q-98 43 -141.5 105t-43.5 150q0 131 93 210.5t251 79.5q133 0 244 -47q0 -18 -3 -38.5t-8 -45.5t-7 -38q-10 6 -28 14.5t-73.5 22.5t-109.5 14q-96 0 -150 -43 t-54 -121q0 -50 29.5 -85t98.5 -65l139 -60q106 -46 156.5 -107t50.5 -162q0 -138 -99 -220.5t-262 -82.5q-150 0 -269 52q-2 4 -12 61q-9 48 -8 75v10z" />
<glyph unicode="t" horiz-adv-x="731" d="M61 912q1 5 8.5 47.5t7.5 64.5q30 -3 55 -3q59 0 85 19q25 18 35 74q6 37 7 103q0 35 -2 78q22 0 75 9t55 9v-289h289q0 -17 -2.5 -34.5t-7 -43t-6.5 -34.5h-272v-620q0 -112 39 -153t118 -41q35 0 68.5 11t48.5 23l16 11q0 -18 -3.5 -40t-8.5 -48t-7 -40 q-75 -35 -153 -35q-134 0 -206 69.5t-72 227.5v635h-167z" />
<glyph unicode="u" d="M172 328v682q31 0 89.5 11t70.5 13v-667q0 -121 55.5 -185.5t160.5 -64.5q137 0 234.5 125t97.5 318v464h160v-641q0 -91 8 -186.5t16 -146.5l7 -50h-144q-27 94 -40 230q-60 -119 -161.5 -184.5t-227.5 -65.5q-159 0 -242.5 91.5t-83.5 256.5z" />
<glyph unicode="v" horiz-adv-x="1060" d="M44 1010q24 0 51 3.5t60 10t51 9.5l334 -840l328 831h155l-420 -1024h-147z" />
<glyph unicode="w" horiz-adv-x="1695" d="M84 1009q32 0 90 10t74 12l248 -828l280 821h143l280 -821l246 821h172l-332 -1024h-151l-286 788l-286 -788h-151z" />
<glyph unicode="x" horiz-adv-x="1034" d="M54 0l366 513l-359 499q25 0 53.5 3.5t63 9.5t53.5 8l293 -418l276 409h179l-369 -503l379 -521h-193l-283 412l-283 -412h-176z" />
<glyph unicode="y" horiz-adv-x="1058" d="M44 1010q25 0 52 3.5t60.5 10t51.5 9.5l330 -848l326 839h155l-578 -1429q-32 0 -91 -8.5t-76 -10.5l197 430h-19z" />
<glyph unicode="z" horiz-adv-x="903" d="M76 80l554 825h-527q2 11 6.5 37t7 45t2.5 37h706q0 -12 2 -25.5t5.5 -30.5t4.5 -26l-556 -823h546q0 -18 -2.5 -37.5t-7.5 -44t-7 -37.5h-723q-11 74 -11 80z" />
<glyph unicode="{" horiz-adv-x="765" d="M135 620q42 0 70.5 8.5t51.5 32.5t33 66t10 109t-12 162q-15 118 -2.5 204t59 142t130.5 83t212 27v-112q-156 0 -216 -86.5t-29 -290.5q13 -99 10 -167t-27 -116t-56 -75t-78 -43q46 -17 78.5 -44.5t56 -75.5t26.5 -116t-10 -166q-31 -204 29 -289.5t216 -85.5v-113 q-128 0 -212 27t-130.5 83t-59 142t2.5 204q12 93 12 159.5t-9 107.5t-30 65t-46.5 33t-63.5 10q-1 5 -8.5 48.5t-7.5 66.5z" />
<glyph unicode="|" horiz-adv-x="581" d="M214 -410v1946h154v-1946h-154z" />
<glyph unicode="}" horiz-adv-x="765" d="M79 -213q156 0 216 85.5t29 289.5q-13 98 -10 166t26.5 116t56 75.5t78.5 44.5q-46 16 -78 43t-56 75t-27 116t10 167q31 204 -29 290.5t-216 86.5v112q128 0 212 -27t130.5 -83t59 -142t-2.5 -204q-12 -95 -12 -162t10 -109t33 -66t51.5 -32.5t70.5 -8.5 q0 -23 -7.5 -66.5t-8.5 -48.5q-38 -1 -63.5 -10t-46.5 -33t-30 -65t-9 -107.5t12 -159.5q15 -118 2.5 -204t-59 -142t-130.5 -83t-212 -27v113z" />
<glyph unicode="~" horiz-adv-x="1249" d="M113 745q23 21 40.5 33.5t52 34t76 33t85.5 11.5q70 0 167 -39.5t192.5 -79t161.5 -39.5q38 0 76 12t65 29.5t48.5 35t32.5 29.5l11 12q1 -4 10 -51.5t9 -72.5q-124 -112 -254 -112q-56 0 -130 24.5t-134 54t-132 54t-124 24.5q-38 0 -75.5 -12t-65 -29t-49.5 -34.5 t-33 -29.5l-11 -12q-1 4 -10 51.5t-9 72.5z" />
<glyph unicode="&#xa1;" horiz-adv-x="561" d="M167 954q0 47 33 78.5t81 31.5t81 -31.5t33 -78.5q0 -46 -33 -77.5t-81 -31.5t-81 31.5t-33 77.5zM196 -410l21 1047q19 0 40 3t46.5 8t39.5 7l22 -1065h-169z" />
<glyph unicode="&#xa2;" horiz-adv-x="1030" d="M98 672q1 232 133 379t351 161v148h119v-150q159 -16 252 -80q0 -19 -3 -39.5t-9 -46t-8 -38.5q-7 7 -26 20.5t-78 37t-128 29.5v-177h-119v174q-145 -23 -230 -133.5t-86 -278.5q-1 -162 85 -271t231 -132v169h119v-172q125 14 257 102q0 -21 -4 -44.5t-10 -51t-8 -43.5 q-99 -64 -235 -81v-154h-119v150q-224 13 -355 155t-129 367z" />
<glyph unicode="&#xa3;" horiz-adv-x="1138" d="M162 90q11 8 29.5 23t66.5 61.5t84 92t66 109t30 119.5q0 31 -4 54h-233q1 6 8.5 49.5t7.5 66.5h168q-11 17 -36 51t-39.5 57.5t-32 59.5t-26 79.5t-8.5 94.5q0 169 116 281.5t297 112.5q76 0 154 -15.5t118 -30.5l40 -15q0 -20 -3.5 -42.5t-8.5 -49t-7 -41.5 q-14 7 -38 18t-97.5 29.5t-143.5 18.5q-118 0 -191.5 -74t-73.5 -188q0 -71 26 -128t71 -119t63 -99h369q0 -23 -7.5 -66.5t-8.5 -49.5h-320l1 -32q0 -64 -24 -129t-62.5 -116.5t-69 -83.5t-60.5 -58h634q0 -20 -2.5 -41t-7.5 -48.5t-7 -40.5h-825q-1 5 -7 38.5t-6 51.5z " />
<glyph unicode="&#xa4;" horiz-adv-x="1329" d="M109 238l187 186q-98 122 -98 281t98 281l-187 186l86 86l185 -186q126 100 286 99.5t283 -99.5l185 186l87 -86l-187 -186q98 -122 98 -281t-98 -281l187 -186l-87 -86l-185 186q-126 -100 -286 -99.5t-283 99.5l-185 -186zM351.5 644.5q20.5 -133.5 127.5 -210.5 q70 -51 154 -57.5t161 31t128 111.5q77 113 56.5 246.5t-127.5 210.5q-70 51 -154 57.5t-161 -31t-128 -111.5q-77 -113 -56.5 -246.5z" />
<glyph unicode="&#xa5;" horiz-adv-x="1236" d="M40 1374h185l345 -600q35 -60 58 -134l400 734h170l-457 -796h250q0 -23 -7.5 -66.5t-8.5 -49.5h-274v-69h290q0 -23 -7.5 -66.5t-8.5 -49.5h-274v-277h-162v277h-281q1 6 8.5 49.5t7.5 66.5h265v69h-281q1 6 8.5 49.5t7.5 66.5h224z" />
<glyph unicode="&#xa6;" horiz-adv-x="581" d="M214 399h154v-809h-154v809zM214 727v809h154v-809h-154z" />
<glyph unicode="&#xa7;" horiz-adv-x="1038" d="M102 -221q211 -86 375 -86q126 0 208 58t82 149q0 80 -47 131t-169 99l-186 80q-127 55 -186.5 126.5t-59.5 170.5q0 111 77 194.5t210 120.5l-43 18q-129 52 -189.5 122.5t-60.5 170.5q0 148 123 245t318 97q76 0 154 -14t118 -28l39 -14q0 -19 -3 -39.5t-8 -46 t-7 -39.5q-14 6 -38.5 16t-97.5 26t-144 16q-125 0 -205 -59.5t-80 -147.5q0 -61 42 -106.5t132 -82.5l192 -84q155 -64 219 -139.5t64 -191.5q0 -109 -74.5 -189t-201.5 -118q151 -62 216.5 -138t65.5 -197q0 -145 -124 -237t-315 -92q-205 0 -375 62q-2 17 -8 46.5 t-9.5 54t-3.5 46.5zM257 525q0 -66 45 -114.5t147 -90.5l13 -5q150 2 240 60t90 146q0 77 -45 128.5t-159 99.5q-145 -1 -238 -65t-93 -159z" />
<glyph unicode="&#xa8;" horiz-adv-x="591" d="M33 1393q0 42 28.5 70.5t69.5 28.5q40 0 68.5 -28.5t28.5 -70.5q0 -41 -28.5 -68.5t-68.5 -27.5q-41 0 -69.5 27.5t-28.5 68.5zM364 1393q0 42 29.5 70.5t68.5 28.5t68 -28.5t29 -70.5q0 -41 -29 -68.5t-68 -27.5t-68.5 27.5t-29.5 68.5z" />
<glyph unicode="&#xa9;" horiz-adv-x="1738" d="M113 718q0 154 60 294.5t161.5 242t242 161.5t294.5 60t294.5 -60t241.5 -161.5t161 -242t60 -294.5t-60 -294.5t-161 -241.5t-241.5 -161t-294.5 -60t-294.5 60t-242 161t-161.5 241.5t-60 294.5zM234 718q0 -132 51 -252.5t137 -207t203.5 -137.5t245.5 -51t245.5 51 t203 137.5t136.5 207t51 252.5t-51 252.5t-136.5 207t-203 137.5t-245.5 51t-245.5 -51t-203.5 -137.5t-137 -207t-51 -252.5zM485 705q0 171 119 287t289 116q129 0 230 -44q0 -13 -13 -96q-95 46 -199 46q-133 0 -219.5 -87t-86.5 -217q0 -131 83.5 -212.5t220.5 -81.5 q22 0 44 2t39.5 6t34 8.5t30 10t24.5 10.5t19 9.5t14 8.5l9 6l3 2q0 -17 -2 -35t-6.5 -41.5t-5.5 -33.5l-3 -1q-3 -2 -9 -5t-14.5 -6.5t-20 -7t-25 -7.5t-30.5 -7.5t-35 -6.5t-39.5 -4.5t-43.5 -1.5q-181 0 -294 107.5t-113 275.5z" />
<glyph unicode="&#xaa;" horiz-adv-x="704" d="M68 678q0 97 72.5 147t193.5 50h110v21q4 153 -142 153q-44 0 -88 -15.5t-66 -31.5l-23 -15q-1 9 -5.5 30t-6.5 37t-2 30q10 7 28 16.5t74.5 26t114.5 16.5q120 0 182 -60t58 -176l-6 -264q-1 -54 43 -54q12 0 21 3.5t12 7.5l4 4q0 -15 -1.5 -29t-5 -30t-4.5 -25 q-23 -16 -65 -16q-49 0 -80 26t-36 77q-68 -103 -190 -103q-86 0 -139 48t-53 126zM183 700q0 -47 30 -74.5t80 -27.5q71 0 108.5 53.5t39.5 126.5l1 33h-102q-74 0 -115.5 -28.5t-41.5 -82.5z" />
<glyph unicode="&#xab;" horiz-adv-x="1071" d="M95 512l291 369h138l-260 -369l260 -369h-138zM548 512l290 369h138l-260 -369l260 -369h-138z" />
<glyph unicode="&#xac;" horiz-adv-x="1253" d="M105 657v119h1043v-489h-125v370h-918z" />
<glyph unicode="&#xad;" horiz-adv-x="743" d="M61 456v112h622v-112h-622z" />
<glyph unicode="&#xae;" horiz-adv-x="1738" d="M113 718q0 206 101.5 380.5t276 276t380.5 101.5q154 0 294.5 -60t241.5 -161.5t161 -242t60 -294.5t-60 -294.5t-161 -241.5t-241.5 -161t-294.5 -60t-294.5 60t-242 161t-161.5 241.5t-60 294.5zM234 718q0 -132 51 -252.5t136.5 -207t203.5 -137.5t246 -51t245.5 51 t203 137.5t136.5 207t51 252.5t-51 252.5t-136.5 207t-203 137.5t-245.5 51t-245.5 -51t-203.5 -137.5t-137 -207t-51 -252.5zM623 332v761q108 15 209 15q148 0 231 -63t83 -176q0 -81 -42 -140t-120 -88q32 -31 64 -82l144 -227l-135 -6l-183 292l-45 -2q-52 0 -87 5v-289 h-119zM731 707q45 -9 95 -9q98 0 152 45t54 123q0 71 -50.5 110t-140.5 39l-110 -5v-303z" />
<glyph unicode="&#xaf;" horiz-adv-x="653" d="M41 1322v111h572q0 -22 -7.5 -64t-8.5 -47h-556z" />
<glyph unicode="&#xb0;" horiz-adv-x="788" d="M131 1189q0 109 77.5 187t184.5 78q109 0 187.5 -78t78.5 -187q0 -107 -78.5 -185t-187.5 -78q-107 0 -184.5 78t-77.5 185zM251 1189q0 -61 42 -104.5t100 -43.5q59 0 102 43.5t43 104.5q0 63 -42.5 106.5t-102.5 43.5q-58 0 -100 -43.5t-42 -106.5z" />
<glyph unicode="&#xb1;" horiz-adv-x="1249" d="M105 1v118h1038v-118h-1038zM105 728v119h458v460h124v-460h456v-119h-456v-460h-124v460h-458z" />
<glyph unicode="&#xb2;" horiz-adv-x="759" d="M113 1076q32 26 64.5 54.5t97 91.5t111 118.5t83 121.5t36.5 115q0 62 -38.5 98t-110.5 36q-32 0 -65 -10t-58 -24.5t-45 -29.5t-30 -25l-11 -10q0 1 -8 45t-8 65q14 13 41.5 30.5t88 38.5t121.5 21q119 0 189 -59.5t70 -164.5q0 -44 -15 -91t-38 -86.5t-56 -81t-64 -73 t-67.5 -63.5t-60.5 -50.5t-49 -37t-28 -21.5h379q0 -14 -14 -101h-502q-2 10 -5.5 29.5t-5.5 34t-2 29.5z" />
<glyph unicode="&#xb3;" horiz-adv-x="759" d="M109 1124l7 -4q7 -3 16.5 -7.5t24 -10t33 -11t39 -10t45.5 -7.5t50 -3q82 0 132 39.5t50 104.5q0 61 -52.5 99t-140.5 38l-66 -3q-1 9 -5 30t-6 38.5t-2 30.5q27 -3 72 -3q90 0 141.5 37.5t51.5 102.5q0 57 -44.5 91t-123.5 34q-50 0 -98 -16t-71 -32l-24 -15 q-2 10 -6 31.5t-6.5 38.5t-2.5 32q14 10 38 21.5t79.5 25.5t115.5 14q124 0 199.5 -60t75.5 -156q0 -61 -36.5 -113.5t-104.5 -79.5q75 -25 116.5 -76t41.5 -120q0 -107 -84 -170.5t-223 -63.5q-29 0 -57.5 3t-48.5 6.5t-41 9t-31.5 9t-24 9t-14.5 5.5q-2 12 -6 35 t-6.5 41.5t-2.5 34.5z" />
<glyph unicode="&#xb4;" horiz-adv-x="477" d="M51 1239l173 299q9 1 86.5 10t117.5 9l-248 -318h-129z" />
<glyph unicode="&#xb5;" horiz-adv-x="1259" d="M171 -410v1183h7v237q31 0 89.5 11t70.5 13v-667q0 -121 55.5 -185.5t160.5 -64.5q137 0 235 125t98 318v464h159v-641q0 -91 8 -186.5t16 -146.5l7 -50h-144q-26 94 -39 230q-60 -118 -162 -184t-228 -66q-105 0 -178 41v-431h-155z" />
<glyph unicode="&#xb6;" horiz-adv-x="1155" d="M87 992q0 183 129 312.5t312 129.5h447v-1598h-117v1464h-212v-1464h-118v714q-183 0 -312 129.5t-129 312.5z" />
<glyph unicode="&#xb7;" horiz-adv-x="452" d="M112 766q0 46 33 77.5t81 31.5t81 -31.5t33 -77.5q0 -47 -33 -78.5t-81 -31.5t-81 31.5t-33 78.5z" />
<glyph unicode="&#xb8;" horiz-adv-x="407" d="M48 -281q7 -10 36.5 -21t63.5 -11q45 0 71 21.5t26 58.5q0 34 -26.5 56t-72.5 22q-39 0 -50 -7l69 188l83 -26l-37 -102q73 -5 115 -45t42 -106q0 -72 -52.5 -118.5t-137.5 -46.5q-67 0 -114 26q-1 8 -8.5 49t-7.5 62z" />
<glyph unicode="&#xb9;" horiz-adv-x="759" d="M207 1663q105 41 226 139l78 -6v-813h-135v658q-82 -54 -154 -87l-6 33t-6.5 40.5t-2.5 35.5z" />
<glyph unicode="&#xba;" horiz-adv-x="753" d="M64 815q0 145 89 236.5t230 91.5q134 0 218.5 -86.5t84.5 -224.5q0 -145 -89 -236.5t-230 -91.5q-135 0 -219 86.5t-84 224.5zM192 821q0 -98 51 -160.5t131 -62.5q81 0 132.5 64t51.5 164q0 98 -51 160.5t-130 62.5q-82 0 -133.5 -63.5t-51.5 -164.5z" />
<glyph unicode="&#xbb;" horiz-adv-x="1071" d="M95 143l261 369l-261 369h139l290 -369l-290 -369h-139zM548 143l260 369l-260 369h138l290 -369l-290 -369h-138z" />
<glyph unicode="&#xbc;" horiz-adv-x="1697" d="M207 1220q102 40 226 140l78 -6v-813h-135v657q-77 -51 -154 -86q-2 11 -6 32.5t-6.5 40t-2.5 35.5zM468 -76l755 1556l108 -53l-754 -1556zM1012 278l270 538h143l-267 -520h241l20 319l94 6v-319h123q0 -15 -2 -31t-6 -37t-6 -32h-102v-202h-128v202h-367q-1 4 -7 32.5 t-6 43.5z" />
<glyph unicode="&#xbd;" horiz-adv-x="1806" d="M207 1220q102 40 226 140l78 -6v-813h-135v657q-77 -51 -154 -86q-2 11 -6 32.5t-6.5 40t-2.5 35.5zM468 -76l755 1556l108 -53l-754 -1556zM1160 93q32 26 64.5 54.5t97 91.5t111 118.5t83 121.5t36.5 115q0 62 -38.5 98t-110.5 36q-51 0 -103 -25t-79 -49l-27 -25 q0 1 -8 45t-8 65q14 13 41.5 30.5t88 38.5t121.5 21q119 0 189 -59.5t70 -164.5q0 -44 -15 -91t-38 -86.5t-56 -81t-64 -73t-67.5 -63.5t-60.5 -50.5t-49 -37t-28 -21.5h379q0 -20 -13 -101h-503q-2 10 -5.5 29.5t-5.5 34t-2 29.5z" />
<glyph unicode="&#xbe;" horiz-adv-x="1705" d="M109 682l7 -4q7 -3 16.5 -7.5t24 -10t33 -11t39 -10t45.5 -7.5t50 -3q82 0 132 39.5t50 104.5q0 61 -52.5 99t-140.5 38l-66 -4q-1 9 -5 30.5t-6 39t-2 30.5q27 -4 72 -4q90 0 141.5 38t51.5 103q0 57 -44 90.5t-124 33.5q-50 0 -98 -15.5t-71 -31.5l-24 -16q-2 10 -6 32 t-6.5 39t-2.5 32q14 10 38 21.5t79.5 25.5t115.5 14q124 0 199.5 -60t75.5 -156q0 -61 -36.5 -114t-104.5 -80q75 -25 116.5 -76t41.5 -120q0 -107 -84 -170.5t-223 -63.5q-29 0 -57.5 3t-48.5 6.5t-41 9.5t-32 10t-24 9t-14 5q-2 12 -6 35t-6.5 41.5t-2.5 34.5zM477 -76 l754 1556l108 -53l-754 -1556zM1020 278l271 538h143l-268 -520h241l21 319l94 6v-319h123q0 -15 -2 -31t-6 -37t-6 -32h-102v-202h-129v202h-367q-1 4 -7 32.5t-6 43.5z" />
<glyph unicode="&#xbf;" horiz-adv-x="976" d="M153 -127q0 103 57.5 166t175.5 106l160 58q83 30 117.5 66.5t34.5 89.5q0 77 -58 123.5t-152 46.5q-50 0 -93.5 -12.5t-62.5 -24.5l-18 -13q-2 15 -6.5 40t-7.5 45.5t-3 40.5q9 5 26.5 12.5t73 20t111.5 12.5q156 0 250.5 -82.5t94.5 -221.5q0 -85 -50 -146t-158 -102 l-185 -72q-74 -28 -110 -64.5t-36 -94.5q0 -72 66.5 -116.5t177.5 -44.5q75 0 146.5 21.5t105.5 42.5l33 22q2 -13 7 -41t7.5 -50t2.5 -41q-6 -4 -16 -9.5t-43.5 -20.5t-68 -26.5t-86 -21t-101.5 -9.5q-176 0 -284 82t-108 218zM432 962q0 47 33 78.5t81 31.5t80.5 -31.5 t32.5 -78.5q0 -46 -32.5 -77.5t-80.5 -31.5t-81 31.5t-33 77.5z" />
<glyph unicode="&#xc0;" horiz-adv-x="1396" d="M40 0l581 1434q84 0 151 9l584 -1443h-182l-159 398h-644l-159 -398h-172zM397 1877q19 3 53.5 9.5t63 10.5t53.5 4l189 -319h-129zM415 532h556l-277 717z" />
<glyph unicode="&#xc1;" horiz-adv-x="1396" d="M40 0l581 1434q84 0 151 9l584 -1443h-182l-159 398h-644l-159 -398h-172zM415 532h556l-277 717zM642 1582l172 298q13 1 89 10.5t116 9.5l-248 -318h-129z" />
<glyph unicode="&#xc2;" horiz-adv-x="1396" d="M40 0l581 1434q84 0 151 9l584 -1443h-182l-159 398h-644l-159 -398h-172zM398 1598l248 299h89l255 -307h-129l-170 162l-179 -174q-17 0 -36 3t-42.5 9t-35.5 8zM415 532h556l-277 717z" />
<glyph unicode="&#xc3;" horiz-adv-x="1396" d="M40 0l581 1434q84 0 151 9l584 -1443h-182l-159 398h-644l-159 -398h-172zM407 1621q-9 202 137 202q55 0 143 -44q74 -37 116 -37q36 0 56 20t23 40l2 20q12 0 26 -2t31 -5.5t26 -4.5q9 -202 -137 -202q-59 0 -147 45q-70 36 -112 36q-36 0 -56 -20t-23 -40l-2 -20 q-9 1 -26 4.5t-31 5.5t-26 2zM415 532h556l-277 717z" />
<glyph unicode="&#xc4;" horiz-adv-x="1396" d="M40 0l581 1434q84 0 151 9l584 -1443h-182l-159 398h-644l-159 -398h-172zM415 532h556l-277 717zM428 1736q0 42 28.5 70.5t69.5 28.5q40 0 68.5 -28.5t28.5 -70.5q0 -41 -28.5 -68.5t-68.5 -27.5q-41 0 -69.5 27.5t-28.5 68.5zM759 1736q0 42 29.5 70.5t68.5 28.5 t68 -28.5t29 -70.5q0 -41 -29 -68.5t-68 -27.5t-68.5 27.5t-29.5 68.5z" />
<glyph unicode="&#xc5;" horiz-adv-x="1396" d="M40 0l576 1421q-62 23 -100.5 77t-38.5 122q0 88 62.5 150.5t150.5 62.5t150.5 -62.5t62.5 -150.5q0 -63 -34.5 -115.5t-90.5 -77.5l578 -1427h-182l-159 398h-644l-159 -398h-172zM415 532h556l-277 717zM596 1620q0 -42 27.5 -70t66.5 -28t66.5 28t27.5 70t-27.5 70 t-66.5 28t-66.5 -28t-27.5 -70z" />
<glyph unicode="&#xc6;" horiz-adv-x="1687" d="M28 0l707 1434h15h815v-136h-621l86 -509h459q0 -20 -3 -42.5t-8 -50.5t-7 -43h-412l87 -517h457v-136h-592l-73 401h-533l-196 -401h-181zM455 520h461l-131 723z" />
<glyph unicode="&#xc7;" horiz-adv-x="1386" d="M112 697q0 213 99.5 389t269.5 275.5t373 99.5q77 0 149.5 -10t121.5 -23.5t87 -27.5t56 -24l18 -10q0 -21 -3 -44.5t-9 -53.5t-8 -45q-6 4 -18 11t-52 24.5t-82.5 31t-107.5 24.5t-131 11q-165 0 -301 -80.5t-214.5 -223t-78.5 -317.5q0 -261 162.5 -428.5t422.5 -167.5 q78 0 151 14t121.5 34t86 40.5t55.5 34.5l17 14q0 -25 -3.5 -52.5t-9.5 -61.5t-8 -52q-6 -4 -17.5 -10.5t-51 -23.5t-83 -30.5t-111 -26t-137.5 -14.5l-27 -76q73 -5 115.5 -45t42.5 -106q0 -72 -52.5 -118.5t-137.5 -46.5q-68 0 -115 26q-1 8 -8.5 49t-7.5 62 q7 -10 36.5 -21t63.5 -11q45 0 71 21.5t26 58.5q0 34 -26.5 56t-72.5 22q-39 0 -50 -7l50 137q-199 13 -352 109t-236.5 256t-83.5 357z" />
<glyph unicode="&#xc8;" horiz-adv-x="1171" d="M214 0v1434h813v-136h-644v-509h567q0 -19 -3 -42t-8 -52t-7 -42h-549v-517h681v-136h-850zM330 1877q19 3 53.5 9.5t63 10.5t53.5 4l190 -319h-130z" />
<glyph unicode="&#xc9;" horiz-adv-x="1171" d="M214 0v1434h813v-136h-644v-509h567q0 -19 -3 -42t-8 -52t-7 -42h-549v-517h681v-136h-850zM575 1582l173 298q13 1 89 10.5t116 9.5l-249 -318h-129z" />
<glyph unicode="&#xca;" horiz-adv-x="1171" d="M214 0v1434h813v-136h-644v-509h567q0 -19 -3 -42t-8 -52t-7 -42h-549v-517h681v-136h-850zM332 1598l247 299h90l254 -307h-129l-170 162l-178 -174q-17 0 -36 3t-42.5 9t-35.5 8z" />
<glyph unicode="&#xcb;" horiz-adv-x="1171" d="M214 0v1434h813v-136h-644v-509h567q0 -19 -3 -42t-8 -52t-7 -42h-549v-517h681v-136h-850zM362 1736q0 42 28 70.5t69 28.5q40 0 69 -28.5t29 -70.5q0 -41 -29 -68.5t-69 -27.5q-41 0 -69 27t-28 69zM693 1736q0 42 29 70.5t68 28.5t68.5 -28.5t29.5 -70.5 q0 -41 -29.5 -68.5t-68.5 -27.5t-68 27.5t-29 68.5z" />
<glyph unicode="&#xcc;" horiz-adv-x="598" d="M4 1877q19 3 53.5 9.5t63 10.5t53.5 4l190 -319h-130zM214 0v1434h169v-1434h-169z" />
<glyph unicode="&#xcd;" horiz-adv-x="598" d="M214 0v1434h169v-1434h-169zM249 1582l173 298q14 1 89 10.5t115 9.5l-248 -318h-129z" />
<glyph unicode="&#xce;" horiz-adv-x="598" d="M5 1598l248 299h90l254 -307h-129l-170 162l-178 -174q-17 0 -36 3t-43 9t-36 8zM214 0v1434h169v-1434h-169z" />
<glyph unicode="&#xcf;" horiz-adv-x="598" d="M36 1736q0 42 28 70.5t69 28.5q40 0 69 -28.5t29 -70.5q0 -41 -29 -68.5t-69 -27.5q-41 0 -69 27t-28 69zM214 0v1434h169v-1434h-169zM367 1736q0 42 29 70.5t68 28.5t68.5 -28.5t29.5 -70.5q0 -41 -29.5 -68.5t-68.5 -27.5t-68 27.5t-29 68.5z" />
<glyph unicode="&#xd0;" horiz-adv-x="1583" d="M65 662v110h149v657q229 17 469 17q355 0 558 -181t203 -505q0 -166 -58.5 -309t-162.5 -245.5t-256 -160.5t-332 -58q-28 0 -60 0.5t-63 1.5t-63 2.5t-60.5 3t-55 2.5t-48 2.5t-37 2.5t-24.5 2h-9v658h-150zM384 772h452q0 -16 -2.5 -34.5t-6.5 -41t-6 -34.5h-436v-525 q160 -12 278 -12q278 0 443 173.5t165 453.5q0 262 -154.5 410t-419.5 148q-44 0 -92.5 -1t-86.5 -3t-69 -3.5t-48.5 -2.5t-16.5 -1v-527z" />
<glyph unicode="&#xd1;" horiz-adv-x="1619" d="M214 0v1434q13 1 53.5 4.5t62.5 3.5l913 -1147q-6 189 -6 214v924h170v-1433h-117l-913 1146q5 -130 5 -167v-979h-168zM511 1621q-9 202 138 202q55 0 143 -44q74 -37 115 -37q36 0 56 20t23 40l2 20q12 0 26 -2t31.5 -5.5t26.5 -4.5q9 -202 -138 -202q-58 0 -146 45 q-70 36 -112 36q-36 0 -56 -20t-22 -40l-3 -20q-9 1 -26.5 4.5t-31.5 5.5t-26 2z" />
<glyph unicode="&#xd2;" horiz-adv-x="1656" d="M112 698q0 162 56.5 304.5t154.5 242.5t233.5 158t289.5 58q198 0 357.5 -93.5t250 -260t90.5 -373.5q0 -217 -93 -390.5t-261 -272t-379 -98.5q-153 0 -283.5 54.5t-221.5 150.5t-142.5 230.5t-51.5 289.5zM281 709q0 -261 151.5 -431t388.5 -170q160 0 286.5 80 t197 220.5t70.5 315.5q0 259 -154.5 430t-384.5 171q-115 0 -217.5 -46.5t-177 -127.5t-117.5 -196t-43 -246zM538 1878q19 3 53.5 9.5t63 10.5t53.5 4l190 -320h-130z" />
<glyph unicode="&#xd3;" horiz-adv-x="1656" d="M112 698q0 162 56.5 304.5t154.5 242.5t233.5 158t289.5 58q198 0 357.5 -93.5t250 -260t90.5 -373.5q0 -217 -93 -390.5t-261 -272t-379 -98.5q-153 0 -283.5 54.5t-221.5 150.5t-142.5 230.5t-51.5 289.5zM281 709q0 -261 151.5 -431t388.5 -170q160 0 286.5 80 t197 220.5t70.5 315.5q0 259 -154.5 430t-384.5 171q-115 0 -217.5 -46.5t-177 -127.5t-117.5 -196t-43 -246zM783 1582l173 299q9 1 86.5 10t117.5 9l-248 -318h-129z" />
<glyph unicode="&#xd4;" horiz-adv-x="1656" d="M112 698q0 162 56.5 304.5t154.5 242.5t233.5 158t289.5 58q198 0 357.5 -93.5t250 -260t90.5 -373.5q0 -217 -93 -390.5t-261 -272t-379 -98.5q-153 0 -283.5 54.5t-221.5 150.5t-142.5 230.5t-51.5 289.5zM282 709q0 -261 151 -431t388 -170q160 0 286.5 80t197 220.5 t70.5 315.5q0 259 -154.5 430t-384.5 171q-154 0 -280.5 -79.5t-200 -221t-73.5 -315.5zM539 1599l248 298h90l254 -306h-129l-170 162l-178 -174q-17 0 -36 3t-43 9t-36 8z" />
<glyph unicode="&#xd5;" horiz-adv-x="1656" d="M112 698q0 162 56.5 304.5t154.5 242.5t233.5 158t289.5 58q198 0 357.5 -93.5t250 -260t90.5 -373.5q0 -217 -93 -390.5t-261 -272t-379 -98.5q-153 0 -283.5 54.5t-221.5 150.5t-142.5 230.5t-51.5 289.5zM281 709q0 -261 151.5 -431t388.5 -170q160 0 286.5 80 t197 220.5t70.5 315.5q0 259 -154.5 430t-384.5 171q-115 0 -217.5 -46.5t-177 -127.5t-117.5 -196t-43 -246zM548 1621q-9 202 137 202q55 0 143 -44q74 -37 116 -37q36 0 56 20t22 40l3 20q7 0 84 -11q9 -202 -138 -202q-60 0 -146 44q-72 37 -113 37q-36 0 -56 -20 t-22 -40l-3 -20q-77 11 -83 11z" />
<glyph unicode="&#xd6;" horiz-adv-x="1656" d="M112 698q0 162 56.5 304.5t154.5 242.5t233.5 158t289.5 58q198 0 357.5 -93.5t250 -260t90.5 -373.5q0 -217 -93 -390.5t-261 -272t-379 -98.5q-153 0 -283.5 54.5t-221.5 150.5t-142.5 230.5t-51.5 289.5zM281 709q0 -261 151.5 -431t388.5 -170q160 0 286.5 80 t197 220.5t70.5 315.5q0 259 -154.5 430t-384.5 171q-115 0 -217.5 -46.5t-177 -127.5t-117.5 -196t-43 -246zM569 1736q0 42 28.5 71t69.5 29q40 0 69 -29t29 -71q0 -41 -29 -68.5t-69 -27.5q-41 0 -69.5 27.5t-28.5 68.5zM900 1736q0 42 29.5 71t68.5 29t68.5 -29 t29.5 -71q0 -41 -29.5 -68.5t-68.5 -27.5t-68.5 27.5t-29.5 68.5z" />
<glyph unicode="&#xd7;" horiz-adv-x="1224" d="M209 1034l88 84l718 -718l-88 -84z" />
<glyph unicode="&#xd8;" horiz-adv-x="1656" d="M112 0l177 197q-177 199 -177 501q0 162 56.5 304.5t154.5 242.5t233.5 158t289.5 58q257 0 445 -155l114 128h139l-179 -200q179 -203 179 -500q0 -217 -93 -390.5t-261 -272t-379 -98.5q-260 0 -447 152l-113 -125h-139zM282 709q0 -228 118 -390l786 871 q-146 135 -350 135q-154 0 -280.5 -79.5t-200 -221t-73.5 -315.5zM469 241q146 -133 352 -133q160 0 286.5 80t197 220.5t70.5 315.5q0 226 -120 389z" />
<glyph unicode="&#xd9;" horiz-adv-x="1558" d="M197 586v848h169v-848q0 -220 113 -349t305 -129t304.5 129t112.5 349v848h160v-848q0 -285 -154 -449t-423 -164q-274 0 -430.5 164t-156.5 449zM489 1877q20 3 54 9.5t62.5 11t53.5 4.5l190 -320h-130z" />
<glyph unicode="&#xda;" horiz-adv-x="1558" d="M197 586v848h169v-848q0 -220 113 -349t305 -129t304.5 129t112.5 349v848h160v-848q0 -285 -154 -449t-423 -164q-274 0 -430.5 164t-156.5 449zM734 1582l173 299q8 1 86.5 10t118.5 9l-249 -318h-129z" />
<glyph unicode="&#xdb;" horiz-adv-x="1558" d="M197 586v848h169v-848q0 -220 113 -349t305 -129t304.5 129t112.5 349v848h160v-848q0 -285 -154 -449t-423 -164q-274 0 -430.5 164t-156.5 449zM491 1598l247 299h90l254 -307h-129l-170 162l-178 -173q-17 0 -35.5 3t-43 8.5t-35.5 7.5z" />
<glyph unicode="&#xdc;" horiz-adv-x="1558" d="M197 586v848h169v-848q0 -220 113 -349t305 -129t304.5 129t112.5 349v848h160v-848q0 -285 -154 -449t-423 -164q-274 0 -430.5 164t-156.5 449zM521 1736q0 42 28 70.5t69 28.5q40 0 69 -28.5t29 -70.5q0 -41 -29 -68.5t-69 -27.5q-41 0 -69 27t-28 69zM852 1736 q0 42 29 70.5t68 28.5t68.5 -28.5t29.5 -70.5q0 -41 -29.5 -68.5t-68.5 -27.5t-68 27.5t-29 68.5z" />
<glyph unicode="&#xdd;" horiz-adv-x="1286" d="M40 1434h194l330 -579q45 -79 88 -183l417 762h177l-517 -906v-528h-170v528zM594 1582l173 299q8 1 86.5 10t118.5 9l-248 -318h-130z" />
<glyph unicode="&#xde;" d="M214 0v1434h169v-248q105 7 199 7q263 0 412 -114t149 -321q0 -224 -151.5 -351.5t-428.5 -127.5q-98 0 -180 10v-289h-169zM369 428q89 -16 190 -16q204 0 313 91.5t109 251.5q0 145 -102.5 224.5t-284.5 79.5q-56 0 -112 -2.5t-84 -4.5l-29 -2v-622z" />
<glyph unicode="&#xdf;" horiz-adv-x="1210" d="M180 0v1015q0 245 123 383t333 138q163 0 274.5 -85t111.5 -228q0 -72 -22.5 -128t-77.5 -111l-43 -47q-22 -22 -34 -36t-22 -38t-10 -52q0 -45 22 -77t74 -81l97 -94q89 -83 119.5 -148t30.5 -140q0 -123 -94.5 -207t-256.5 -84q-76 0 -148 17t-106 34l-34 17 q-2 16 -11 59t-9 65q14 -8 38 -20.5t94.5 -33.5t136.5 -21q104 0 163.5 50.5t59.5 121.5q0 52 -23.5 97t-94.5 111l-87 85q-71 67 -101 115.5t-30 120.5q0 56 23.5 99.5t65.5 88.5l44 50q44 43 63.5 85t19.5 97q0 87 -66 143t-168 56q-139 0 -218 -113t-78 -310v-994h-159z " />
<glyph unicode="&#xe0;" horiz-adv-x="1089" d="M97 268q0 156 123.5 244.5t336.5 88.5h194v51q3 137 -64 205.5t-190 68.5q-76 0 -152.5 -27t-114.5 -53l-38 -27q-2 14 -7 39.5t-8 46t-3 39.5q6 4 17 11t46.5 24t74 30t97 24t117.5 11q190 0 289.5 -98t95.5 -282l-10 -483q-1 -93 76 -93q20 0 37 7t24 13l6 7 q0 -19 -3 -37.5t-7 -39.5t-6 -33q-33 -25 -95 -25q-82 0 -128.5 47t-45.5 135l-1 8q-53 -88 -138.5 -139t-198.5 -51q-144 0 -234 79.5t-90 208.5zM232 1535q19 3 53.5 9.5t63 10.5t53.5 4l189 -320h-129zM254 284q0 -83 55 -134t145 -51q73 0 130.5 31t91.5 83t51.5 112.5 t19.5 125.5l1 37h-194q-142 0 -221 -53t-79 -151z" />
<glyph unicode="&#xe1;" horiz-adv-x="1089" d="M97 268q0 156 123.5 244.5t336.5 88.5h194v51q3 137 -64 205.5t-190 68.5q-76 0 -152.5 -27t-114.5 -53l-38 -27q-2 14 -7 39.5t-8 46t-3 39.5q6 4 17 11t46.5 24t74 30t97 24t117.5 11q190 0 289.5 -98t95.5 -282l-10 -483q-1 -93 76 -93q20 0 37 7t24 13l6 7 q0 -19 -3 -37.5t-7 -39.5t-6 -33q-33 -25 -95 -25q-82 0 -128.5 47t-45.5 135l-1 8q-53 -88 -138.5 -139t-198.5 -51q-144 0 -234 79.5t-90 208.5zM254 284q0 -83 55 -134t145 -51q73 0 130.5 31t91.5 83t51.5 112.5t19.5 125.5v37h-193q-142 0 -221 -53t-79 -151zM462 1239 l173 299q9 1 86.5 10t117.5 9l-248 -318h-129z" />
<glyph unicode="&#xe2;" horiz-adv-x="1089" d="M97 268q0 156 123.5 244.5t336.5 88.5h194v51q3 137 -64 205.5t-190 68.5q-76 0 -152.5 -27t-114.5 -53l-38 -27q-2 14 -7 39.5t-8 46t-3 39.5q6 4 17 11t46.5 24t74 30t97 24t117.5 11q190 0 289.5 -98t95.5 -282l-10 -483q-1 -93 76 -93q20 0 37 7t24 13l6 7 q0 -19 -3 -37.5t-7 -39.5t-6 -33q-33 -25 -95 -25q-82 0 -128.5 47t-45.5 135l-1 8q-53 -88 -138.5 -139t-198.5 -51q-144 0 -234 79.5t-90 208.5zM233 1256l247 298h90l255 -306h-130l-170 161l-178 -173q-17 0 -36 3t-42.5 9t-35.5 8zM254 284q0 -83 55 -134t145 -51 q73 0 130.5 31t91.5 83t51.5 112.5t19.5 125.5l1 37h-194q-142 0 -221 -53t-79 -151z" />
<glyph unicode="&#xe3;" horiz-adv-x="1089" d="M97 268q0 156 123.5 244.5t336.5 88.5h194v51q3 137 -64 205.5t-190 68.5q-76 0 -152.5 -27t-114.5 -53l-38 -27q-2 14 -7 39.5t-8 46t-3 39.5q6 4 17 11t46.5 24t74 30t97 24t117.5 11q190 0 289.5 -98t95.5 -282l-10 -483q-1 -93 76 -93q20 0 37 7t24 13l6 7 q0 -19 -3 -37.5t-7 -39.5t-6 -33q-33 -25 -95 -25q-82 0 -128.5 47t-45.5 135l-1 8q-53 -88 -138.5 -139t-198.5 -51q-144 0 -234 79.5t-90 208.5zM245 1286q-9 202 138 202q55 0 143 -44q74 -37 115 -37q36 0 56 20t23 40l2 20q7 0 84 -11q9 -202 -138 -202q-60 0 -146 44 q-72 37 -112 37q-36 0 -56 -20.5t-22 -40.5l-3 -20q-9 1 -26.5 4.5t-31.5 5.5t-26 2zM254 284q0 -83 55 -134t145 -51q73 0 130.5 31t91.5 83t51.5 112.5t19.5 125.5l1 37h-194q-142 0 -221 -53t-79 -151z" />
<glyph unicode="&#xe4;" horiz-adv-x="1089" d="M97 268q0 156 123.5 244.5t336.5 88.5h194v51q3 137 -64 205.5t-190 68.5q-76 0 -152.5 -27t-114.5 -53l-38 -27q-2 14 -7 39.5t-8 46t-3 39.5q6 4 17 11t46.5 24t74 30t97 24t117.5 11q190 0 289.5 -98t95.5 -282l-10 -483q-1 -93 76 -93q20 0 37 7t24 13l6 7 q0 -19 -3 -37.5t-7 -39.5t-6 -33q-33 -25 -95 -25q-82 0 -128.5 47t-45.5 135l-1 8q-53 -88 -138.5 -139t-198.5 -51q-144 0 -234 79.5t-90 208.5zM254 284q0 -83 55 -134t145 -51q73 0 130.5 31t91.5 83t51.5 112.5t19.5 125.5l1 37h-194q-142 0 -221 -53t-79 -151z M263 1393q0 42 28.5 70.5t69.5 28.5q40 0 68.5 -28.5t28.5 -70.5q0 -41 -28.5 -68.5t-68.5 -27.5q-41 0 -69.5 27.5t-28.5 68.5zM594 1393q0 42 29.5 70.5t68.5 28.5t68 -28.5t29 -70.5q0 -41 -29 -68.5t-68 -27.5t-68.5 27.5t-29.5 68.5z" />
<glyph unicode="&#xe5;" horiz-adv-x="1089" d="M97 268q0 156 123.5 244.5t336.5 88.5h194v52q3 137 -64 205t-190 68q-76 0 -152.5 -27t-114.5 -53l-38 -27q-2 14 -7 39.5t-8 46t-3 39.5q6 4 17 11t46.5 24.5t74 30.5t97 24t117.5 11q190 0 289.5 -98.5t95.5 -282.5l-10 -483q-1 -93 76 -93q20 0 37 7t24 13l6 7 q0 -19 -3 -37.5t-7 -39.5t-6 -33q-33 -25 -95 -25q-82 0 -128.5 47t-45.5 135l-1 8q-53 -88 -138.5 -139t-198.5 -51q-144 0 -234 79.5t-90 208.5zM254 284q0 -83 55 -134t145 -51q73 0 130.5 31t91.5 83t51.5 112.5t19.5 125.5l1 37h-194q-142 0 -221 -53t-79 -151z M312 1418q0 88 62 150t151 62t150.5 -62t61.5 -150q0 -89 -62 -151t-150 -62q-89 0 -151 62.5t-62 150.5zM431 1418q0 -42 27.5 -70t66.5 -28t66 28t27 70t-27 70t-66 28t-66.5 -28t-27.5 -70z" />
<glyph unicode="&#xe6;" horiz-adv-x="1734" d="M97 268q0 156 123.5 244.5t336.5 88.5h194v51q3 137 -64 205.5t-190 68.5q-76 0 -152.5 -27t-114.5 -53l-38 -27q-2 14 -7 39.5t-8 46t-3 39.5q6 4 17 11t46.5 24t74 30t97 24t117.5 11q260 0 347 -177q67 84 164 130.5t210 46.5q93 0 169.5 -25.5t127 -71t81 -107.5 t32.5 -136t-20 -156l-721 -54q4 -184 99 -290t270 -106q56 0 112.5 14t96.5 34.5t72.5 41t48.5 34.5l16 14q0 -22 -4 -47t-10 -54.5t-8 -46.5q-13 -10 -34 -22.5t-66.5 -34.5t-111.5 -36.5t-136 -14.5q-167 0 -285.5 74t-174.5 208q-42 -125 -140.5 -203.5t-239.5 -78.5 q-144 0 -234 79.5t-90 208.5zM254 284q0 -83 55 -134t145 -51q73 0 130.5 31t91.5 83t51.5 112.5t19.5 125.5l1 37h-194q-142 0 -221 -53t-79 -151zM923 611l576 43q17 122 -51.5 197t-198.5 75q-126 0 -214 -84t-112 -231z" />
<glyph unicode="&#xe7;" horiz-adv-x="1021" d="M98 503q2 244 146.5 392.5t379.5 148.5q206 0 329 -83q0 -19 -3 -39.5t-9 -47t-8 -38.5q-3 3 -11.5 10t-34.5 22t-56 27t-79 21.5t-101 9.5q-173 0 -278.5 -114.5t-106.5 -302.5q-1 -182 106 -295t281 -113q151 0 305 104q0 -21 -4 -44.5t-10 -51t-8 -43.5 q-26 -17 -61.5 -33.5t-104.5 -34t-140 -18.5l-30 -82q73 -5 115.5 -45t42.5 -106q0 -72 -52.5 -118.5t-137.5 -46.5q-68 0 -115 26q-2 13 -6 35.5t-6.5 41t-2.5 34.5q7 -10 36.5 -21t63.5 -11q44 0 70 21.5t26 58.5q0 34 -26 56t-72 22q-39 0 -50 -7l53 147 q-205 25 -324 164.5t-117 353.5z" />
<glyph unicode="&#xe8;" horiz-adv-x="1071" d="M91 513q1 155 66.5 277t177 188t247.5 66q116 0 205.5 -39t138 -107t64 -158t-16.5 -192l-722 -54q4 -184 99 -290t270 -106q56 0 112.5 14t97 34.5t73 41t48.5 34.5l16 14q0 -22 -4 -47t-10 -54.5t-8 -46.5q-12 -9 -33.5 -22t-67.5 -35t-112 -36.5t-136 -14.5 q-237 0 -372 144t-133 389zM259 611l576 43q17 122 -51.5 197t-198.5 75q-126 0 -214 -84t-112 -231zM285 1535q19 3 53.5 9.5t63 10.5t53.5 4l190 -320h-129z" />
<glyph unicode="&#xe9;" horiz-adv-x="1071" d="M91 513q1 155 66.5 277t177 188t247.5 66q116 0 205.5 -39t138 -107t64 -158t-16.5 -192l-722 -54q4 -184 99 -290t270 -106q56 0 112.5 14t97 34.5t73 41t48.5 34.5l16 14q0 -22 -4 -47t-10 -54.5t-8 -46.5q-13 -10 -34 -22.5t-67 -35t-112 -37t-136 -14.5 q-237 0 -372 144.5t-133 389.5zM259 611l576 43q17 122 -51.5 197t-198.5 75q-126 0 -214 -84t-112 -231zM515 1239l173 299q8 1 86.5 10t118.5 9l-248 -318h-130z" />
<glyph unicode="&#xea;" horiz-adv-x="1071" d="M91 513q1 155 66.5 277t177 188t247.5 66q116 0 205.5 -39t138 -107t64 -158t-16.5 -192l-722 -54q4 -184 99 -290t270 -106q56 0 112.5 14t97 34.5t73 41t48.5 34.5l16 14q0 -22 -4 -47t-10 -54.5t-8 -46.5q-13 -10 -34 -22.5t-67 -35t-112 -37t-136 -14.5 q-237 0 -372 144.5t-133 389.5zM259 611l576 43q17 122 -51.5 197t-198.5 75q-126 0 -214 -84t-112 -231zM287 1256l247 298h90l254 -306h-129l-170 161l-178 -173q-17 0 -36 3t-42.5 9t-35.5 8z" />
<glyph unicode="&#xeb;" horiz-adv-x="1071" d="M91 513q1 155 66.5 277t177 188t247.5 66q116 0 205.5 -39t138 -107t64 -158t-16.5 -192l-722 -54q4 -184 99 -290t270 -106q56 0 112.5 14t97 34.5t73 41t48.5 34.5l16 14q0 -22 -4 -47t-10 -54.5t-8 -46.5q-12 -9 -33.5 -22t-67.5 -35t-112 -36.5t-136 -14.5 q-237 0 -372 144t-133 389zM259 611l576 44q17 122 -51.5 196.5t-198.5 74.5q-126 0 -214 -84t-112 -231zM317 1393q0 42 28 70.5t69 28.5q40 0 69 -28.5t29 -70.5q0 -41 -29 -68.5t-69 -27.5q-41 0 -69 27t-28 69zM648 1393q0 42 29 70.5t68 28.5t68.5 -28.5t29.5 -70.5 q0 -41 -29.5 -68.5t-68.5 -27.5t-68 27.5t-29 68.5z" />
<glyph unicode="&#xec;" horiz-adv-x="518" d="M58 1537q6 1 64.5 11.5t88.5 10.5l101 -320h-113zM180 0v1011q23 0 50 4t59 10t50 8v-1033h-159z" />
<glyph unicode="&#xed;" horiz-adv-x="518" d="M180 0v1011q23 0 50 4t59 10t50 8v-1033h-159zM212 1239l85 299q23 2 77 10.5t93 8.5l-142 -318h-113z" />
<glyph unicode="&#xee;" horiz-adv-x="518" d="M7 1256l204 298h90l211 -306h-127l-129 161l-137 -173q-17 0 -35.5 3t-42 9t-34.5 8zM180 0v1011q23 0 50 4t59 10t50 8v-1033h-159z" />
<glyph unicode="&#xef;" horiz-adv-x="518" d="M30 1386q0 41 27 68t66 27t66 -27t27 -68q0 -40 -27 -66t-66 -26t-66 26t-27 66zM180 0v1011q23 0 50 4t59 10t50 8v-1033h-159zM303 1386q0 40 27.5 67.5t65.5 27.5t65.5 -27.5t27.5 -67.5t-27.5 -66t-65.5 -26t-65.5 26t-27.5 66z" />
<glyph unicode="&#xf0;" horiz-adv-x="1214" d="M98 449q0 195 120 317.5t305 122.5q119 0 210.5 -50t141.5 -135q-45 326 -224 512l-258 -134l-58 102l219 114q-135 94 -317 120q0 19 3.5 40.5t8.5 47.5t7 41q254 -38 433 -179l240 124l57 -102l-205 -107q254 -275 254 -766q0 -150 -57.5 -271.5t-166 -193.5 t-249.5 -72q-198 0 -331 134t-133 335zM260 442q0 -143 88.5 -242t214.5 -99q135 0 220 111t85 273q0 128 -88.5 212t-218.5 84t-215.5 -94t-85.5 -245z" />
<glyph unicode="&#xf1;" d="M160 1011q29 0 138 19q33 -109 46 -264q57 131 164.5 204.5t231.5 73.5q153 0 235.5 -92t82.5 -256v-696h-159v657q0 121 -56 185.5t-161 64.5q-136 0 -233.5 -124.5t-98.5 -316.5v-466h-160v627q0 91 -7.5 187t-14.5 146zM362 1286q-9 202 137 202q55 0 143 -44 q74 -37 116 -37q36 0 56 20t22 40l3 20q7 0 84 -11q9 -202 -138 -202q-61 0 -147 44q-72 37 -112 37q-36 0 -56 -20.5t-22 -40.5l-3 -20q-9 1 -26 4.5t-31 5.5t-26 2z" />
<glyph unicode="&#xf2;" horiz-adv-x="1204" d="M91 499q0 239 147 392t377 153q220 0 358.5 -145t138.5 -374q0 -239 -146.5 -392t-375.5 -153q-220 0 -359.5 145t-139.5 374zM258 507q0 -179 95 -293.5t244 -114.5q152 0 250 117.5t98 301.5q0 178 -94.5 292.5t-242.5 114.5q-153 0 -251.5 -117t-98.5 -301zM295 1535 q19 3 53.5 9.5t63 10.5t53.5 4l190 -320h-129z" />
<glyph unicode="&#xf3;" horiz-adv-x="1204" d="M91 499q0 239 146.5 392t376.5 153q220 0 359 -145t139 -374q0 -239 -146.5 -392.5t-375.5 -153.5q-220 0 -359.5 145.5t-139.5 374.5zM258 507q0 -179 95 -293.5t244 -114.5q152 0 250 117.5t98 301.5q0 178 -94.5 292.5t-242.5 114.5q-153 0 -251.5 -117t-98.5 -301z M525 1239l173 299q8 1 86.5 10t118.5 9l-248 -318h-130z" />
<glyph unicode="&#xf4;" horiz-adv-x="1204" d="M91 499q0 239 147 392t377 153q220 0 358.5 -145t138.5 -374q0 -239 -146.5 -392.5t-375.5 -153.5q-220 0 -359.5 145.5t-139.5 374.5zM258 507q0 -179 95 -293.5t244 -114.5q152 0 250 117.5t98 301.5q0 178 -94.5 292.5t-242.5 114.5q-153 0 -251.5 -117t-98.5 -301z M297 1256l247 298h90l254 -306h-129l-170 161l-178 -173q-17 0 -36 3t-42.5 9t-35.5 8z" />
<glyph unicode="&#xf5;" horiz-adv-x="1204" d="M91 499q0 239 146.5 392t376.5 153q220 0 359 -145t139 -374q0 -239 -146.5 -392t-375.5 -153q-220 0 -359.5 145t-139.5 374zM258 507q0 -179 95 -293.5t244 -114.5q152 0 250 117.5t98 301.5q0 178 -94.5 292.5t-242.5 114.5q-153 0 -251.5 -117t-98.5 -301zM309 1286 q-9 202 137 202q55 0 143 -44q74 -37 116 -37q36 0 56 20t23 40l2 20q12 0 26 -2t31.5 -5.5t26.5 -4.5q9 -201 -138 -201q-60 0 -146 44q-72 37 -113 37q-36 0 -56 -20.5t-23 -40.5l-2 -20q-9 1 -26 4.5t-31 5.5t-26 2z" />
<glyph unicode="&#xf6;" horiz-adv-x="1204" d="M91 499q0 239 147 392t377 153q220 0 358.5 -145t138.5 -374q0 -239 -146.5 -392t-375.5 -153q-220 0 -359.5 145t-139.5 374zM258 507q0 -179 95 -293.5t244 -114.5q152 0 250 117.5t98 301.5q0 178 -94.5 292.5t-242.5 114.5q-153 0 -251.5 -117t-98.5 -301zM327 1393 q0 42 28 70.5t69 28.5q40 0 69 -28.5t29 -70.5q0 -41 -29 -68.5t-69 -27.5q-41 0 -69 27t-28 69zM658 1393q0 42 29 70.5t68 28.5t68.5 -28.5t29.5 -70.5q0 -41 -29.5 -68.5t-68.5 -27.5t-68 27.5t-29 68.5z" />
<glyph unicode="&#xf7;" horiz-adv-x="1249" d="M105 657v119h1038v-119h-1038zM511 351q0 46 32.5 77t80.5 31t81 -31t33 -77q0 -47 -33 -79t-81 -32t-80.5 32t-32.5 79zM511 1084q0 46 32.5 77t80.5 31t81 -31t33 -77q0 -47 -33 -79t-81 -32t-80.5 32t-32.5 79z" />
<glyph unicode="&#xf8;" horiz-adv-x="1204" d="M91 499q0 239 147 392t377 153q190 0 323 -111l80 91h104l-129 -147q119 -141 119 -352q0 -239 -146.5 -392t-375.5 -153q-175 0 -303 95l-66 -75h-103l111 126q-138 146 -138 373zM258 507q0 -155 74 -264l509 579q-93 103 -233 103q-153 0 -251.5 -117t-98.5 -301z M382 183q89 -84 215 -84q152 0 250 117.5t98 301.5q0 136 -58 239z" />
<glyph unicode="&#xf9;" d="M172 328v682q31 0 89.5 11t70.5 13v-667q0 -121 55.5 -185.5t160.5 -64.5q137 0 234.5 125t97.5 318v464h160v-641q0 -91 8 -186.5t16 -146.5l7 -50h-144q-27 94 -40 230q-61 -119 -162 -185t-227 -66q-158 0 -242 92t-84 257zM311 1535q19 3 53.5 9.5t63 10.5t53.5 4 l190 -320h-130z" />
<glyph unicode="&#xfa;" d="M172 328v682q31 0 89.5 11t70.5 13v-667q0 -121 55.5 -185.5t160.5 -64.5q137 0 234.5 125t97.5 318v464h160v-641q0 -91 8 -186.5t16 -146.5l7 -50h-144q-27 94 -40 230q-60 -119 -161.5 -184.5t-227.5 -65.5q-159 0 -242.5 91.5t-83.5 256.5zM541 1239l173 299 q9 1 86.5 10t117.5 9l-248 -318h-129z" />
<glyph unicode="&#xfb;" d="M172 328v682q31 0 89.5 11t70.5 13v-667q0 -121 55.5 -185.5t160.5 -64.5q137 0 234.5 125t97.5 318v464h160v-641q0 -91 8 -186.5t16 -146.5l7 -50h-144q-27 94 -40 230q-60 -119 -161.5 -184.5t-227.5 -65.5q-159 0 -242.5 91.5t-83.5 256.5zM312 1256l248 298h89 l255 -306h-129l-170 161l-179 -173q-17 0 -36 3t-42.5 9t-35.5 8z" />
<glyph unicode="&#xfc;" d="M172 328v682q31 0 89.5 11t70.5 13v-667q0 -121 55.5 -185.5t160.5 -64.5q137 0 234.5 125t97.5 318v464h160v-641q0 -91 8 -186.5t16 -146.5l7 -50h-144q-27 94 -40 230q-60 -119 -161.5 -184.5t-227.5 -65.5q-159 0 -242.5 91.5t-83.5 256.5zM342 1393q0 42 28.5 70.5 t69.5 28.5q40 0 68.5 -28.5t28.5 -70.5q0 -41 -28.5 -68.5t-68.5 -27.5q-41 0 -69.5 27.5t-28.5 68.5zM673 1393q0 42 29.5 70.5t68.5 28.5t68 -28.5t29 -70.5q0 -41 -29 -68.5t-68 -27.5t-68.5 27.5t-29.5 68.5z" />
<glyph unicode="&#xfd;" horiz-adv-x="1058" d="M44 1010q25 0 52 3.5t60.5 10t51.5 9.5l330 -848l326 839h155l-578 -1429q-32 0 -91 -8.5t-76 -10.5l197 430h-19zM468 1239l173 299q8 1 86.5 10t118.5 9l-248 -318h-130z" />
<glyph unicode="&#xfe;" horiz-adv-x="1179" d="M180 -432v1955q23 0 50 4t59 10t50 8v-714q55 99 142 156t198 57q179 0 294.5 -132t115.5 -364q0 -252 -138.5 -410.5t-374.5 -158.5q-105 0 -237 30v-419q-32 0 -92.5 -10.5t-66.5 -11.5zM339 139q123 -41 220 -41q117 0 200.5 62t122 161t38.5 224q0 180 -78.5 276.5 t-200.5 96.5q-130 0 -216 -118t-86 -297v-364z" />
<glyph unicode="&#xff;" horiz-adv-x="1058" d="M44 1010q25 0 52 3.5t60.5 10t51.5 9.5l330 -848l326 839h155l-578 -1429q-32 0 -91 -8.5t-76 -10.5l197 430h-19zM269 1393q0 42 28.5 70.5t69.5 28.5q40 0 69 -28.5t29 -70.5q0 -41 -29 -68.5t-69 -27.5q-41 0 -69.5 27.5t-28.5 68.5zM600 1393q0 42 29.5 70.5 t68.5 28.5t68.5 -28.5t29.5 -70.5q0 -41 -29.5 -68.5t-68.5 -27.5t-68.5 27.5t-29.5 68.5z" />
<glyph unicode="&#x152;" horiz-adv-x="1873" d="M112 704q0 156 56.5 291.5t155.5 232t239.5 151.5t303.5 55h863v-136h-643v-509h567q0 -19 -3 -42t-8 -52t-7 -42h-549v-517h681v-136h-910q-166 0 -306 53t-236.5 146.5t-150 223.5t-53.5 281zM281 710q0 -168 72 -300.5t204.5 -207.5t304.5 -75h56v1180h-56 q-166 0 -299 -76.5t-207.5 -213t-74.5 -307.5z" />
<glyph unicode="&#x153;" horiz-adv-x="2000" d="M91 499q0 239 146.5 392t376.5 153q138 0 248 -60.5t175 -168.5q66 108 173.5 168.5t236.5 60.5q116 0 205.5 -39t138 -107t64 -158t-16.5 -192l-722 -54q4 -184 99 -290t270 -106q56 0 112.5 14t97 34.5t73 41t48.5 34.5l16 14q0 -22 -4 -47t-10 -54.5t-8 -46.5 q-13 -10 -34 -22.5t-67 -35t-112 -37t-136 -14.5q-150 0 -261.5 60t-173.5 171q-69 -109 -182.5 -170t-253.5 -61q-220 0 -359.5 145.5t-139.5 374.5zM258 507q0 -179 95 -294t244 -115q152 0 250 118t98 302q0 178 -94.5 292.5t-242.5 114.5q-153 0 -251.5 -117t-98.5 -301 zM1124 611l575 43q17 123 -51.5 197.5t-197.5 74.5q-126 0 -214 -84t-112 -231z" />
<glyph unicode="&#x178;" horiz-adv-x="1286" d="M40 1434h194l330 -579q45 -79 88 -183l417 762h177l-517 -906v-528h-170v528zM381 1736q0 42 28.5 70.5t69.5 28.5q40 0 68.5 -28.5t28.5 -70.5q0 -41 -28.5 -68.5t-68.5 -27.5q-41 0 -69.5 27.5t-28.5 68.5zM712 1736q0 42 29.5 70.5t68.5 28.5t68 -28.5t29 -70.5 q0 -41 -29 -68.5t-68 -27.5t-68.5 27.5t-29.5 68.5z" />
<glyph unicode="&#x2c6;" horiz-adv-x="690" d="M49 1256l248 298h89l255 -306h-129l-171 161l-178 -173q-17 0 -36 3t-42.5 9t-35.5 8z" />
<glyph unicode="&#x2dc;" horiz-adv-x="657" d="M49 1286q-9 202 138 202q55 0 143 -44q74 -37 115 -37q36 0 56 20t23 40l2 20q7 0 84 -11q9 -202 -138 -202q-60 0 -146 44q-72 37 -112 37q-36 0 -56 -20.5t-22 -40.5l-3 -20q-9 1 -26.5 4.5t-31.5 5.5t-26 2z" />
<glyph unicode="&#x2000;" horiz-adv-x="951" />
<glyph unicode="&#x2001;" horiz-adv-x="1902" />
<glyph unicode="&#x2002;" horiz-adv-x="951" />
<glyph unicode="&#x2003;" horiz-adv-x="1902" />
<glyph unicode="&#x2004;" horiz-adv-x="634" />
<glyph unicode="&#x2005;" horiz-adv-x="475" />
<glyph unicode="&#x2006;" horiz-adv-x="317" />
<glyph unicode="&#x2007;" horiz-adv-x="317" />
<glyph unicode="&#x2008;" horiz-adv-x="237" />
<glyph unicode="&#x2009;" horiz-adv-x="380" />
<glyph unicode="&#x200a;" horiz-adv-x="105" />
<glyph unicode="&#x2010;" horiz-adv-x="743" d="M61 456v112h622v-112h-622z" />
<glyph unicode="&#x2011;" horiz-adv-x="743" d="M61 456v112h622v-112h-622z" />
<glyph unicode="&#x2012;" horiz-adv-x="743" d="M61 456v112h622v-112h-622z" />
<glyph unicode="&#x2013;" horiz-adv-x="1024" d="M0 456v112h1024v-112h-1024z" />
<glyph unicode="&#x2014;" horiz-adv-x="2048" d="M0 456v112h2048v-112h-2048z" />
<glyph unicode="&#x2018;" horiz-adv-x="452" d="M96 1134q0 64 16.5 124t40 99.5t46.5 70t39 44.5l17 14q18 0 54.5 -6.5t42.5 -7.5q-5 -5 -14.5 -14t-32.5 -37.5t-40.5 -56.5t-32 -67.5t-14.5 -74.5q0 -29 18 -47.5t39 -27t39 -30t18 -55.5q0 -42 -28 -70t-73 -28q-64 0 -99.5 47t-35.5 123z" />
<glyph unicode="&#x2019;" horiz-adv-x="452" d="M100 985q5 5 14.5 14t32.5 37.5t40.5 56.5t32 67.5t14.5 74.5q0 29 -18 48t-39 27.5t-39 30t-18 55.5q0 42 28 69.5t73 27.5q64 0 99.5 -46.5t35.5 -122.5q0 -64 -16.5 -124t-40 -100t-46.5 -70.5t-39 -44.5l-17 -14q-18 0 -54.5 6.5t-42.5 7.5z" />
<glyph unicode="&#x201a;" horiz-adv-x="452" d="M100 -329q5 5 14.5 14t32.5 37.5t40.5 56.5t32 67.5t14.5 74.5q0 29 -18 47.5t-39 27t-39 30t-18 55.5q0 42 28 70t73 28q64 0 99.5 -47t35.5 -123q0 -64 -16.5 -124t-40 -100t-46.5 -70.5t-39 -44.5l-17 -14q-18 0 -53.5 7t-43.5 8z" />
<glyph unicode="&#x201c;" horiz-adv-x="768" d="M96 1134q0 64 16.5 124t40 99.5t46.5 70t39 44.5l17 14q18 0 54.5 -6.5t42.5 -7.5q-5 -5 -14.5 -14t-32.5 -37.5t-40.5 -56.5t-32 -67.5t-14.5 -74.5q0 -29 18 -47.5t39 -27t39 -30t18 -55.5q0 -42 -28 -70t-73 -28q-64 0 -99.5 47t-35.5 123zM413 1134q0 64 16.5 124 t39.5 99.5t46.5 70t40.5 44.5l16 14q18 0 53.5 -6.5t42.5 -7.5q-5 -5 -14.5 -14t-32.5 -37.5t-40.5 -56.5t-32 -67.5t-14.5 -74.5q0 -29 18 -47.5t39 -27t39 -30t18 -55.5q0 -42 -27.5 -70t-72.5 -28q-64 0 -99.5 47t-35.5 123z" />
<glyph unicode="&#x201d;" horiz-adv-x="768" d="M100 985q5 5 14.5 14t32.5 37.5t40.5 56.5t32 67.5t14.5 74.5q0 29 -18 48t-39 27.5t-39 30t-18 55.5q0 42 28 69.5t73 27.5q64 0 99.5 -46.5t35.5 -122.5q0 -64 -16.5 -124t-40 -100t-46.5 -70.5t-39 -44.5l-17 -14q-18 0 -54.5 6.5t-42.5 7.5zM417 985q5 5 14.5 14 t32.5 37.5t40.5 56.5t32 67.5t14.5 74.5q0 29 -18 48t-39 27.5t-39 30t-18 55.5q0 42 28 69.5t73 27.5q64 0 99 -46.5t35 -122.5q0 -64 -16.5 -124t-39.5 -100t-46 -70.5t-40 -44.5l-16 -14q-18 0 -54.5 6.5t-42.5 7.5z" />
<glyph unicode="&#x201e;" horiz-adv-x="768" d="M100 -329q5 5 14.5 14t32.5 37.5t40.5 56.5t32 67.5t14.5 74.5q0 29 -18 47.5t-39 27t-39 30t-18 55.5q0 42 28 70t73 28q64 0 99.5 -47t35.5 -123q0 -64 -16.5 -124t-40 -100t-46.5 -70.5t-39 -44.5l-17 -14q-18 0 -53.5 7t-43.5 8zM417 -329q5 5 14.5 14t32.5 37.5 t40.5 56.5t32 67.5t14.5 74.5q0 29 -18 47.5t-39 27t-39 30t-18 55.5q0 42 28 70t73 28q64 0 99 -47t35 -123q0 -64 -16.5 -124t-39.5 -100t-46 -70.5t-40 -44.5l-16 -14q-18 0 -53.5 7t-43.5 8z" />
<glyph unicode="&#x2022;" horiz-adv-x="770" d="M170 522q0 -88 63.5 -150t152.5 -62t151.5 62t62.5 150q0 92 -62.5 155t-151.5 63q-90 0 -153 -63t-63 -155z" />
<glyph unicode="&#x2026;" horiz-adv-x="1153" d="M112 70q0 46 33 77.5t81 31.5t81 -31.5t33 -77.5q0 -47 -33 -78.5t-81 -31.5t-81 31.5t-33 78.5zM470 70q0 46 32.5 77.5t80.5 31.5t81 -31.5t33 -77.5q0 -47 -33 -78.5t-81 -31.5t-80.5 31.5t-32.5 78.5zM814 70q0 46 33 77.5t81 31.5t81 -31.5t33 -77.5 q0 -47 -33 -78.5t-81 -31.5t-81 31.5t-33 78.5z" />
<glyph unicode="&#x202f;" horiz-adv-x="380" />
<glyph unicode="&#x2039;" horiz-adv-x="620" d="M95 512l291 369h138l-260 -369l260 -369h-138z" />
<glyph unicode="&#x203a;" horiz-adv-x="620" d="M95 143l261 369l-261 369h139l290 -369l-290 -369h-139z" />
<glyph unicode="&#x205f;" horiz-adv-x="475" />
<glyph unicode="&#x20ac;" horiz-adv-x="1339" d="M112 669q0 153 56 289.5t152 233.5t227.5 153t277.5 56q117 0 220.5 -22.5t148.5 -44.5l46 -23q0 -27 -9 -78t-10 -58q-6 4 -17.5 10.5t-50 23t-79.5 29.5t-103.5 23.5t-125.5 10.5q-185 0 -330.5 -105.5t-205.5 -279.5h570q0 -23 -8 -65t-9 -51h-581q-7 -54 -7 -96 q0 -31 3 -63h602q0 -23 -8 -65t-9 -51h-564q51 -180 194 -286.5t344 -106.5q75 0 145 13.5t116.5 32.5t83 38.5t53.5 32.5l16 14q0 -24 -3 -50t-9 -59t-8 -50q-6 -4 -18.5 -11t-53.5 -24.5t-86 -31t-115 -24.5t-143 -11q-205 0 -365.5 90t-248.5 248.5t-88 357.5z" />
<glyph unicode="&#x2122;" horiz-adv-x="1867" d="M31 1435v100h674v-100h-273v-688h-126v688h-275zM799 747l94 778q5 1 48 8.5t66 7.5l246 -618l245 612h112l96 -788h-127l-63 590l-223 -588h-93l-222 570l-58 -572h-121z" />
<glyph unicode="&#xe000;" horiz-adv-x="1034" d="M0 0v1034h1034v-1034h-1034z" />
</font>
</defs>
</svg>
